<svg width="306" height="146" viewBox="0 0 306 146" fill="none" xmlns="http://www.w3.org/2000/svg">
<path d="M92.224 109C91.52 106.696 90.72 104.328 89.824 101.896C88.992 99.464 88.16 97.032 87.328 94.6H61.408C60.576 97.032 59.712 99.464 58.816 101.896C57.984 104.328 57.216 106.696 56.512 109H40.96C43.456 101.832 45.824 95.208 48.064 89.128C50.304 83.048 52.48 77.32 54.592 71.944C56.768 66.568 58.88 61.48 60.928 56.68C63.04 51.816 65.216 47.08 67.456 42.472H81.76C83.936 47.08 86.08 51.816 88.192 56.68C90.304 61.48 92.416 66.568 94.528 71.944C96.704 77.32 98.912 83.048 101.152 89.128C103.392 95.208 105.76 101.832 108.256 109H92.224ZM74.272 57.544C73.952 58.504 73.472 59.816 72.832 61.48C72.192 63.144 71.456 65.064 70.624 67.24C69.792 69.416 68.864 71.816 67.84 74.44C66.88 77.064 65.888 79.816 64.864 82.696H83.776C82.752 79.816 81.76 77.064 80.8 74.44C79.84 71.816 78.912 69.416 78.016 67.24C77.184 65.064 76.448 63.144 75.808 61.48C75.168 59.816 74.656 58.504 74.272 57.544ZM120.5 109C117.236 102.6 113.908 95.112 110.516 86.536C107.188 77.96 104.02 68.616 101.012 58.504H116.18C116.82 61 117.556 63.72 118.388 66.664C119.284 69.544 120.18 72.488 121.076 75.496C122.036 78.44 122.964 81.32 123.86 84.136C124.82 86.952 125.748 89.512 126.644 91.816C127.476 89.512 128.372 86.952 129.332 84.136C130.292 81.32 131.22 78.44 132.116 75.496C133.076 72.488 133.972 69.544 134.804 66.664C135.7 63.72 136.468 61 137.108 58.504H151.892C148.885 68.616 145.685 77.96 142.293 86.536C138.964 95.112 135.668 102.6 132.404 109H120.5ZM168.098 109H153.794V58.504H168.098V109ZM169.442 43.912C169.442 46.536 168.578 48.616 166.85 50.152C165.186 51.624 163.202 52.36 160.898 52.36C158.594 52.36 156.578 51.624 154.85 50.152C153.186 48.616 152.354 46.536 152.354 43.912C152.354 41.288 153.186 39.24 154.85 37.768C156.578 36.232 158.594 35.464 160.898 35.464C163.202 35.464 165.186 36.232 166.85 37.768C168.578 39.24 169.442 41.288 169.442 43.912ZM173.384 83.752C173.384 80.104 173.96 76.68 175.112 73.48C176.328 70.216 178.056 67.4 180.296 65.032C182.536 62.6 185.256 60.68 188.456 59.272C191.656 57.864 195.304 57.16 199.4 57.16C202.088 57.16 204.552 57.416 206.792 57.928C209.032 58.376 211.208 59.048 213.32 59.944L210.344 71.368C209 70.856 207.528 70.408 205.928 70.024C204.328 69.64 202.536 69.448 200.552 69.448C196.328 69.448 193.16 70.76 191.048 73.384C189 76.008 187.976 79.464 187.976 83.752C187.976 88.296 188.936 91.816 190.856 94.312C192.84 96.808 196.264 98.056 201.128 98.056C202.856 98.056 204.712 97.896 206.696 97.576C208.68 97.256 210.504 96.744 212.168 96.04L214.184 107.752C212.52 108.456 210.44 109.064 207.944 109.576C205.448 110.088 202.696 110.344 199.688 110.344C195.08 110.344 191.112 109.672 187.784 108.328C184.456 106.92 181.704 105.032 179.528 102.664C177.416 100.296 175.848 97.512 174.824 94.312C173.864 91.048 173.384 87.528 173.384 83.752ZM232.328 76.744C233.736 75.208 235.176 73.608 236.648 71.944C238.184 70.28 239.656 68.648 241.064 67.048C242.472 65.384 243.784 63.816 245 62.344C246.28 60.872 247.368 59.592 248.264 58.504H265.256C261.864 62.408 258.536 66.152 255.272 69.736C252.072 73.256 248.552 76.904 244.712 80.68C246.632 82.408 248.616 84.488 250.664 86.92C252.712 89.288 254.696 91.752 256.616 94.312C258.536 96.872 260.296 99.432 261.896 101.992C263.496 104.552 264.84 106.888 265.928 109H249.512C248.488 107.336 247.304 105.512 245.96 103.528C244.68 101.48 243.304 99.464 241.832 97.48C240.36 95.432 238.792 93.48 237.128 91.624C235.528 89.768 233.928 88.2 232.328 86.92V109H218.024V36.808L232.328 34.504V76.744Z" fill="#5A5A5A"/>
<path d="M304 73C304 91.9433 287.838 109.687 260.326 122.814C232.962 135.87 195.019 144 153 144C110.981 144 73.0376 135.87 45.6739 122.814C18.1623 109.687 2 91.9433 2 73C2 54.0567 18.1623 36.3127 45.6739 23.1863C73.0376 10.1304 110.981 2 153 2C195.019 2 232.962 10.1304 260.326 23.1863C287.838 36.3127 304 54.0567 304 73Z" stroke="#868686" stroke-width="4"/>
</svg>
