<svg xmlns="http://www.w3.org/2000/svg" viewBox="0 0 24 24" style="fill:currentColor" aria-hidden="true" focusable="false"><path d="M18.898 6.188c-.523 0-1.273.226-1.949 1.125-1.05-.075-1.8-.375-1.8-.375a9.258 9.258 0 0 0-6.297 0h-.079c-.75.3-1.273.375-1.722.375-.602-.899-1.426-1.125-1.95-1.125-.976 0-1.726.601-2.25 1.726-.374.899-.601 2.098-.601 3.375 0 2.547.898 5.098 2.852 5.098.148 0 .296 0 .375-.075.222.45.523.75.972.825 1.801.449 3.676.675 5.477.675 1.8 0 3.676-.226 5.472-.675.454-.075.75-.45.977-.825.148 0 .3.075.45.075.976 0 1.726-.598 2.25-1.723.448-.976.675-2.176.675-3.375 0-2.55-.898-5.101-2.852-5.101zM5.102 15.113c-1.051 0-1.653-1.949-1.653-3.902 0-1.95.602-3.899 1.653-3.899.148 0 .449 0 .824.45-.528.824-.824 2.101-.903 3.226-.148 1.125-.148 2.848.079 4.125zm12.074.899c-3.375.824-6.977.824-10.426 0-.074 0-.523-.524-.602-2.176-.222-2.7.375-5.024.829-5.25.523 0 1.273-.074 2.25-.375H9.3c1.05-.375 3.074-.899 5.472 0 .079 0 .977.375 2.25.453.454.149 1.051 2.473.829 5.172-.153 1.5-.528 2.101-.676 2.176zm2.847-1.95c-.222.45-.597 1.051-1.125 1.051.301-1.199.301-2.777.153-3.824-.074-1.05-.375-2.625-.977-3.453.375-.524.75-.524.824-.524 1.051 0 1.653 1.95 1.653 3.899 0 1.125-.227 2.176-.528 2.851zm0 0" style="stroke:none;fill-rule:nonzero;fill:#currentColor;fill-opacity:1"></path><path d="M15.148 9.637H8.926v1.199h6.222zm0 0" style="stroke:none;fill-rule:nonzero;fill:#currentColor;fill-opacity:1"></path></svg>