<svg xmlns="http://www.w3.org/2000/svg" viewBox="0 0 16 16" style="fill:currentColor" aria-hidden="true" focusable="false"><path d="M11.8 8c0 .7 0 1.3-.1 2h3.1c.1-.6.2-1.3.2-2s-.1-1.4-.3-2h-3.1c.1.7.2 1.3.2 2zm-1.4-2H5.6c-.1.6-.1 1.3-.1 2s0 1.4.1 2h4.8c.1-.6.1-1.3.1-2s0-1.4-.1-2zm-4.6 5.3C6.2 13.5 7 15 8 15c1 0 1.8-1.5 2.2-3.7H5.8zm5.7-6.6h2.7C13.4 3.2 12 2 10.4 1.4c.5.9.9 2.1 1.1 3.3zm-7 6.6H1.8c.8 1.5 2.2 2.7 3.8 3.3-.5-.9-.9-2.1-1.1-3.3zM4.2 8c0-.7 0-1.3.1-2h-3c-.2.6-.3 1.3-.3 2s.1 1.4.3 2h3.1c-.1-.7-.2-1.3-.2-2zm7.3 3.3c-.2 1.3-.6 2.4-1.1 3.3 1.6-.6 3-1.8 3.8-3.3h-2.7zm-7-6.6c.2-1.3.6-2.4 1.1-3.3-1.6.6-3 1.8-3.8 3.3h2.7zm5.7 0C9.8 2.5 9 1 8 1 7 1 6.2 2.5 5.8 4.7h4.4z"></path></svg>