<svg xmlns="http://www.w3.org/2000/svg" viewBox="0 0 24 24" style="fill:currentColor" aria-hidden="true" focusable="false"><path d="M3.602 19.2h4.421v2.55h1.278v-3.824H3.6zM13.125 6C14.175 6 15 5.176 15 4.125c0-1.05-.824-1.875-1.875-1.875-1.05 0-1.875.824-1.875 1.875 0 1.05.824 1.875 1.875 1.875zm0 0" style="stroke:none;fill-rule:nonzero;fill:#currentColor;fill-opacity:1"></path><path d="M18.977 4.05s-.454.9-1.875 1.95a5.306 5.306 0 0 1-3 .977h-2.028c-1.648 0-3.148.898-3.972 2.324-1.051 1.949-1.426 3.222-1.426 3.3l1.574.376s.3-1.204 1.273-2.926c.301-.528.75-.977 1.352-1.2V21.75h1.574v-7.352h1.426v7.352h1.574V8.398c.903-.222 1.801-.523 2.551-1.125C19.8 6 20.324 4.875 20.398 4.727zm0 0" style="stroke:none;fill-rule:nonzero;fill:#currentColor;fill-opacity:1"></path></svg>