<svg xmlns="http://www.w3.org/2000/svg" viewBox="0 0 24 24" style="fill:currentColor" aria-hidden="true" focusable="false"><path d="M18.09 4.266V2.25h-1.195v2.016h-9.79V2.25H5.91v2.016H4.715A2.44 2.44 0 0 0 2.25 6.734V21.75h17.035a2.488 2.488 0 0 0 2.465-2.465V4.265zM4.715 5.46H5.91v1.871h1.195v-1.87h9.79v1.871h1.195V5.461h2.465v3.512H3.445V6.734c0-.75.598-1.273 1.27-1.273zm14.57 15.094H3.445v-10.46h17.11v9.117c0 .746-.598 1.344-1.27 1.344zm0 0" style="stroke:none;fill-rule:nonzero;fill:#currentColor;fill-opacity:1"></path><path d="M18.09 15.55H14.8v3.286h3.29zm0 0" style="stroke:none;fill-rule:nonzero;fill:#currentColor;fill-opacity:1"></path></svg>