<svg xmlns="http://www.w3.org/2000/svg" viewBox="0 0 16 16" style="fill:currentColor" aria-hidden="true" focusable="false"><path d="m13.381 4.732-.264.24-.636-2a1.41 1.41 0 0 0-1.115-.966c-.058-.008-1.346-.206-3.378-.206-2.016 0-2.586.066-3.395.206-.52.091-.942.463-1.107.967L2.85 4.972l-.264-.24H1v1h1.214l.207.181C1.917 6.583 1 7.953 1.066 9.02c.017.322.041.685.074 1.049.025.347.124.677.273.975l.132 2.263a.95.95 0 0 0 .95.892h1.032a.95.95 0 0 0 .95-.95v-.752h6.715v.752c0 .52.422.95.95.95h1.363a.95.95 0 0 0 .95-.892l.132-2.272c.149-.297.248-.628.273-.974.024-.364.05-.727.074-1.05.066-1.065-.86-2.436-1.355-3.105l.207-.182H15v-.99h-1.619zM3.965 9.49a.92.92 0 0 1-.917-.917.92.92 0 0 1 .917-.917.92.92 0 0 1 .917.917.915.915 0 0 1-.917.917zM3.734 5.5l.71-2.23a.437.437 0 0 1 .33-.289c.711-.124 1.173-.19 3.222-.19 1.95 0 3.213.19 3.221.19.157.025.28.14.33.29l.71 2.23a16.569 16.569 0 0 1-8.523 0zm8.268 3.99a.92.92 0 0 1-.917-.917.92.92 0 0 1 .917-.917.92.92 0 0 1 .917.917.904.904 0 0 1-.917.917z"></path></svg>