<svg xmlns="http://www.w3.org/2000/svg" viewBox="0 0 16 16" style="fill:currentColor" aria-hidden="true" focusable="false"><path d="M14.556 7.543a1.08 1.08 0 0 0-.632-1.951h-2.961a1.077 1.077 0 0 1-1.024-.743l-.914-2.815a1.08 1.08 0 0 0-2.05 0L6.06 4.85a1.082 1.082 0 0 1-1.027.743H2.076a1.08 1.08 0 0 0-.632 1.951l2.393 1.739a1.076 1.076 0 0 1 .391 1.203l-.913 2.816a1.08 1.08 0 0 0 1.656 1.206l2.393-1.74a1.074 1.074 0 0 1 1.267 0l2.393 1.74A1.079 1.079 0 0 0 12.68 13.3l-.914-2.816a1.076 1.076 0 0 1 .392-1.203l2.398-1.739z"></path></svg>