<svg xmlns="http://www.w3.org/2000/svg" viewBox="0 0 16 16" style="fill:currentColor" aria-hidden="true" focusable="false"><path d="M10.015 5.831a.842.842 0 0 0-.595-.247h-.35L7.993 7 6.914 5.584h-.337a.823.823 0 0 0-.596.247c-.37.371-.539 1.09-.494 4.158l.989-.011L6.622 15h1.011l-.112-3.989h1L8.408 15h1l.135-5.022.967.01c.045-3.067-.124-3.786-.495-4.157zm-.741-2.325A1.304 1.304 0 0 1 7.678 5.09a1.298 1.298 0 0 1-.944-.944A1.307 1.307 0 0 1 8.33 2.562a1.3 1.3 0 0 1 .944.944zM8.51 1.831a1.9 1.9 0 0 1 .674.326l.112-.696C8.981 1.18 8.521 1 8.004 1s-.978.18-1.292.46l.112.686a2.053 2.053 0 0 1 1.18-.382c.168.011.337.034.506.067z"></path></svg>