<svg version="1.1" id="Layer_1" xmlns="http://www.w3.org/2000/svg" xmlns:xlink="http://www.w3.org/1999/xlink" x="0" y="0" viewBox="0 0 128 145" xml:space="preserve" enable-background="new 0 0 128 145"><style type="text/css">.st0{fill:#fff}.st1{opacity:.52;fill:url(#SVGID_1_);enable-background:new}.st2{fill:url(#SVGID_2_)}.st3{fill:#ebeff3}.st4{opacity:.67}.st5{fill:#00dfcd}.st6{fill:#0089ff}.st7{fill:#009fff}.st8{fill:#293754}.st9{fill:#ffc0af}.st10,.st11{opacity:.35;fill:#009fff;enable-background:new}.st11{opacity:.2;fill:#fff}.st12{fill:#6fb7ff}</style><path class="st0" d="M91.1,41.3v95.3c0,2.6-2.1,4.7-4.7,4.7c-0.8,0-1.6-0.2-2.3-0.6l-31.9-18.4c-4.6-2.7-7.5-7.6-7.5-12.9V10.6	c0-1.8,1.5-3.3,3.3-3.3c0.6,0,1.2,0.2,1.7,0.4l33,19.1C87.9,29.8,91.1,35.3,91.1,41.3L91.1,41.3z"/><linearGradient id="SVGID_1_" gradientUnits="userSpaceOnUse" x1="64.431" y1="743.903" x2="30.316" y2="715.276" gradientTransform="matrix(1 0 0 1 0 -690.551)"><stop offset=".253" stop-color="#009EFF" stop-opacity="0"/><stop offset=".709" stop-color="#009EFF" stop-opacity="0.5"/><stop offset=".889" stop-color="#009EFF" stop-opacity="0.8"/><stop offset="1" stop-color="#009EFF"/></linearGradient><path class="st1" d="M78.9,24L44,77.7V9.6c0-1.8,1.5-3.3,3.3-3.3c0.6,0,1.2,0.2,1.7,0.4L78.9,24z"/><radialGradient id="SVGID_2_" cx="25.935" cy="172.717" r="97.822" gradientTransform="matrix(1 0 0 -1 0 146)" gradientUnits="userSpaceOnUse"><stop offset="0" stop-color="#FFFFFF"/><stop offset=".098" stop-color="#D1D4DB"/><stop offset=".209" stop-color="#A4AAB8"/><stop offset=".324" stop-color="#7D879A"/><stop offset=".443" stop-color="#5D6981"/><stop offset=".566" stop-color="#45536E"/><stop offset=".695" stop-color="#344361"/><stop offset=".833" stop-color="#293959"/><stop offset="1" stop-color="#263656"/></radialGradient><path class="st2" d="M95.7,28.9c-1.9-3.3-4.7-6.1-8-8L56.9,3.2c-1.4-0.8-3-1.2-4.6-1.2c-2.4,0-4.7,0.9-6.4,2.6	c-1.8,1.7-2.8,4.1-2.8,6.6v97.2c0,6.6,3.6,12.8,9.3,16.1l30.5,17.6c4.1,2.4,9.2,1.7,12.6-1.5c2.1-2,3.2-4.7,3.2-7.5v-93	C98.6,36,97.6,32.2,95.7,28.9L95.7,28.9z M91.2,136.4c0,2.6-2.1,4.6-4.7,4.6c-0.8,0-1.6-0.2-2.3-0.6l-31.8-18.3	c-4.6-2.7-7.4-7.6-7.4-12.9V11c0-1.8,1.5-3.3,3.3-3.3c0.6,0,1.2,0.2,1.7,0.4l32.9,19c5.1,3,8.3,8.5,8.3,14.4V136.4z"/><ellipse transform="matrix(0.866 -0.5 0.5 0.866 -50.4196 49.4104)" class="st3" cx="67" cy="118.8" rx="3.2" ry="5.5"/><g class="st4"><polygon class="st5" points="70,80.2 83.8,89.2 83.8,86.6 70,77.6"/><polygon class="st6" points="86.5,88.3 86.5,90.9 109.2,105.5 109.2,103"/><polygon class="st6" points="109.2,110.3 109.2,112.8 70,87.5 70,84.9"/><polygon class="st6" points="104.8,114.7 104.8,117.2 69.9,94.7 69.9,92.2"/><polygon class="st6" points="70,101.5 85.9,111.9 86.1,109.6 70,99.4"/><path class="st7" d="M71.9,65.2l20.8,13.4c1.1,0.8,1.9,2.3,1.9,3.8l0,0c0,1.1-1.1,1.8-2,1.3L71.8,70.3c-1.1-0.8-1.9-2.3-1.9-3.8 l0,0C69.9,65.3,71.1,64.6,71.9,65.2z"/></g><g><path class="st8" d="M5,121l28.4,16.4c1.4,0.8,3.1,0.3,4-1.1c0.2-0.4,0.4-1,0.4-1.5V94.3c0-4.4-2.3-8.3-6.1-10.6L5.4,68.5 c-1.4-0.8-3.2-0.3-4,1.1C1.2,70,1,70.5,1,71.1v43.1C1,117,2.5,119.6,5,121L5,121z"/><path class="st0" d="M31.5,121.3c-0.7-1.3-1.7-2.4-3-3.1L10,107.5c-0.9-0.7-2-0.7-3-0.3c-1.7,1-1.7,4,0,6.9c0.7,1.3,1.7,2.4,3,3.1 l18.5,10.7c0.9,0.7,2,0.7,3,0.3C33.2,127.2,33.2,124.1,31.5,121.3z"/><path class="st9" d="M10.9,110.8l-0.5,0.8l-1.1-0.5l0.7,1.4l-0.2,1.1h1l0.9,1.2l-0.2-1.3l0.8-0.5l-1.1-0.7L10.9,110.8z"/><path class="st9" d="M15.1,113.2l-0.5,0.8l-1.1-0.4l0.8,1.3l-0.2,1.2h1l1,1.1l-0.2-1.3l0.8-0.4l-1.1-0.8L15.1,113.2z"/><path class="st9" d="M19.3,115.7l-0.5,0.8l-1.1-0.4l0.8,1.3l-0.2,1.1h1l1,1.2l-0.2-1.3l0.7-0.4l-1.1-0.8L19.3,115.7z"/><path class="st9" d="M23.6,118.1l-0.5,0.9l-1.1-0.5l0.7,1.3l-0.2,1.2h1l0.9,1.2l-0.2-1.4l0.7-0.4l-1.1-0.8L23.6,118.1z"/><path class="st9" d="M27.8,120.5l-0.5,0.8l-1.1-0.4l0.7,1.3l-0.2,1.2l1-0.1l0.9,1.2l-0.2-1.3l0.8-0.4l-1.1-0.8L27.8,120.5z"/><path class="st0" d="M6.5,85.7l9.1,5.3v1.5l-9.1-5.3V85.7z"/><path class="st0" d="M32.2,100.6v1.5l-14.9-8.6V92L32.2,100.6z"/><path class="st0" d="M6.5,90v1.5l25.7,14.9v-1.5L6.5,90z"/><path class="st0" d="M6.5,94.3v1.5L29.4,109v-1.5L6.5,94.3z"/><path class="st0" d="M6.5,98.6l12,6.9l-0.1,1.5l-11.9-7V98.6z"/><path class="st0" d="M6.5,79.1c0,0.9,0.5,1.7,1.2,2.2l13.6,7.8c0.6,0.3,1.3-0.1,1.3-0.7c0-0.9-0.5-1.7-1.2-2.2L7.8,78.4 C7.3,78,6.5,78.4,6.5,79.1z"/></g><path class="st10" d="M64,38.5v18c0,2-1.6,3.6-3.5,3.6c-0.6,0-1.3-0.2-1.8-0.5L45,51.7V21.3l13.7,7.9C61.9,31.1,64,34.7,64,38.5z"/><path class="st7" d="M14.1,40.2l38.8,22.4c1.7,1,3.9,0.4,4.9-1.3c0.3-0.5,0.5-1.2,0.5-1.8v-18c0-3.8-2-7.4-5.4-9.3L14.1,9.8	c-1.7-1-3.9-0.4-4.9,1.3c-0.3,0.6-0.5,1.2-0.5,1.8v18C8.7,34.7,10.8,38.3,14.1,40.2z"/><path class="st0" d="M28,34.8v2.7l17.2,9.9v-2.7L28,34.8z"/><path class="st0" d="M28,29.2v2.7l25.2,14.7v-2.8L28,29.2z"/><ellipse transform="matrix(0.866 -0.5 0.5 0.866 -11.8315 13.6254)" class="st11" cx="19.5" cy="28.9" rx="4.6" ry="8"/><path class="st9" d="M19.5,25.3l-0.8,1.5l-2-0.8l1.4,2.4l-0.3,2h1.7l1.7,2L20.9,30l1.4-0.7l-1.9-1.5L19.5,25.3z"/><g><g><path class="st12" d="M119.6,33.3c-0.3-0.4-0.7-0.8-1.1-1.1c-0.4-0.3-0.8-0.5-1.3-0.6s-0.9-0.2-1.3-0.1c-0.1,0-0.3,0.1-0.4,0.1 l-4.3,1.2c0.1,0,0.2-0.1,0.4-0.1c-0.4,0-0.8,0.2-1.1,0.5c-0.3,0.3-0.6,0.6-0.7,1.2c-0.2,0.5-0.3,1.2-0.3,2s0.1,1.5,0.3,2.1 c0.2,0.6,0.4,1.1,0.7,1.6c0.3,0.4,0.7,0.8,1.1,1.1s0.9,0.5,1.3,0.6c0.5,0.1,1,0.1,1.2,0.1c0.1,0,0.2,0,0.4,0 c0.5-0.1,4.3-1.2,4.3-1.2c0.3-0.1,0.4-0.1,0.8-0.4c0.3-0.3,0.6-0.7,0.7-1.2c0.2-0.5,0.3-1.1,0.3-1.9c0-0.8-0.1-1.5-0.3-2.1 C120.1,34.2,119.9,33.7,119.6,33.3z"/><path class="st12" d="M125.9,9c-0.4-1.3-1-2.4-1.7-3.4s-1.6-2-2.7-2.7s-1.8-1.1-3-1.4c-0.9-0.2-2-0.4-2.7-0.4 c-0.7,0-1.4,0-2.2,0.1c-0.5,0.1-1.1,0.2-1.6,0.3c-1.1,0.3-4.3,1.2-4.3,1.2c0.1,0-0.2,0.1-0.5,0.2c-0.7,0.2-1.3,0.5-1.8,0.7l2,6.3 c0,0,2.8-0.9,3.8-1.1c0.8-0.2,1.6-0.1,2.3,0.1c1,0.3,1.8,0.8,2.3,1.6s0.7,1.7,0.7,2.7c0,0.6,0,1.2-0.2,1.6 c-0.1,0.5-0.3,0.9-0.5,1.3s-0.5,0.8-0.9,1.1c-0.4,0.3-0.8,0.7-1.4,1.2s-1.2,1-1.6,1.5s-0.8,1-1.1,1.6s-0.5,1.2-0.6,1.9 c-0.1,0.7-0.2,1.5-0.2,2.4v1.9l5.1,1.4l4.3-1.2v-1.6c0-0.6,0-1,0.1-1.4s0.2-0.7,0.4-1.1c0.2-0.3,0.5-0.7,0.8-1s0.8-0.7,1.3-1.1 c0.7-0.6,1.3-1.1,1.9-1.7c0.5-0.5,0.9-1.1,1.3-1.8c0.3-0.6,0.6-1.4,0.8-2.2c0.2-0.8,0.3-1.8,0.4-2.9 C126.5,11.6,126.3,10.2,125.9,9z"/></g><path class="st7" d="M115.3,41.3c0.3-0.3,0.5-0.7,0.7-1.2c0.2-0.5,0.3-1.1,0.3-1.9c0-0.8-0.1-1.5-0.3-2.1c-0.2-0.6-0.4-1.1-0.7-1.6 c-0.2-0.4-0.7-0.8-1.1-1.1c-0.3-0.3-1-0.5-1.3-0.6c-0.5-0.1-0.8-0.1-1.3-0.1c-0.4,0-0.8,0.2-1.1,0.5c-0.3,0.3-0.5,0.6-0.7,1.2 c-0.1,0.5-0.3,1.2-0.3,2s0.1,1.5,0.3,2.1c0.2,0.6,0.4,1.1,0.7,1.6c0.3,0.4,0.7,0.8,1.1,1.1s0.9,0.5,1.3,0.6 c0.5,0.1,0.9,0.2,1.3,0.1c0.2,0,0.5-0.2,0.6-0.2C115,41.5,115.1,41.5,115.3,41.3z"/><path class="st7" d="M115.8,24.9c0.2-0.3,0.5-0.7,0.8-1s0.8-0.7,1.3-1.1c0.7-0.6,1.3-1.1,1.9-1.7c0.5-0.5,1-1.1,1.3-1.8 c0.4-0.6,0.6-1.4,0.8-2.2c0.2-0.8,0.3-1.8,0.3-2.9c0-1.5-0.2-2.9-0.6-4.1c-0.4-1.3-1-2.4-1.7-3.4s-1.6-1.9-2.7-2.6 s-2.3-1.2-3.6-1.6c-0.7-0.2-1.4-0.3-2.1-0.3s-1.4,0-2.2,0.1c-0.5,0.1-1.8,0.4-2.1,0.5c-0.7,0.2-1.3,0.5-1.8,0.8l2,6.2 c0.5-0.2,1-0.4,1.4-0.5c0.1,0,1.8-0.5,2.3-0.6c0.8-0.1,1.6-0.1,2.3,0.1c1,0.3,1.8,0.8,2.3,1.6s0.7,1.7,0.7,2.7 c0,0.6-0.2,2.1-0.7,2.9c-0.7,1-1.7,1.8-2.3,2.3s-1.2,1-1.6,1.5s-0.8,1-1.1,1.6s-0.5,1.2-0.6,1.9c-0.1,0.7-0.2,1.5-0.2,2.4l0.1,2 l5.1,1.4c0,0-0.2-0.9-0.1-1.7C115.2,25.6,115.6,25.3,115.8,24.9z"/></g></svg>