<svg width="343" height="164" viewBox="0 0 343 164" fill="none" xmlns="http://www.w3.org/2000/svg">
<path d="M103.224 111C102.52 108.696 101.72 106.328 100.824 103.896C99.992 101.464 99.16 99.032 98.328 96.6H72.408C71.576 99.032 70.712 101.464 69.816 103.896C68.984 106.328 68.216 108.696 67.512 111H51.96C54.456 103.832 56.824 97.208 59.064 91.128C61.304 85.048 63.48 79.32 65.592 73.944C67.768 68.568 69.88 63.48 71.928 58.68C74.04 53.816 76.216 49.08 78.456 44.472H92.76C94.936 49.08 97.08 53.816 99.192 58.68C101.304 63.48 103.416 68.568 105.528 73.944C107.704 79.32 109.912 85.048 112.152 91.128C114.392 97.208 116.76 103.832 119.256 111H103.224ZM85.272 59.544C84.952 60.504 84.472 61.816 83.832 63.48C83.192 65.144 82.456 67.064 81.624 69.24C80.792 71.416 79.864 73.816 78.84 76.44C77.88 79.064 76.888 81.816 75.864 84.696H94.776C93.752 81.816 92.76 79.064 91.8 76.44C90.84 73.816 89.912 71.416 89.016 69.24C88.184 67.064 87.448 65.144 86.808 63.48C86.168 61.816 85.656 60.504 85.272 59.544ZM131.5 111C128.236 104.6 124.908 97.112 121.516 88.536C118.188 79.96 115.02 70.616 112.012 60.504H127.18C127.82 63 128.556 65.72 129.388 68.664C130.284 71.544 131.18 74.488 132.076 77.496C133.036 80.44 133.964 83.32 134.86 86.136C135.82 88.952 136.748 91.512 137.644 93.816C138.476 91.512 139.372 88.952 140.332 86.136C141.292 83.32 142.22 80.44 143.116 77.496C144.076 74.488 144.972 71.544 145.804 68.664C146.7 65.72 147.468 63 148.108 60.504H162.892C159.885 70.616 156.685 79.96 153.293 88.536C149.964 97.112 146.668 104.6 143.404 111H131.5ZM179.098 111H164.794V60.504H179.098V111ZM180.442 45.912C180.442 48.536 179.578 50.616 177.85 52.152C176.186 53.624 174.202 54.36 171.898 54.36C169.594 54.36 167.578 53.624 165.85 52.152C164.186 50.616 163.354 48.536 163.354 45.912C163.354 43.288 164.186 41.24 165.85 39.768C167.578 38.232 169.594 37.464 171.898 37.464C174.202 37.464 176.186 38.232 177.85 39.768C179.578 41.24 180.442 43.288 180.442 45.912ZM184.384 85.752C184.384 82.104 184.96 78.68 186.112 75.48C187.328 72.216 189.056 69.4 191.296 67.032C193.536 64.6 196.256 62.68 199.456 61.272C202.656 59.864 206.304 59.16 210.4 59.16C213.088 59.16 215.552 59.416 217.792 59.928C220.032 60.376 222.208 61.048 224.32 61.944L221.344 73.368C220 72.856 218.528 72.408 216.928 72.024C215.328 71.64 213.536 71.448 211.552 71.448C207.328 71.448 204.16 72.76 202.048 75.384C200 78.008 198.976 81.464 198.976 85.752C198.976 90.296 199.936 93.816 201.856 96.312C203.84 98.808 207.264 100.056 212.128 100.056C213.856 100.056 215.712 99.896 217.696 99.576C219.68 99.256 221.504 98.744 223.168 98.04L225.184 109.752C223.52 110.456 221.44 111.064 218.944 111.576C216.448 112.088 213.696 112.344 210.688 112.344C206.08 112.344 202.112 111.672 198.784 110.328C195.456 108.92 192.704 107.032 190.528 104.664C188.416 102.296 186.848 99.512 185.824 96.312C184.864 93.048 184.384 89.528 184.384 85.752ZM243.328 78.744C244.736 77.208 246.176 75.608 247.648 73.944C249.184 72.28 250.656 70.648 252.064 69.048C253.472 67.384 254.784 65.816 256 64.344C257.28 62.872 258.368 61.592 259.264 60.504H276.256C272.864 64.408 269.536 68.152 266.272 71.736C263.072 75.256 259.552 78.904 255.712 82.68C257.632 84.408 259.616 86.488 261.664 88.92C263.712 91.288 265.696 93.752 267.616 96.312C269.536 98.872 271.296 101.432 272.896 103.992C274.496 106.552 275.84 108.888 276.928 111H260.512C259.488 109.336 258.304 107.512 256.96 105.528C255.68 103.48 254.304 101.464 252.832 99.48C251.36 97.432 249.792 95.48 248.128 93.624C246.528 91.768 244.928 90.2 243.328 88.92V111H229.024V38.808L243.328 36.504V78.744ZM293.998 103.416C293.998 106.296 293.07 108.504 291.214 110.04C289.422 111.512 287.374 112.248 285.07 112.248C282.766 112.248 280.686 111.512 278.83 110.04C277.038 108.504 276.142 106.296 276.142 103.416C276.142 100.536 277.038 98.36 278.83 96.888C280.686 95.352 282.766 94.584 285.07 94.584C287.374 94.584 289.422 95.352 291.214 96.888C293.07 98.36 293.998 100.536 293.998 103.416Z" fill="#000F5F"/>
<path d="M341 81.8268C341 103.208 322.767 123.158 291.908 137.882C261.196 152.535 218.628 161.654 171.5 161.654C124.372 161.654 81.804 152.535 51.0924 137.882C20.233 123.158 2 103.208 2 81.8268C2 60.4461 20.233 40.4954 51.0924 25.7716C81.804 11.1184 124.372 2 171.5 2C218.628 2 261.196 11.1184 291.908 25.7716C322.767 40.4954 341 60.4461 341 81.8268Z" stroke="#000F5F" stroke-opacity="0.81" stroke-width="4"/>
</svg>
