<svg width="30" height="30" viewBox="0 0 30 30" fill="none" xmlns="http://www.w3.org/2000/svg">
<rect width="30" height="30" fill="#FF0000" fill-opacity="0.01"/>
<path fill-rule="evenodd" clip-rule="evenodd" d="M4 8C4 5.79086 5.79086 4 8 4H19.8C22.0091 4 23.8 5.79086 23.8 8V8.38009C24.905 8.38009 26 9.48172 26 10.5701V24.03C26 25.1184 25.105 26 24 26H7C5.343 26 4 24.6771 4 23.045V8.38009V8ZM20 17.0407C20 18.1407 20.895 19.0317 22 19.0317C23.105 19.0317 24 18.1407 24 17.0407C24 15.9407 23.105 15.0498 22 15.0498C20.895 15.0498 20 15.9407 20 17.0407ZM7.7 6.19005C6.87157 6.19005 6.2 6.86162 6.2 7.69005V8.38009H21.6V7.69005C21.6 6.86162 20.9284 6.19005 20.1 6.19005H7.7Z" fill="black"/>
<mask id="mask0_0_1320" style="mask-type:alpha" maskUnits="userSpaceOnUse" x="4" y="4" width="22" height="22">
<path fill-rule="evenodd" clip-rule="evenodd" d="M4 8C4 5.79086 5.79086 4 8 4H19.8C22.0091 4 23.8 5.79086 23.8 8V8.38009C24.905 8.38009 26 9.48172 26 10.5701V24.03C26 25.1184 25.105 26 24 26H7C5.343 26 4 24.6771 4 23.045V8.38009V8ZM20 17.0407C20 18.1407 20.895 19.0317 22 19.0317C23.105 19.0317 24 18.1407 24 17.0407C24 15.9407 23.105 15.0498 22 15.0498C20.895 15.0498 20 15.9407 20 17.0407ZM7.7 6.19005C6.87157 6.19005 6.2 6.86162 6.2 7.69005V8.38009H21.6V7.69005C21.6 6.86162 20.9284 6.19005 20.1 6.19005H7.7Z" fill="white"/>
</mask>
<g mask="url(#mask0_0_1320)">
<rect width="30" height="30" fill="#C1C0C9"/>
</g>
</svg>
