<svg width="64" height="64" viewBox="0 0 64 64" fill="none" xmlns="http://www.w3.org/2000/svg">
<path d="M10.3818 62.9081L1.00001 62.9081L1.00001 61.0638C1.00001 48.9592 12.2695 42.6984 21.0349 42.6984C23.3512 42.6986 23.5396 42.6982 26.8788 42.6984C26.8788 59.416 24.7957 62.9081 10.3818 62.9081Z" fill="url(#paint0_linear)"/>
<path d="M47.4186 33.2467C44.745 30.5731 39.353 30.8854 37.0404 33.198C36.3467 33.8917 24.6703 45.8954 22.9745 47.5912L21.1439 50.3213C18.6756 50.3213 17.6783 55.8737 19.5096 55.8736C24.8444 55.8736 27.1147 54.4404 29.6429 52.1809L47.9979 33.8259L47.4186 33.2467Z" fill="url(#paint1_linear)"/>
<path d="M60.3332 40.929C58.4427 37.6545 53.1536 36.5606 50.3212 38.1959L34.1665 47.5228L29.4823 47.5228C27.8899 47.5228 22.3784 55.396 24.1474 55.87C28.2878 55.87 35.2357 56.1455 38.2626 54.6174L60.7428 41.6384L60.3332 40.929Z" fill="url(#paint2_linear)"/>
<path d="M47.4223 18.1597C47.4223 8.4815 39.4775 0.681132 29.7992 0.825583C20.5544 0.970034 12.9707 8.48149 12.754 17.7264C12.6818 22.3488 14.343 26.6101 17.232 29.788C18.532 31.2326 19.2543 33.1826 19.2543 35.1327V38.3107H40.6331V35.4216C40.6331 33.3993 41.3553 31.4492 42.7276 30.0047C45.6889 26.899 47.4223 22.7822 47.4223 18.1597Z" fill="url(#paint3_linear)"/>
<path d="M29.9437 0.825693V8.84273V19.5321C29.9437 22.4934 27.5602 24.8768 24.599 24.8768C21.6377 24.8768 19.33 27.2603 19.33 30.2215V35.2051V38.383H40.6331V35.494C40.6331 33.4717 41.3553 31.5216 42.7276 30.0771C45.6166 26.9714 47.4223 22.7823 47.4223 18.2321C47.4223 8.55383 39.6219 0.753467 29.9437 0.825693Z" fill="url(#paint4_linear)"/>
<path d="M35.3606 16.0649H24.6712V17.9428H35.3606V16.0649Z" fill="url(#paint5_linear)"/>
<path d="M22.9378 14.3317C22.9378 13.3928 23.7323 12.5983 24.6712 12.5983C25.6102 12.5983 26.4047 13.3928 26.4047 14.3317V38.3106L28.2825 38.5273V14.3317C28.2825 12.3816 26.6936 10.7205 24.6712 10.7205C22.7212 10.7205 21.06 12.3094 21.06 14.3317" fill="url(#paint6_linear)"/>
<path d="M38.8997 14.3317C38.8997 12.3816 37.3107 10.7205 35.2884 10.7205C33.2661 10.7205 31.6771 12.3094 31.6771 14.3317V38.5273L33.555 38.3106V14.3317C33.555 13.3928 34.3495 12.5983 35.2884 12.5983C36.2273 12.5983 37.0218 13.3928 37.0218 14.3317H38.8997Z" fill="url(#paint7_linear)"/>
<path d="M19.3265 38.3105C19.3265 44.233 24.0934 48.9999 30.0159 48.9999C35.9384 48.9999 40.6331 44.233 40.6331 38.3105V37H19.3265V38.3105Z" fill="url(#paint8_linear)"/>
<path d="M37.0218 14.3317C37.0218 15.2706 36.2273 16.0651 35.2884 16.0651V17.9429C37.2385 17.9429 38.8997 16.354 38.8997 14.3317" fill="url(#paint9_linear)"/>
<path d="M21.06 14.3317C21.06 16.2818 22.6489 17.9429 24.6712 17.9429V16.0651C23.7323 16.0651 22.9378 15.2706 22.9378 14.3317H21.06Z" fill="url(#paint10_linear)"/>
<path d="M50.6569 54.5376C49.6805 54.5355 43.7346 54.5377 38.477 54.5376C33.2193 54.5375 26.7301 53.8061 26.73 48.2776C26.7299 42.7491 11.3234 62.9079 11.7607 62.9079C12.198 62.908 47.286 62.9468 58.1523 62.9699C58.1567 60.908 56.5785 54.5499 50.6569 54.5376Z" fill="url(#paint11_linear)"/>
<path d="M35.2359 43.2615C33.3404 45.8173 29.9786 50.3504 26.618 55.6497C24.6031 58.827 22.6715 60.4007 21.1737 61.1738C19.667 62.2351 17.5489 62.908 14.7607 62.908H2.07605C2.07605 50.5404 8.41835 47.8449 15.5535 47.8449C17.5648 47.8449 19.2594 48.3883 20.5947 49.2686L25.5965 42.1252C27.1924 39.8461 31.9494 38.3247 36.5121 41.5195C36.2476 41.8973 35.8087 42.4891 35.2359 43.2615Z" fill="url(#paint12_linear)"/>
<defs>
<linearGradient id="paint0_linear" x1="4.1712" y1="60.3829" x2="1.21063" y2="51.7497" gradientUnits="userSpaceOnUse">
<stop stop-color="#784646"/>
<stop offset="1" stop-color="#925B54"/>
</linearGradient>
<linearGradient id="paint1_linear" x1="31.4062" y1="31.4232" x2="43.0908" y2="35.0311" gradientUnits="userSpaceOnUse">
<stop stop-color="#784646"/>
<stop offset="1" stop-color="#925B54"/>
</linearGradient>
<linearGradient id="paint2_linear" x1="39.9164" y1="37.4997" x2="52.6107" y2="44.0413" gradientUnits="userSpaceOnUse">
<stop stop-color="#784646"/>
<stop offset="1" stop-color="#925B54"/>
</linearGradient>
<linearGradient id="paint3_linear" x1="30.1666" y1="21.405" x2="7.76675" y2="-2.19481" gradientUnits="userSpaceOnUse">
<stop stop-color="#FFF5DB"/>
<stop offset="0.9987" stop-color="#FFDA84"/>
</linearGradient>
<linearGradient id="paint4_linear" x1="19.3001" y1="7.69984" x2="37.2565" y2="30.012" gradientUnits="userSpaceOnUse">
<stop stop-color="#FFF5DB"/>
<stop offset="0.9987" stop-color="#FFDA84"/>
</linearGradient>
<linearGradient id="paint5_linear" x1="29.9774" y1="14.3619" x2="29.9774" y2="16.5416" gradientUnits="userSpaceOnUse">
<stop offset="0.000421262" stop-color="#FFD066"/>
<stop offset="0.9991" stop-color="#F0996E"/>
</linearGradient>
<linearGradient id="paint6_linear" x1="24.6437" y1="14.7825" x2="24.6437" y2="29.3244" gradientUnits="userSpaceOnUse">
<stop offset="0.000421262" stop-color="#FFD066"/>
<stop offset="0.9991" stop-color="#F0996E"/>
</linearGradient>
<linearGradient id="paint7_linear" x1="35.3109" y1="14.7825" x2="35.3109" y2="29.3244" gradientUnits="userSpaceOnUse">
<stop offset="0.000421262" stop-color="#FFD066"/>
<stop offset="0.9991" stop-color="#F0996E"/>
</linearGradient>
<linearGradient id="paint8_linear" x1="23.6766" y1="30.0317" x2="35.9126" y2="43.8819" gradientUnits="userSpaceOnUse">
<stop stop-color="#FFADCE"/>
<stop offset="1" stop-color="#F078A4"/>
</linearGradient>
<linearGradient id="paint9_linear" x1="37.111" y1="14.3621" x2="37.111" y2="16.5418" gradientUnits="userSpaceOnUse">
<stop offset="0.000421262" stop-color="#FFD066"/>
<stop offset="0.9991" stop-color="#F0996E"/>
</linearGradient>
<linearGradient id="paint10_linear" x1="22.8437" y1="14.3621" x2="22.8437" y2="16.5418" gradientUnits="userSpaceOnUse">
<stop offset="0.000421262" stop-color="#FFD066"/>
<stop offset="0.9991" stop-color="#F0996E"/>
</linearGradient>
<linearGradient id="paint11_linear" x1="26.8294" y1="52.6586" x2="27.0303" y2="58.0065" gradientUnits="userSpaceOnUse">
<stop stop-color="#784646"/>
<stop offset="1" stop-color="#925B54"/>
</linearGradient>
<linearGradient id="paint12_linear" x1="12.8731" y1="57.5597" x2="26.4222" y2="60.7549" gradientUnits="userSpaceOnUse">
<stop stop-color="#784646"/>
<stop offset="1" stop-color="#925B54"/>
</linearGradient>
</defs>
</svg>
