<svg width="64" height="64" viewBox="0 0 64 64" fill="none" xmlns="http://www.w3.org/2000/svg">
<path d="M2 10.9656H27.5172V18.5518C24.6606 18.5518 22.3448 20.8676 22.3448 23.7242C22.3448 26.5808 24.6606 28.8966 27.5172 28.8966V36.4828H19.931C19.931 39.3395 17.6153 41.6552 14.7586 41.6552C11.902 41.6552 9.58621 39.3395 9.58621 36.4828H2V10.9656Z" fill="url(#paint0_linear)"/>
<path d="M2 62L2 36.4828L9.5862 36.4828C9.5862 39.3394 11.902 41.6552 14.7586 41.6552C17.6153 41.6552 19.931 39.3394 19.931 36.4828L27.5172 36.4828L27.5172 44.069C30.3739 44.069 32.6896 46.3847 32.6896 49.2414C32.6896 52.098 30.3739 54.4138 27.5172 54.4138L27.5172 62L2 62Z" fill="url(#paint1_linear)"/>
<path d="M53.0342 62L27.517 62L27.517 54.4138C30.3736 54.4138 32.6894 52.098 32.6894 49.2414C32.6894 46.3847 30.3736 44.069 27.517 44.069L27.517 36.4828L35.1032 36.4828C35.1032 33.6261 37.4189 31.3103 40.2756 31.3103C43.1322 31.3103 45.448 33.6261 45.448 36.4828L53.0342 36.4828L53.0342 62Z" fill="url(#paint2_linear)"/>
<path d="M62 2L62 27.5172L54.4138 27.5172C54.4138 24.6606 52.098 22.3448 49.2414 22.3448C46.3847 22.3448 44.069 24.6606 44.069 27.5172L36.4828 27.5172L36.4828 19.931C33.6261 19.931 31.3103 17.6153 31.3103 14.7586C31.3103 11.902 33.6261 9.58621 36.4828 9.58621L36.4828 2L62 2Z" fill="url(#paint3_linear)"/>
<defs>
<linearGradient id="paint0_linear" x1="11.8389" y1="27.4089" x2="28.4121" y2="27.9278" gradientUnits="userSpaceOnUse">
<stop stop-color="#7D66FF"/>
<stop offset="0.9996" stop-color="#6D55F6"/>
</linearGradient>
<linearGradient id="paint1_linear" x1="20.1958" y1="51.2634" x2="19.4877" y2="34.39" gradientUnits="userSpaceOnUse">
<stop stop-color="#FCC565"/>
<stop offset="0.9991" stop-color="#F0996E"/>
</linearGradient>
<linearGradient id="paint2_linear" x1="44.6019" y1="45.0924" x2="0.220868" y2="48.522" gradientUnits="userSpaceOnUse">
<stop stop-color="#8FCEFF"/>
<stop offset="0.9996" stop-color="#3471E1"/>
</linearGradient>
<linearGradient id="paint3_linear" x1="72.2762" y1="4.97714" x2="68.4903" y2="25.6559" gradientUnits="userSpaceOnUse">
<stop stop-color="#FFADCE"/>
<stop offset="1" stop-color="#F078A4"/>
</linearGradient>
</defs>
</svg>
