<svg width="449" height="361" viewBox="0 0 449 361" fill="none" xmlns="http://www.w3.org/2000/svg">
<path d="M443.16 226.059C365.568 225.46 170.116 206.706 106.672 214.397C32.9018 223.298 20.3233 251.51 77.5855 273.684C47.8403 269.754 8.82288 257.919 2.23412 223.274C-6.06771 179.968 31.8236 163.472 54.9442 166.419C62.4793 143.658 70.9129 122.562 93.0631 109.54C141.437 81.1244 205.671 114.727 205.671 114.727C205.671 114.727 246.141 60.1888 301.678 78.5175C348.676 94.0282 360.169 136.302 360.169 136.302C452.907 136.302 454.3 207.43 443.16 226.059Z" fill="#FFE234"/>
<path d="M433.689 223.777C433.689 223.777 453.623 225.047 444.087 236.883C434.552 248.719 404.746 257.092 373.6 254.517C352.863 252.792 221.052 235.996 209.037 229.36C197.021 222.723 236.446 215.727 236.446 215.727L433.689 223.777Z" fill="#2A197E"/>
<path d="M212.033 218.267L364.484 240.022C364.484 240.022 390.684 244.371 410.342 239.387C415.937 237.962 420.285 236.68 423.651 235.578C426.982 234.484 429.928 232.454 432.135 229.73C434.342 227.007 435.718 223.705 436.098 220.22C436.877 213.14 437.08 204.347 434.349 199.471C434.038 198.933 433.669 198.431 433.247 197.974C430.084 194.38 422.801 190.307 415.182 186.701C403.681 181.262 391.414 176.902 391.414 176.902C391.414 176.902 367.467 159.448 343.652 151.493C340.475 150.429 337.239 149.549 333.96 148.858C307.39 143.407 240.448 148.858 228.085 151.769C215.722 154.68 221.892 160.502 221.892 160.502C221.892 160.502 206.246 175.596 205.516 184.796C204.785 193.997 212.033 218.267 212.033 218.267Z" fill="white"/>
<path d="M205.886 191.72C206.863 198.006 208.186 204.233 209.851 210.373C211.049 214.985 212.044 218.267 212.044 218.267L244.772 222.939H244.832L364.496 240.022C364.496 240.022 390.695 244.371 410.353 239.387C415.948 237.962 420.308 236.68 423.663 235.578C426.993 234.484 429.939 232.454 432.146 229.73C434.354 227.007 435.729 223.705 436.109 220.22C436.888 213.14 437.092 204.359 434.36 199.471C434.05 198.933 433.68 198.431 433.258 197.974C430.096 194.38 422.812 190.307 415.193 186.701C403.693 181.262 391.426 176.902 391.426 176.902C391.426 176.902 367.466 159.448 343.651 151.493C340.474 150.429 337.238 149.549 333.96 148.858C307.389 143.407 240.447 148.858 228.084 151.769C215.721 154.68 221.891 160.502 221.891 160.502C218.656 163.693 215.627 167.086 212.822 170.66C209.229 175.296 205.814 180.675 205.479 184.844C205.388 187.144 205.524 189.447 205.886 191.72V191.72Z" fill="white"/>
<path d="M371.576 240.944L369.647 240.669C367.463 240.365 365.453 239.311 363.962 237.687C362.471 236.062 361.593 233.97 361.477 231.768C361.046 222.855 357.428 209.126 345.904 207.006C328.713 203.807 325.251 222.004 325.251 222.004L324.053 230.606C324.054 231.058 323.958 231.505 323.771 231.917C323.584 232.329 323.311 232.696 322.971 232.993C322.63 233.291 322.23 233.512 321.796 233.641C321.363 233.771 320.907 233.806 320.459 233.744L304.886 231.516L341.459 240.752L371.576 240.944Z" fill="#2A197E"/>
<path d="M343.059 250.42C352.429 249.826 359.427 239.934 358.691 228.326C357.954 216.718 349.762 207.79 340.393 208.384C331.023 208.979 324.025 218.871 324.761 230.478C325.498 242.086 333.69 251.014 343.059 250.42Z" fill="#2A197E"/>
<path d="M342.886 246.965C349.7 246.556 354.791 239 354.256 230.088C353.722 221.176 347.764 214.283 340.949 214.692C334.135 215.101 329.044 222.657 329.579 231.569C330.113 240.481 336.071 247.374 342.886 246.965Z" fill="white" stroke="#2A197E" stroke-width="1.112" stroke-miterlimit="10"/>
<path d="M342.204 235.573C344.321 235.446 345.91 233.219 345.752 230.599C345.595 227.979 343.751 225.958 341.634 226.085C339.517 226.212 337.928 228.439 338.085 231.059C338.243 233.679 340.086 235.7 342.204 235.573Z" fill="#2A197E"/>
<path d="M209.84 207.796V210.408C211.038 215.02 212.032 218.302 212.032 218.302L244.76 222.974C243.119 222.585 241.648 221.675 240.568 220.379C239.488 219.083 238.857 217.471 238.77 215.787C238.423 208.491 235.452 197.218 226.048 195.421C211.876 192.834 209.84 207.796 209.84 207.796Z" fill="#2A197E"/>
<path d="M223.618 231.076C231.304 230.588 237.045 222.474 236.441 212.953C235.837 203.432 229.117 196.109 221.431 196.596C213.745 197.084 208.004 205.198 208.608 214.719C209.212 224.24 215.933 231.563 223.618 231.076Z" fill="#2A197E"/>
<path d="M223.364 227.046C228.937 226.693 233.079 220.492 232.616 213.195C232.153 205.899 227.26 200.271 221.688 200.625C216.115 200.978 211.972 207.18 212.435 214.476C212.898 221.772 217.791 227.4 223.364 227.046Z" fill="white"/>
<path d="M222.771 217.721C224.501 217.612 225.793 215.783 225.657 213.637C225.521 211.491 224.008 209.841 222.278 209.95C220.548 210.06 219.256 211.889 219.392 214.035C219.528 216.181 221.041 217.831 222.771 217.721Z" fill="#2A197E"/>
<path d="M401.656 207.005C401.682 206.741 401.64 206.474 401.533 206.23C401.426 205.987 401.258 205.775 401.045 205.616C396.497 202.425 391.376 200.143 385.963 198.895C380.123 197.429 374.192 196.353 368.209 195.673C367.644 195.598 367.069 195.685 366.551 195.922C366.033 196.159 365.592 196.538 365.279 197.015C364.966 197.491 364.794 198.046 364.783 198.616C364.771 199.186 364.921 199.748 365.214 200.237C366.745 202.641 368.973 204.521 371.599 205.628C378.871 209.078 395.295 208.634 400.135 208.419C400.511 208.405 400.869 208.254 401.141 207.993C401.413 207.732 401.579 207.381 401.608 207.005H401.656Z" fill="#3D6AFA"/>
<path d="M415.182 186.7C421.459 189.887 425.209 195.996 427.976 200.01C428.707 201.064 432.181 202.106 432.768 199.662C432.923 199.063 433.115 198.464 433.211 197.973C430.084 194.379 422.801 190.306 415.182 186.7Z" fill="#3D6AFA"/>
<path d="M304.216 159.268C309.331 162.455 320.124 169.451 335.003 180.664C336.018 181.43 337.181 181.978 338.418 182.272C339.655 182.567 340.939 182.603 342.191 182.377C374.236 176.734 391.463 176.902 391.463 176.902C391.463 176.902 367.468 159.448 343.652 151.494C323.287 151.985 310.577 154.572 304.743 156.094C304.406 156.17 304.099 156.344 303.862 156.596C303.625 156.847 303.468 157.163 303.411 157.504C303.355 157.844 303.401 158.194 303.544 158.509C303.687 158.823 303.921 159.087 304.216 159.268V159.268Z" fill="#2A197E"/>
<path d="M327.682 186.987C328.051 186.604 328.335 186.147 328.514 185.646C328.693 185.145 328.763 184.612 328.72 184.081C328.677 183.551 328.522 183.036 328.264 182.57C328.007 182.105 327.653 181.699 327.227 181.381C320.722 176.589 306.083 165.915 298.476 162.214C293.198 159.622 287.592 157.76 281.812 156.679C281.258 156.578 280.686 156.652 280.175 156.89C279.664 157.128 279.24 157.519 278.961 158.009C277.26 161.16 273.786 168.287 272.852 175.547C272.768 176.279 272.955 177.017 273.379 177.62C273.803 178.223 274.434 178.649 275.152 178.817C282.891 180.698 306.91 186.185 324.555 188.173C325.121 188.235 325.694 188.167 326.23 187.974C326.765 187.781 327.25 187.468 327.646 187.059L327.682 186.987Z" fill="#2A197E"/>
<path d="M323.968 188.114C323.687 188.077 323.417 187.981 323.176 187.833C322.935 187.684 322.728 187.486 322.569 187.252C322.409 187.018 322.301 186.753 322.251 186.474C322.201 186.196 322.211 185.909 322.279 185.635C322.279 185.635 323.369 180.843 319.008 178.902C314.648 176.961 307.903 177.992 307.903 183.814C307.903 189.636 320.638 192.547 320.638 192.547L324.483 188.186L323.968 188.114Z" fill="white"/>
<path d="M275.367 155.71C271.949 162.632 269.162 169.849 267.042 177.273C267.042 177.273 248.078 174.134 235.392 170.325C222.705 166.515 225.365 157.65 245.071 155.722C264.586 153.793 275.367 155.71 275.367 155.71Z" fill="#2A197E"/>
<path d="M235.333 181.177C235.333 181.177 238.759 175.643 242.029 175.475C245.3 175.307 244.617 166.874 251.146 166.874H257.686C261.987 166.874 263.029 168.766 264.059 177.2L265.09 185.586L238.938 181.105L235.333 181.177Z" fill="white"/>
<path d="M205.885 191.72L210.953 188.198C210.953 188.198 216.679 178.902 215.589 176.734C214.499 174.566 212.833 170.636 212.833 170.636C209.24 175.272 205.825 180.651 205.49 184.82C205.394 187.128 205.526 189.439 205.885 191.72V191.72Z" fill="#3D6AFA"/>
<path d="M294.355 183.095L266.982 177.261L261.376 161.076L241.693 156.177C241.693 156.177 281.13 148.174 307.761 167.677L294.355 183.095Z" fill="#2A197E"/>
<path d="M124.677 234.067C117.489 233.887 112.206 228.964 106.48 230.222C96.3932 232.414 81.3229 240.584 88.4148 245.627C99.424 253.546 152.218 287.76 184.575 287.065C216.931 286.37 317.057 272.39 318.566 268.652C321.932 260.362 290.258 252.144 290.258 252.144L124.677 234.067Z" fill="#2A197E"/>
<path d="M290.647 267.801C297.705 267.251 302.413 253.775 301.162 237.7C299.91 221.625 293.175 209.039 286.117 209.588C279.059 210.137 274.352 223.614 275.603 239.689C276.854 255.764 283.589 268.35 290.647 267.801Z" fill="#2A197E"/>
<path d="M303.969 246.896C300.088 252.885 287.45 256.935 251.056 261.056C229.643 263.545 208.087 264.582 186.534 264.158C186.534 264.158 101.18 232.353 92.9976 219.498C84.8155 206.644 87.6667 178.205 88.2057 173.305C88.7448 168.406 92.5663 163.973 101.096 148.256C109.625 132.539 142.653 134.839 191.434 134.839C240.214 134.839 246.024 148.46 246.024 148.46L257.261 177.786C257.261 177.786 294.05 194.293 301.993 200.667C304.389 202.595 306.018 206.896 306.94 212.167C309.049 224.206 307.599 241.325 303.969 246.896Z" fill="white"/>
<path d="M115.871 231.205L113.008 229.588C112.458 229.272 111.982 228.841 111.614 228.324C111.246 227.807 110.994 227.217 110.876 226.593C107.785 210.061 104.239 193.697 97.1112 193.697C87.6952 193.697 94.0085 224.545 94.1043 224.712L115.871 236.955V231.205Z" fill="#2A197E"/>
<path d="M173.792 268.892C179.478 272.099 186.069 273.326 192.529 272.378L278.65 263.189C282.866 262.567 288.305 261.524 291.947 259.392C299.518 254.96 304.453 245.148 304.453 245.148V244.933C301.962 247.412 296.379 249.641 288.784 251.593C269.617 256.529 207.144 260.159 193.487 259.416C184.346 258.913 180.669 256.134 179.842 254.073C176.248 245.016 171.816 213.414 160.531 212.049C143.305 209.952 146.527 243.651 146.527 243.651L115.859 231.228V236.978L173.792 268.892Z" fill="#2A197E"/>
<path d="M99.264 246.111C103.121 245.957 105.87 236.371 105.403 224.7C104.936 213.029 101.431 203.693 97.5734 203.847C93.7162 204.002 90.9678 213.588 91.4346 225.259C91.9015 236.93 95.4068 246.266 99.264 246.111Z" fill="#2A197E"/>
<path d="M98.9167 241.351C101.554 241.242 103.391 233.802 103.019 224.732C102.646 215.663 100.206 208.398 97.5688 208.506C94.9312 208.615 93.0947 216.055 93.4669 225.124C93.8391 234.194 96.279 241.459 98.9167 241.351Z" fill="white"/>
<path d="M98.3988 228.639C98.9938 228.616 99.4103 226.935 99.3291 224.886C99.2478 222.836 98.6996 221.194 98.1047 221.218C97.5097 221.241 97.0932 222.922 97.1744 224.971C97.2557 227.021 97.8039 228.663 98.3988 228.639Z" fill="#2A197E" stroke="#2A197E" stroke-width="1.11" stroke-miterlimit="10"/>
<path d="M162.682 279.694C169.74 279.144 174.448 265.668 173.197 249.593C171.946 233.518 165.21 220.932 158.152 221.481C151.094 222.031 146.387 235.507 147.638 251.582C148.889 267.657 155.624 280.243 162.682 279.694Z" fill="#2A197E"/>
<path d="M163.053 273.5C167.896 273.113 171.009 262.63 170.005 250.085C169.001 237.541 164.262 227.686 159.419 228.074C154.576 228.461 151.463 238.944 152.467 251.488C153.47 264.033 158.21 273.888 163.053 273.5Z" fill="white"/>
<path d="M161.614 257.015C162.847 256.916 163.622 254.039 163.345 250.59C163.068 247.141 161.844 244.425 160.611 244.524C159.378 244.623 158.602 247.5 158.879 250.949C159.156 254.398 160.38 257.114 161.614 257.015Z" fill="#2A197E" stroke="#2A197E" stroke-width="1.11" stroke-miterlimit="10"/>
<path d="M246.509 146.761L155.093 146.557C154.755 146.567 154.423 146.649 154.119 146.796C153.814 146.944 153.545 147.154 153.328 147.413C153.11 147.672 152.95 147.974 152.858 148.3C152.766 148.625 152.744 148.966 152.793 149.301L157.022 173.368C157.314 175.024 158.212 176.512 159.54 177.544C160.868 178.576 162.533 179.077 164.21 178.95C181.161 177.644 235.416 174.302 257.794 176.051L246.509 146.761Z" fill="#2A197E"/>
<path d="M153.655 147.048C155.788 145.263 177.722 143.861 207.563 143.861C237.404 143.861 246.473 146.76 246.473 146.76L249.096 153.577L159.741 154.775L153.655 147.048Z" fill="#2A197E"/>
<path d="M148.553 177.536C146.756 161.531 148.301 146.568 134.357 143.861C120.413 141.154 112.159 141.908 109.068 145.275C107.199 147.299 104.588 152.187 102.803 155.745C102.165 157.012 101.813 158.403 101.771 159.821C101.73 161.239 102 162.649 102.563 163.951L103.366 165.867C103.943 167.211 104.797 168.418 105.872 169.409C106.948 170.4 108.221 171.153 109.607 171.618C116.795 174.014 131.506 178.805 142.359 181.201L148.553 177.536Z" fill="#2A197E"/>
<path d="M162.761 183.67C162.761 183.67 159.322 178.147 156.052 177.967C152.782 177.788 153.476 169.366 146.936 169.366H140.395C136.094 169.366 135.064 171.259 134.034 179.692L133.003 188.078L159.167 183.646L162.761 183.67Z" fill="white"/>
<path d="M214.428 206.431C216.278 206.565 218.042 207.265 219.482 208.434C220.922 209.604 221.968 211.188 222.478 212.971C222.861 214.277 223.161 215.605 223.376 216.949C223.477 217.546 223.445 218.157 223.282 218.74C223.118 219.323 222.828 219.863 222.432 220.321C222.036 220.778 221.544 221.143 220.991 221.389C220.437 221.634 219.837 221.754 219.232 221.74C212.789 221.632 206.387 220.694 200.184 218.949C192.661 216.553 187.45 210.204 184.754 206.095C184.526 205.775 184.399 205.394 184.389 205.001C184.379 204.608 184.486 204.22 184.697 203.889C184.908 203.557 185.213 203.295 185.573 203.138C185.933 202.98 186.332 202.934 186.719 203.004C192.912 203.963 204.94 205.688 214.428 206.431Z" fill="#3D6AFA"/>
<path d="M307.424 210.467C304.142 214.704 299.419 217.589 294.151 218.577C293.646 218.681 293.123 218.662 292.626 218.523C292.129 218.384 291.673 218.127 291.295 217.775C290.918 217.424 290.63 216.987 290.456 216.501C290.281 216.015 290.226 215.495 290.294 214.983L290.977 209.676C291.139 208.348 291.647 207.086 292.45 206.016C293.253 204.946 294.323 204.106 295.553 203.579C298.164 202.554 300.525 200.981 302.477 198.967C304.885 200.895 306.514 205.196 307.424 210.467Z" fill="#3D6AFA"/>
<path d="M210.163 259.225C214.439 259.057 221.172 246.287 221.172 246.287L222.861 243.244C223.931 241.338 225.457 239.728 227.304 238.559C229.15 237.39 231.259 236.699 233.439 236.547C246.125 235.673 272.648 233.66 287.167 231.181C288.705 230.921 290.285 231.224 291.618 232.033C292.951 232.843 293.948 234.105 294.427 235.589L295.745 239.686C295.745 239.686 297.901 248.072 301.327 247.173L291.923 259.488L210.139 268.808L210.163 259.225Z" fill="#2A197E"/>
</svg>
