<svg width="449" height="361" viewBox="0 0 449 361" fill="none" xmlns="http://www.w3.org/2000/svg">
<path d="M377.743 217.746C375.537 221.904 373.058 225.911 370.321 229.741C368.035 232.988 365.578 236.112 362.96 239.099C362.83 239.175 362.692 239.236 362.548 239.282C362.013 239.465 361.439 239.513 360.881 239.419C360.322 239.326 359.795 239.096 359.348 238.748C358.904 238.391 358.553 237.93 358.327 237.407L355.553 230.884V246.948C330.269 271.47 292.807 288.28 248.578 295.337C158.171 309.724 73.5848 264.535 61.1179 186.274C56.6828 159.07 58.5422 133.968 66.635 112.189L387.116 140.049C387.711 142.473 388.214 144.926 388.641 147.411C392.816 173.67 388.61 197.339 377.743 217.746Z" fill="#00D3B8"/>
<path d="M111.246 70.1712C115.199 68.5334 119.435 67.6893 123.713 67.687C125.243 67.6838 126.772 67.7959 128.285 68.0223C149.957 86.6159 119.644 73.2041 111.246 70.1712Z" fill="#00D3B8"/>
<path d="M145.567 155.58C141.67 157.389 137.427 158.33 133.131 158.339C112.983 158.339 96.6445 137.657 96.6445 112.174C96.6445 86.692 112.983 66.0104 133.131 66.0104C137.428 66.0109 141.673 66.9525 145.567 68.7689C131.546 75.2005 121.533 92.2091 121.533 112.129C121.533 132.048 131.515 149.133 145.567 155.58Z" fill="#3D6AFA"/>
<path d="M387.115 140.08C369.268 65.98 261.745 44.9173 173.715 50.6936C113.834 54.6257 81.7983 71.3295 66.6338 112.205L79.5884 113.333C79.6304 117.776 80.0948 122.206 80.9753 126.562C81.5017 129.225 82.2147 131.848 83.109 134.411C83.2309 134.792 83.3681 135.173 83.49 135.523L84.0539 137.047C84.2216 137.535 84.4197 138.008 84.6178 138.571C84.8159 139.135 85.197 139.943 85.5018 140.644V140.842C92.4973 156.525 109.293 179.676 147.592 179.676C148.964 179.767 150.32 179.828 151.707 179.828C182.067 179.828 207.214 156.007 211.588 124.962L387.115 140.08ZM158.413 145.491C153.806 151.326 147.441 155.522 140.262 157.455C137.939 158.039 135.554 158.336 133.159 158.339C113.712 158.339 97.8315 139.09 96.7494 114.826L115.572 116.472C115.56 116.543 115.56 116.615 115.572 116.686C115.572 116.823 115.572 117.006 115.572 117.174C115.629 117.33 115.659 117.495 115.663 117.661L115.816 118.362C117.065 123.697 120.388 131.728 130.142 132.75C130.477 132.75 130.828 132.887 131.178 132.917C138.143 133.664 144.697 127.857 147.501 119.201L168.838 121.045C167.592 129.973 163.994 138.41 158.413 145.491V145.491Z" fill="#2A197E"/>
<path d="M307.056 166.325C307.056 166.325 318.242 162.423 321.641 155.504C327.143 144.348 319.233 116.076 306.4 111.794C284.499 104.493 272.627 117.981 272.627 117.981C272.627 117.981 303.733 139.318 307.056 166.325Z" fill="white"/>
<path d="M260.27 123.803C260.27 123.803 268.667 109.629 287.931 115.131C303.965 119.703 304.361 131.103 304.361 131.103L260.27 123.803Z" fill="#2A197E"/>
<path d="M308.307 134.243C303.293 116.655 282.809 112.906 266.578 120.16C250.346 127.415 233.902 151.709 236.523 159.222C239.144 166.736 249.95 170.241 254.202 175.21C258.454 180.178 255.117 207.215 253.684 214.836C252.251 222.456 282.215 209.197 287.625 195.175C287.305 190.22 287.366 185.247 287.808 180.3C288.143 177.481 292.792 171.918 297.638 165.06L299.162 164.74C300.63 164.378 301.941 163.549 302.896 162.377C303.846 161.201 304.382 159.744 304.42 158.232C304.466 157.201 304.337 156.171 304.039 155.184C307.773 148.341 310.227 140.979 308.307 134.243Z" fill="#FA7C73"/>
<path d="M262.766 131.79C262.4 133.664 259.535 134.594 254.962 135.051C253.95 135.23 252.911 135.194 251.914 134.944C250.971 134.701 250.089 134.266 249.323 133.664C250.954 131.833 252.684 130.093 254.505 128.452C255.511 128.279 256.535 128.233 257.553 128.315C261.485 128.604 263.131 129.915 262.766 131.79Z" fill="#9E2138"/>
<path d="M308.913 227.623C307.495 228.644 296.644 210.279 294.221 210.538L290.487 196.151C289.573 188.815 289.877 181.379 291.386 174.143L293.154 171.766C298.442 174.539 311.946 183.958 315.923 193.27C320.618 204.228 319.322 220.14 308.913 227.623Z" fill="#2A197E"/>
<path d="M297.638 174.372C297.697 173.973 297.639 173.565 297.47 173.198C297.294 172.837 297.014 172.535 296.667 172.332C296.32 172.129 295.921 172.032 295.519 172.055C295.115 172.086 294.728 172.235 294.407 172.482C293.002 174.083 291.473 175.571 289.835 176.932C287.899 178.837 289.56 181.062 290.673 180.788C290.703 180.788 296.739 179.218 297.638 174.372Z" fill="#FF0ABD"/>
<path d="M277.827 134.639C279.503 132.962 279.808 130.554 278.512 129.259C277.217 127.963 274.809 128.283 273.133 129.96C271.456 131.636 271.136 134.029 272.431 135.325C273.727 136.62 276.196 136.3 277.827 134.639Z" fill="#2A197E"/>
<path d="M279.943 137.505C280.309 135.63 277.383 133.481 273.39 132.704C269.397 131.927 265.876 132.811 265.51 134.7C265.145 136.59 268.071 138.739 272.064 139.501C276.057 140.263 279.578 139.395 279.943 137.505Z" fill="#FA7C73"/>
<path d="M377.441 291.71C377.25 291.824 377.051 291.925 376.847 292.015C372.183 294.133 341.915 293.889 316.006 293.28C309.59 289.058 303.905 284.897 299.699 281.682C283.203 288.081 266.065 292.68 248.581 295.398C237.919 297.097 227.143 297.978 216.347 298.035C216.732 297.804 217.099 297.544 217.445 297.258C218.9 296.017 219.854 294.289 220.127 292.396L221.041 286.193L224.089 265.023C205.023 267.706 177.392 270.525 172.789 265.161C167.257 258.699 167.181 243.016 167.181 243.016L178.931 244.433C178.931 229.055 169.055 209.105 169.055 209.105C169.055 209.105 200.695 204.426 218.709 203.299H238.202L267.708 206.652C267.708 206.652 283.178 204.609 287.293 191.106C287.293 191.106 293.252 194.322 293.709 199.153L294.181 204C294.181 204 325.41 212.535 339.294 217.823C352.553 222.883 353.163 224.605 360.433 241.995L361.515 244.586C365.815 255.181 370.957 265.415 376.893 275.189C376.893 275.189 384.787 287.595 377.441 291.71Z" fill="#F4F4FA"/>
<path d="M350.703 310.349C339.364 307.301 326.669 300.229 316 293.279C309.584 289.058 303.899 284.897 299.692 281.681C294.968 278.069 292.072 275.585 292.072 275.585C288.706 275.377 285.46 274.257 282.681 272.346C279.902 270.434 277.696 267.803 276.298 264.734L275.277 262.478L273.661 259.628C273.296 259.149 272.806 258.78 272.244 258.561C271.68 258.349 271.071 258.286 270.476 258.378C268.48 258.729 265.492 259.232 263.984 259.399C263.491 259.423 263.001 259.327 262.554 259.12C262.107 258.912 261.717 258.6 261.418 258.209C261.118 257.818 260.918 257.36 260.834 256.874C260.75 256.389 260.785 255.891 260.935 255.422C258.451 255.574 255.251 256.168 254.275 253.273C253.937 252.592 253.878 251.806 254.112 251.083C254.345 250.359 254.852 249.756 255.525 249.401C254.77 249.526 253.996 249.347 253.371 248.905C252.747 248.463 252.321 247.793 252.187 247.039C251.898 245.866 253.879 243.884 256.897 241.781C261.235 238.84 265.972 236.535 270.964 234.938H271.223L270.933 234.816C267.892 233.603 264.777 232.585 261.606 231.768C257.339 230.64 255.388 228.415 255.51 226.495C255.632 224.574 257.765 224.574 257.765 224.574C261.901 224.38 266.037 224.964 269.958 226.297C272.529 227.099 275.028 228.118 277.426 229.345C280.946 231.128 282.44 234.847 283.111 238.489C283.671 238.862 284.183 239.302 284.635 239.8C285.476 240.762 286.049 241.929 286.296 243.183C286.646 245.027 287.5 250.24 288.353 255.574C293.261 257.098 310.285 262.28 327.979 267.934C333.999 269.87 340.08 271.851 345.811 273.756C353.431 269.184 368.901 271.211 368.901 271.211C368.901 271.211 371.339 275.905 375.53 285.141C376.517 287.242 377.145 289.493 377.39 291.801C378.792 301.494 376.384 317.223 350.703 310.349Z" fill="#C17632"/>
<path d="M262.223 129.869C260.873 128.816 259.193 128.276 257.483 128.345C256.778 128.284 256.069 128.284 255.364 128.345C255.619 127.803 255.97 127.312 256.401 126.897C258.077 125.205 260.5 124.9 261.796 126.18C262.235 126.686 262.512 127.313 262.588 127.979C262.668 128.646 262.54 129.322 262.223 129.914V129.869Z" fill="#2A197E"/>
<path d="M250.297 175.027H247.249C246.396 175.003 245.56 174.778 244.81 174.371C244.06 173.965 243.413 173.392 242.92 172.695C242.13 171.574 241.089 170.654 239.879 170.008C238.67 169.363 237.326 169.009 235.955 168.976V168.976C234.696 168.928 233.449 169.246 232.367 169.893C231.284 170.539 230.413 171.486 229.859 172.619C229.525 173.318 228.995 173.905 228.335 174.311C227.674 174.712 226.913 174.918 226.14 174.905H223.656C222.897 174.878 222.141 175.024 221.446 175.332C220.755 175.641 220.141 176.099 219.648 176.673C219.158 177.246 218.803 177.921 218.608 178.648C218.413 179.376 218.383 180.138 218.52 180.879L219.236 185.634L257.429 185.863L256.195 179.934C255.913 178.577 255.176 177.357 254.107 176.475C253.054 175.557 251.723 175.02 250.327 174.951L250.297 175.027Z" fill="#2A197E"/>
<path d="M279.058 286.147H217.867C217.063 286.138 216.29 285.84 215.687 285.309C215.083 284.775 214.697 284.037 214.605 283.236L202.931 184.278C202.871 183.813 202.913 183.339 203.053 182.891C203.194 182.445 203.422 182.03 203.723 181.672C204.032 181.322 204.411 181.042 204.836 180.849C205.261 180.654 205.724 180.555 206.192 180.559H267.414C268.217 180.559 268.992 180.852 269.594 181.382C270.195 181.917 270.575 182.656 270.66 183.455L282.396 282.428C282.459 282.893 282.423 283.366 282.289 283.815C282.151 284.259 281.923 284.669 281.618 285.019C281.302 285.37 280.918 285.655 280.491 285.857C280.058 286.045 279.591 286.144 279.119 286.147H279.058Z" fill="#3D6AFA"/>
<path d="M258.011 138.77C251.153 137.703 248.547 138.16 247.785 140.736C247.023 143.312 255.405 144.561 260.389 144.089C264.778 143.677 269.732 143.464 267.445 141.498C265.159 139.532 258.011 138.77 258.011 138.77Z" fill="white"/>
<path d="M307.851 132.826C307.851 132.826 314.329 152.319 307.059 166.355C310.721 164.106 313.844 161.078 316.203 157.485C318.55 153.896 320.07 149.831 320.654 145.582L313.841 132.14L304.361 121.822L307.851 132.826Z" fill="white"/>
<path d="M265.388 124.641C256.243 130.829 250.985 126.531 254.978 135.066L261.715 134.365C261.715 134.365 265.723 124.519 265.388 124.641Z" fill="#FA7C73"/>
<path d="M167.621 131.302C167.621 131.302 172.955 140.553 172.97 135.402C172.986 130.25 177.314 124.855 174.982 117.372C172.65 109.889 164.634 110.315 164.634 110.315L167.621 131.302Z" fill="#FA7C73"/>
<path d="M184.701 243.809L184.609 245.592L184.518 247.009C182.811 247.116 180.525 247.253 177.919 247.253C173.144 247.332 168.38 246.757 163.76 245.546C142.423 240.593 142.301 219.881 146.416 193.728C149.861 171.858 153.473 144.074 153.473 144.074L151.705 141.285C149.602 138.374 147.91 135.859 146.553 133.664C143.002 135.189 141.676 127.37 141.112 122.859C140.579 118.622 145.517 114.873 146.157 114.415C146.209 114.356 146.265 114.3 146.325 114.248C146.419 113.509 146.641 112.792 146.98 112.129C147.859 110.614 149.223 109.438 150.851 108.792C150.918 107.991 151.164 107.215 151.57 106.521C151.976 105.827 152.533 105.234 153.198 104.783C154.08 104.382 155.023 104.135 155.987 104.052C157.671 103.964 159.347 104.338 160.834 105.134L159.904 88.8873C159.917 88.2664 160.132 87.6667 160.516 87.1784C160.899 86.69 161.431 86.3395 162.031 86.1796C162.631 86.0197 163.267 86.0591 163.843 86.2918C164.418 86.5245 164.903 86.938 165.223 87.4699C165.987 89.3561 166.475 91.3426 166.671 93.368C168.82 104.28 169.613 108.243 169.613 108.243C171.72 116.169 172.856 124.321 172.996 132.521C172.905 140.142 172.996 147.914 173.636 155.596L176.12 188.668L177.416 207.993C182.707 219.166 185.207 231.457 184.701 243.809V243.809Z" fill="#FA7C73"/>
<path d="M184.613 245.592L184.521 247.009C184.537 246.537 184.567 246.049 184.613 245.592Z" fill="white"/>
<path d="M148.965 134.594L144.636 136.712C144.547 136.743 144.451 136.743 144.362 136.712C144.272 136.703 144.186 136.665 144.118 136.606C144.047 136.541 143.999 136.456 143.981 136.362C143.958 136.272 143.958 136.178 143.981 136.087L145.657 131.607C145.822 131.145 146.076 130.72 146.404 130.357L179.095 94.5261C179.313 94.2823 179.577 94.0853 179.873 93.9469C180.17 93.8072 180.49 93.7245 180.818 93.7031C181.149 93.6927 181.48 93.7444 181.793 93.8555C182.099 93.9655 182.379 94.1367 182.616 94.3584V94.3584C182.86 94.5848 183.061 94.8532 183.21 95.1509C183.347 95.4428 183.425 95.7587 183.439 96.0806C183.457 96.4128 183.405 96.7451 183.287 97.056C183.179 97.3628 183.008 97.6433 182.784 97.879L150.123 133.74C149.794 134.096 149.401 134.386 148.965 134.594V134.594Z" fill="#3D6AFA"/>
<path d="M148.965 134.593L144.636 136.711C144.547 136.742 144.451 136.742 144.362 136.711C144.272 136.702 144.186 136.665 144.118 136.605C144.047 136.54 143.999 136.455 143.981 136.361C143.958 136.271 143.958 136.177 143.981 136.087L145.657 131.606" fill="#2A197E"/>
<path d="M375.597 285.05C371.405 275.906 368.982 271.135 368.982 271.135C368.982 271.135 353.543 269.139 345.877 273.68C323.275 266.167 295.004 257.51 288.435 255.498C287.566 250.149 286.713 244.952 286.362 243.108C286.119 241.854 285.539 240.69 284.686 239.739C284.25 239.225 283.736 238.783 283.162 238.429C282.491 234.801 280.998 231.083 277.477 229.284C266.275 223.569 257.771 224.514 257.771 224.514C257.771 224.514 255.591 224.514 255.515 226.434C255.439 228.355 257.375 230.564 261.611 231.708C264.886 232.556 268.099 233.625 271.228 234.908C262.633 237.408 251.568 244.433 252.177 247.101C252.331 247.849 252.761 248.513 253.381 248.96C254.004 249.403 254.776 249.584 255.53 249.463C254.858 249.817 254.351 250.421 254.117 251.144C253.884 251.867 253.942 252.653 254.281 253.334C255.256 256.245 258.457 255.651 260.941 255.483C260.79 255.952 260.755 256.451 260.839 256.936C260.923 257.421 261.124 257.879 261.423 258.27C261.723 258.661 262.113 258.974 262.56 259.181C263.006 259.389 263.497 259.484 263.989 259.461C265.513 259.293 268.455 258.79 270.466 258.44C271.062 258.347 271.671 258.41 272.234 258.623C272.799 258.836 273.29 259.206 273.652 259.689L275.267 262.539L276.303 264.734C277.693 267.807 279.896 270.442 282.674 272.354C285.455 274.262 288.697 275.389 292.062 275.616C292.062 275.616 324.86 303.4 350.663 310.319C384.711 319.448 377.913 288.906 375.597 285.05Z" fill="#FA7C73"/>
<path d="M307.853 132.887C305.368 121.41 294.212 117.036 288.04 115.207C268.776 109.706 260.378 123.879 260.378 123.879C265.727 120.542 271.641 118.213 277.829 117.006H277.92C281.349 117.905 288.086 119.841 288.314 130.235C288.314 130.235 288.969 138.206 285.617 142.625C282.568 146.558 283.711 148.005 285.937 150.993C288.162 153.98 285.251 155.732 282.218 158.323C278.773 161.372 279.886 164.831 280.968 167.635C282.05 170.44 275.268 172.756 281.273 177.298C279.566 171.949 284.321 173.076 284.519 168.443C284.519 167.072 281.852 165.502 284.946 162.85C288.04 160.198 292.566 158.735 291.743 153.812C291.995 152.826 292.524 151.932 293.267 151.236C293.439 151.075 293.622 150.928 293.816 150.794V150.794C294.46 150.356 295.186 150.05 295.95 149.895C300.232 148.95 304.652 152.943 304.363 158.323C304.335 159.833 303.798 161.288 302.839 162.454C301.907 163.623 300.616 164.453 299.166 164.816L290.021 166.812C289.236 166.957 288.427 166.894 287.674 166.63C286.533 171.136 286.575 175.861 287.796 180.346C293.176 172.909 302.29 170.958 310.032 163.901C317.774 156.845 317.866 143.327 307.853 132.887Z" fill="#2A197E"/>
<path d="M287.507 94.8613C282.523 91.8131 269.02 90.0909 261.034 100.958C255.898 107.907 259.296 115.924 262.085 122.676C265.819 118.957 270.087 115.939 274.278 114.933C287.431 111.885 299.059 120.389 299.059 120.389C299.059 120.389 303.479 132.902 307.808 132.902C303.235 104.615 292.536 97.8942 287.507 94.8613Z" fill="#3D6AFA"/>
<path d="M164.63 117.143L168.562 126.79C168.562 126.79 176.472 121.776 174.979 117.372C174.095 114.735 172.235 110.696 164.63 110.315C162.722 110.215 160.809 110.379 158.946 110.803C158.29 111.093 157.696 112.495 158.58 114.293C159.464 116.091 164.63 117.143 164.63 117.143Z" fill="#FA7C73"/>
</svg>
