<svg width="64" height="64" viewBox="0 0 64 64" fill="none" xmlns="http://www.w3.org/2000/svg">
<g clip-path="url(#clip0)">
<path d="M38.8889 49.4074C52.6346 49.4074 63.7778 38.7949 63.7778 25.7037C63.7778 12.6125 52.6346 2 38.8889 2C25.1431 2 14 12.6125 14 25.7037C14 38.7949 25.1431 49.4074 38.8889 49.4074Z" fill="#212240"/>
<path d="M6.5 17L3 13.5L6.5 10L10 13.5L6.5 17Z" fill="url(#paint0_linear)"/>
<path d="M25 13L20 8L25 3L30 8L25 13Z" fill="url(#paint1_linear)"/>
<path d="M50.5 59L47 55.5L50.5 52L54 55.5L50.5 59Z" fill="url(#paint2_linear)"/>
<path d="M40.0812 35.7418L39.9525 35.8563C36.2194 39.1773 34.2825 44.1287 34.7209 49.1579C35.1593 54.1871 33.2224 59.1386 29.4892 62.4596L29.3605 62.574L20.7718 52.9193L9.3201 40.0463L0.731346 30.3916L0.860044 30.2771C4.59321 26.9561 9.73654 25.6091 14.6805 26.6302C19.6244 27.6513 24.7677 26.3043 28.5009 22.9833L28.6296 22.8688L40.0812 35.7418Z" fill="url(#paint3_linear)"/>
<path d="M14.3354 58.6452L2.8837 45.7722C6.42377 42.623 11.8968 42.9428 15.046 46.4829C18.2525 50.0873 17.8754 55.496 14.3354 58.6452Z" fill="#F0996E"/>
<path d="M49.4881 14.6901C44.601 12.696 39.0499 13.7141 35.0593 17.2641L9.3133 40.1675L20.765 53.0405L46.5109 30.1371C50.4372 26.6443 52.0376 21.1851 50.7478 16.1062L50.4398 15.1119L49.4881 14.6901Z" fill="url(#paint4_linear)"/>
</g>
<defs>
<linearGradient id="paint0_linear" x1="6.42515" y1="13.3314" x2="13.4689" y2="29.3877" gradientUnits="userSpaceOnUse">
<stop stop-color="#8FCEFF"/>
<stop offset="0.7051" stop-color="#4F8CEA"/>
<stop offset="0.9996" stop-color="#3471E1"/>
</linearGradient>
<linearGradient id="paint1_linear" x1="24.8931" y1="7.7592" x2="34.9555" y2="30.6967" gradientUnits="userSpaceOnUse">
<stop stop-color="#8FCEFF"/>
<stop offset="0.7051" stop-color="#4F8CEA"/>
<stop offset="0.9996" stop-color="#3471E1"/>
</linearGradient>
<linearGradient id="paint2_linear" x1="50.4251" y1="55.3314" x2="57.4689" y2="71.3877" gradientUnits="userSpaceOnUse">
<stop stop-color="#8FCEFF"/>
<stop offset="0.7051" stop-color="#4F8CEA"/>
<stop offset="0.9996" stop-color="#3471E1"/>
</linearGradient>
<linearGradient id="paint3_linear" x1="32.6877" y1="30.8442" x2="-83.2138" y2="133.949" gradientUnits="userSpaceOnUse">
<stop stop-color="#E6E8F5"/>
<stop offset="0.9991" stop-color="#616A8F"/>
</linearGradient>
<linearGradient id="paint4_linear" x1="27.0136" y1="24.4214" x2="38.4653" y2="37.2944" gradientUnits="userSpaceOnUse">
<stop stop-color="white"/>
<stop offset="1" stop-color="#F4F4F4"/>
</linearGradient>
<clipPath id="clip0">
<rect width="64" height="64" fill="white"/>
</clipPath>
</defs>
</svg>
