<svg width="64" height="64" viewBox="0 0 64 64" fill="none" xmlns="http://www.w3.org/2000/svg">
<mask id="mask0" mask-type="alpha" maskUnits="userSpaceOnUse" x="2" y="4" width="52" height="52">
<circle cx="28" cy="30" r="26" fill="#C73620"/>
</mask>
<g mask="url(#mask0)">
<path d="M28.0002 56.7223C38.8561 56.7223 48.2089 50.2088 52.3842 40.9395H36.4344H36.3509C34.4302 40.9395 32.6766 40.021 31.591 38.5178C30.5054 37.0147 28.6683 36.0961 26.8311 36.0961H26.6641H1.94606C4.78529 47.8706 15.3906 56.7223 28.0002 56.7223Z" fill="url(#paint0_linear)"/>
<path d="M32.6767 25.1566C30.756 25.1566 28.9189 26.0752 27.8333 27.5783C26.7477 29.0814 24.9105 30 23.0734 30H22.9898H1.27802C1.27802 32.0877 1.52858 34.0919 1.94612 36.096H26.6641H26.7476C28.6683 36.096 30.422 37.0146 31.5075 38.5177C32.5931 40.0209 35.1006 41.3751 36.9378 41.3751H52.3753C53.8784 38.0348 54.639 33.9248 54.639 30C54.639 28.3299 54.5576 26.7432 54.307 25.1566H32.6767Z" fill="url(#paint1_linear)"/>
<path d="M27.9996 56.7221C36.2667 56.7221 43.6989 52.9643 48.6258 47.0353H29.5862C25.8284 47.0353 22.4881 49.2065 20.9015 52.3798C23.5737 54.1334 18.9808 55.3861 22.1541 56.1376C23.9912 56.4716 25.9954 56.7221 27.9996 56.7221Z" fill="url(#paint2_linear)"/>
<path d="M51.131 20.2298H35.6822H35.5987C33.6781 20.2298 31.9244 19.3112 30.8388 17.808C29.7532 16.3049 27.8326 15.3864 25.9954 15.3864C23.1562 15.3864 20.3912 16.7225 18.721 19.0607C17.0509 21.3153 14.555 22.735 11.7157 22.735H2.44646C1.77841 25.0732 1.44437 27.4949 1.44437 30.0001H23.1562H23.2397C25.1604 30.0001 26.914 29.0815 27.9996 27.5784C29.0852 26.0752 30.9223 25.1567 32.7595 25.1567H32.843H54.3135C53.9795 23.4865 53.5341 21.7329 52.8661 20.2298H51.131Z" fill="url(#paint3_linear)"/>
<path d="M28.0006 3.27777C15.8086 3.27777 5.45377 11.4615 2.28051 22.7349H11.6333C14.4725 22.7349 17.1447 21.3988 18.8149 19.0606C20.485 16.8059 23.1573 15.3863 25.9965 15.3863H25.913H25.9965C27.9172 15.3863 29.6708 16.3048 30.7564 17.808C31.842 19.3111 33.6791 20.2297 35.5163 20.2297H35.5998H52.7187H52.8022C49.0444 10.2924 39.3576 3.27777 28.0006 3.27777Z" fill="url(#paint4_linear)"/>
<path d="M12.6355 8.12119H26.7482H26.8317C29.6709 8.12119 32.3431 9.45729 34.0133 11.7955C35.6834 14.0502 38.3557 15.4698 41.1949 15.4698H41.2784H43.1155C46.2053 15.4698 47.6249 11.6285 45.2032 9.6243C40.5268 5.69948 34.5143 3.27777 28.0008 3.27777C22.3223 3.27777 16.9779 5.03143 12.6355 8.12119Z" fill="url(#paint5_linear)"/>
<path d="M2.94855 20.7307H7.54143C17.0612 20.7307 24.8274 12.9646 24.8274 3.44476C14.723 4.61386 6.37233 11.4614 2.94855 20.7307Z" fill="url(#paint6_linear)"/>
<path d="M20.234 15.1356C21.9042 13.3819 23.1568 11.2108 23.9084 8.87256H20.5681C18.898 10.5427 16.7268 11.4613 14.3886 11.4613H8.7101C7.62451 12.6304 6.62245 13.883 5.70387 15.2191H20.1544L20.234 15.1356Z" fill="url(#paint7_linear)"/>
<path d="M1.61248 33.8413C3.19911 44.8643 11.5498 53.716 22.3222 56.0542V36.263C22.3222 30.5011 17.6458 25.7411 11.8003 25.7411C6.78992 25.8247 2.69807 29.2485 1.61248 33.8413Z" fill="url(#paint8_linear)"/>
<path d="M22.2381 49.3738V36.2632C22.2381 35.0941 22.0711 34.0085 21.7371 33.0064H17.7287C13.1359 33.0064 8.70998 31.1692 5.45321 27.9125C3.53255 29.3321 2.11297 31.4198 1.52842 33.8415C1.77894 35.5116 2.19645 37.0982 2.69749 38.6849H5.28624C5.87078 38.6849 6.45533 38.9354 6.95638 39.3529L11.6327 44.0293C12.0503 44.4469 12.6348 44.6974 13.3029 44.6974H15.6411C16.8937 44.6974 17.9793 45.6994 17.9793 47.0356C17.9793 48.2882 18.9814 49.3738 20.3175 49.3738H22.2381Z" fill="url(#paint9_linear)"/>
<path d="M43.6998 22.6514C36.6017 22.6514 30.8397 28.4133 30.8397 35.5114L40.61 45.2818V53.5489C49.0442 49.0396 54.7227 40.1878 54.7227 30C54.7227 29.5824 54.7227 29.2484 54.7227 28.8309C52.468 25.1566 48.3762 22.6514 43.6998 22.6514Z" fill="url(#paint10_linear)"/>
<path d="M54.7227 31.0021C52.301 28.5804 49.0442 27.2443 45.6204 27.2443H44.7018H40.8605C39.0234 27.2443 37.2698 26.4927 36.0172 25.2401C32.8439 27.5783 30.8397 31.3361 30.8397 35.5115L36.6852 41.3569L40.188 38.1251H45.063L48.313 40.5626H52.3755C53.7951 37.5563 54.5557 34.5929 54.7227 31.0021Z" fill="url(#paint11_linear)"/>
<path d="M45.0359 30.8352C43.5328 29.3321 41.4451 28.4135 39.2739 28.4135H33.0109C31.6748 30.4177 30.8397 32.9229 30.8397 35.5116L36.6852 41.3571L40.276 38.8519L44.1173 37.8498L52.301 40.9396C53.3866 38.5179 54.1381 35.8456 54.4722 33.0899H50.7144C48.6267 33.2569 46.539 32.3383 45.0359 30.8352Z" fill="url(#paint12_linear)"/>
<path d="M40.188 40.1563C41.0231 39.3212 41.813 38.9354 43.1152 38.9354C44.2505 38.9354 45.063 39.3438 45.8755 40.1563C46.688 40.9688 47.3025 41.375 48.313 41.375H51.9693C52.5538 40.2059 53.2196 38.6849 53.6371 37.3488H39.775C38.9399 37.3488 38.1883 37.0147 37.6038 36.4302C37.0192 35.8456 36.2677 35.5116 35.4326 35.5116H30.8397L36.6852 41.3571C38.563 41.3571 39.1716 41.0711 40.188 40.1563Z" fill="url(#paint13_linear)"/>
<path d="M50.2964 15.1357C48.3758 12.213 45.7871 9.70778 42.8643 7.70361L32.927 17.6409C37.0188 21.7328 43.6159 21.7328 47.7077 17.6409L50.2964 15.1357Z" fill="url(#paint14_linear)"/>
<path d="M49.211 13.7161C47.4574 11.3779 45.2862 9.37374 42.8645 7.78711L35.0983 15.5533H35.6829C36.852 15.5533 38.0211 16.0543 38.8561 16.8894C39.6912 17.7245 40.8604 18.2255 42.0294 18.2255C43.7831 18.2255 45.5367 17.4739 46.7893 16.2213L49.211 13.7161Z" fill="url(#paint15_linear)"/>
</g>
<path d="M47.1515 43.8843C47.4697 44.1986 47.7576 44.5429 48 44.9171C48.2424 44.5579 48.5151 44.2136 48.8485 43.8992C51.3939 41.3844 55.5455 41.3844 58.0909 43.8992C60.6364 46.4141 60.6364 50.5156 58.0909 53.0305L48 63L37.9091 53.0305C35.3636 50.5156 35.3636 46.4141 37.9091 43.8992C40.4545 41.3694 44.6061 41.3694 47.1515 43.8843Z" fill="url(#paint16_linear)"/>
<defs>
<linearGradient id="paint0_linear" x1="27.0422" y1="33.4623" x2="28.295" y2="73.3435" gradientUnits="userSpaceOnUse">
<stop stop-color="#B4DBF6"/>
<stop offset="0.9986" stop-color="#94CAEE"/>
</linearGradient>
<linearGradient id="paint1_linear" x1="16.5874" y1="-1.6461" x2="33.7225" y2="46.1435" gradientUnits="userSpaceOnUse">
<stop offset="0.000877599" stop-color="#81B2E0"/>
<stop offset="0.9986" stop-color="#94CAEE"/>
</linearGradient>
<linearGradient id="paint2_linear" x1="34.3339" y1="70.4717" x2="34.9604" y2="38.8382" gradientUnits="userSpaceOnUse">
<stop offset="0.000421262" stop-color="white"/>
<stop offset="0.9991" stop-color="#B4DBF6"/>
</linearGradient>
<linearGradient id="paint3_linear" x1="-2.1911" y1="23.7983" x2="28.0802" y2="22.5457" gradientUnits="userSpaceOnUse">
<stop offset="0.000877599" stop-color="#81B2E0"/>
<stop offset="0.9986" stop-color="#94CAEE"/>
</linearGradient>
<linearGradient id="paint4_linear" x1="24.95" y1="6.72736" x2="34.659" y2="60.5965" gradientUnits="userSpaceOnUse">
<stop stop-color="#B4DBF6"/>
<stop offset="0.9986" stop-color="#94CAEE"/>
</linearGradient>
<linearGradient id="paint5_linear" x1="23.1576" y1="-3.23778" x2="30.465" y2="11.5857" gradientUnits="userSpaceOnUse">
<stop offset="0.000421262" stop-color="white"/>
<stop offset="0.9991" stop-color="#B4DBF6"/>
</linearGradient>
<linearGradient id="paint6_linear" x1="0.0726507" y1="-7.1328" x2="30.5699" y2="35.3119" gradientUnits="userSpaceOnUse">
<stop offset="0.000421262" stop-color="#3E835E"/>
<stop offset="0.9986" stop-color="#73BF9B"/>
</linearGradient>
<linearGradient id="paint7_linear" x1="3.61511" y1="-3.3628" x2="19.4926" y2="18.3312" gradientUnits="userSpaceOnUse">
<stop offset="0.000421262" stop-color="#3E835E"/>
<stop offset="0.9986" stop-color="#73BF9B"/>
</linearGradient>
<linearGradient id="paint8_linear" x1="17.3957" y1="31.085" x2="6.63548" y2="58.0554" gradientUnits="userSpaceOnUse">
<stop offset="0.000421262" stop-color="#3E835E"/>
<stop offset="0.9986" stop-color="#73BF9B"/>
</linearGradient>
<linearGradient id="paint9_linear" x1="21.8877" y1="17.7612" x2="4.28087" y2="59.5772" gradientUnits="userSpaceOnUse">
<stop offset="0.000421262" stop-color="#3E835E"/>
<stop offset="0.9986" stop-color="#73BF9B"/>
</linearGradient>
<linearGradient id="paint10_linear" x1="38.016" y1="13.5773" x2="50.9066" y2="63.8823" gradientUnits="userSpaceOnUse">
<stop offset="0.000421262" stop-color="#3E835E"/>
<stop offset="0.9986" stop-color="#73BF9B"/>
</linearGradient>
<linearGradient id="paint11_linear" x1="50.57" y1="3.89884" x2="42.3252" y2="35.4807" gradientUnits="userSpaceOnUse">
<stop stop-color="#FFD983"/>
<stop offset="0.9995" stop-color="#52B287"/>
</linearGradient>
<linearGradient id="paint12_linear" x1="46.3446" y1="19.5251" x2="36.5626" y2="58.4435" gradientUnits="userSpaceOnUse">
<stop stop-color="#FFD983"/>
<stop offset="0.9995" stop-color="#52B287"/>
</linearGradient>
<linearGradient id="paint13_linear" x1="46.0882" y1="24.4667" x2="39.7998" y2="44.3101" gradientUnits="userSpaceOnUse">
<stop stop-color="#FFD983"/>
<stop offset="0.9995" stop-color="#52B287"/>
</linearGradient>
<linearGradient id="paint14_linear" x1="45.8556" y1="6.27164" x2="37.2095" y2="26.8652" gradientUnits="userSpaceOnUse">
<stop stop-color="#FFD983"/>
<stop offset="0.9995" stop-color="#52B287"/>
</linearGradient>
<linearGradient id="paint15_linear" x1="38.958" y1="0.242925" x2="43.7765" y2="21.926" gradientUnits="userSpaceOnUse">
<stop offset="0.000421262" stop-color="#3E835E"/>
<stop offset="0.9986" stop-color="#73BF9B"/>
</linearGradient>
<linearGradient id="paint16_linear" x1="53.6687" y1="40.6566" x2="41.2248" y2="58.1804" gradientUnits="userSpaceOnUse">
<stop offset="0.000421262" stop-color="#FFADCE"/>
<stop offset="0.9991" stop-color="#FF84B6"/>
</linearGradient>
</defs>
</svg>
