<svg width="64" height="64" viewBox="0 0 64 64" fill="none" xmlns="http://www.w3.org/2000/svg">
<path d="M32 57C45.8071 57 57 45.8071 57 32C57 18.1929 45.8071 7 32 7C18.1929 7 7 18.1929 7 32C7 45.8071 18.1929 57 32 57Z" fill="url(#paint0_linear)"/>
<path d="M20.1226 32C21.7629 36.9905 26.4607 40.5938 32.0001 40.5938C37.5395 40.5938 42.2373 36.9905 43.8776 32" stroke="#212240" stroke-width="3.5"/>
<path d="M46.0625 25.3594C46.0625 22.9863 44.1387 21.0625 41.7656 21.0625C39.7988 21.0625 38.1406 22.384 37.6305 24.1875" stroke="#212240" stroke-width="3.5"/>
<path d="M17.9375 25.3594C17.9375 22.9863 19.8613 21.0625 22.2344 21.0625C24.1148 21.0625 25.7132 22.2705 26.2957 23.9527C26.3225 24.03 26.3471 24.1083 26.3695 24.1875" stroke="#212240" stroke-width="3.5"/>
<path d="M53.6086 3.00001L49.2246 7.38403L53.6086 11.7681L57.9926 7.38403L53.6086 3.00001Z" fill="#6D55F6"/>
<path d="M58.384 23.8064L54 28.1904L58.384 32.5744L62.768 28.1904L58.384 23.8064Z" fill="#69D1A1"/>
<path d="M6.38402 36.8206L2 41.2046L6.38402 45.5886L10.768 41.2046L6.38402 36.8206Z" fill="#8FCEFF"/>
<path d="M13.384 53.616L9 58L13.384 62.384L17.768 58L13.384 53.616Z" fill="#FFAD83"/>
<defs>
<linearGradient id="paint0_linear" x1="28.4844" y1="19.1094" x2="60.125" y2="151.922" gradientUnits="userSpaceOnUse">
<stop stop-color="#FFD748"/>
<stop offset="0.9991" stop-color="#FF8438"/>
</linearGradient>
</defs>
</svg>
