<svg xmlns="http://www.w3.org/2000/svg" viewBox="0 0 24 24" style="fill:currentColor" aria-hidden="true" focusable="false"><path d="M18.262 4.52a9.81 9.81 0 0 0-2.989-1.711l-.406 1.148c.953.34 1.84.848 2.613 1.5zm2.933 4.214a9.739 9.739 0 0 0-1.707-2.992l-.937.785a8.482 8.482 0 0 1 1.5 2.618zm0 0" style="stroke:none;fill-rule:nonzero;fill:#currentColor;fill-opacity:1"/><path d="m21.629 10.414-1.203.195a8.56 8.56 0 0 1-2.387 7.422 8.544 8.544 0 0 1-6.031 2.5 8.528 8.528 0 0 1-6.028-2.5A8.547 8.547 0 0 1 3.477 12 8.531 8.531 0 0 1 5.98 5.973a8.531 8.531 0 0 1 7.418-2.391l.2-1.203a9.751 9.751 0 0 0-8.484 2.727A9.759 9.759 0 0 0 2.25 12 9.762 9.762 0 0 0 12 21.75 9.762 9.762 0 0 0 21.75 12a9.79 9.79 0 0 0-.121-1.586zm0 0" style="stroke:none;fill-rule:nonzero;fill:#currentColor;fill-opacity:1"/><path d="M11.246 6.375v6.387h4.906v-1.524H12.77V6.375zm0 0" style="stroke:none;fill-rule:nonzero;fill:#currentColor;fill-opacity:1"/></svg>