<svg width="309" height="140" viewBox="0 0 309 140" fill="none" xmlns="http://www.w3.org/2000/svg">
<path d="M50.408 46C50.1733 45.232 49.9067 44.4427 49.608 43.632C49.3307 42.8213 49.0533 42.0107 48.776 41.2H40.136C39.8587 42.0107 39.5707 42.8213 39.272 43.632C38.9947 44.4427 38.7387 45.232 38.504 46H33.32C34.152 43.6107 34.9413 41.4027 35.688 39.376C36.4347 37.3493 37.16 35.44 37.864 33.648C38.5893 31.856 39.2933 30.16 39.976 28.56C40.68 26.9387 41.4053 25.36 42.152 23.824H46.92C47.6453 25.36 48.36 26.9387 49.064 28.56C49.768 30.16 50.472 31.856 51.176 33.648C51.9013 35.44 52.6373 37.3493 53.384 39.376C54.1307 41.4027 54.92 43.6107 55.752 46H50.408ZM44.424 28.848C44.3173 29.168 44.1573 29.6053 43.944 30.16C43.7307 30.7147 43.4853 31.3547 43.208 32.08C42.9307 32.8053 42.6213 33.6053 42.28 34.48C41.96 35.3547 41.6293 36.272 41.288 37.232H47.592C47.2507 36.272 46.92 35.3547 46.6 34.48C46.28 33.6053 45.9707 32.8053 45.672 32.08C45.3947 31.3547 45.1493 30.7147 44.936 30.16C44.7227 29.6053 44.552 29.168 44.424 28.848ZM59.8335 46C58.7455 43.8667 57.6362 41.3707 56.5055 38.512C55.3962 35.6533 54.3402 32.5387 53.3375 29.168H58.3935C58.6068 30 58.8522 30.9067 59.1295 31.888C59.4282 32.848 59.7268 33.8293 60.0255 34.832C60.3455 35.8133 60.6548 36.7733 60.9535 37.712C61.2735 38.6507 61.5828 39.504 61.8815 40.272C62.1588 39.504 62.4575 38.6507 62.7775 37.712C63.0975 36.7733 63.4068 35.8133 63.7055 34.832C64.0255 33.8293 64.3242 32.848 64.6015 31.888C64.9002 30.9067 65.1562 30 65.3695 29.168H70.2975C69.2948 32.5387 68.2282 35.6533 67.0975 38.512C65.9882 41.3707 64.8895 43.8667 63.8015 46H59.8335ZM75.6993 46H70.9312V29.168H75.6993V46ZM76.1473 24.304C76.1473 25.1787 75.8593 25.872 75.2833 26.384C74.7286 26.8747 74.0673 27.12 73.2993 27.12C72.5312 27.12 71.8592 26.8747 71.2832 26.384C70.7286 25.872 70.4512 25.1787 70.4512 24.304C70.4512 23.4293 70.7286 22.7467 71.2832 22.256C71.8592 21.744 72.5312 21.488 73.2993 21.488C74.0673 21.488 74.7286 21.744 75.2833 22.256C75.8593 22.7467 76.1473 23.4293 76.1473 24.304ZM77.4613 37.584C77.4613 36.368 77.6533 35.2267 78.0373 34.16C78.4426 33.072 79.0186 32.1333 79.7653 31.344C80.5119 30.5333 81.4186 29.8933 82.4853 29.424C83.5519 28.9547 84.7679 28.72 86.1333 28.72C87.0293 28.72 87.8506 28.8053 88.5973 28.976C89.3439 29.1253 90.0693 29.3493 90.7733 29.648L89.7813 33.456C89.3333 33.2853 88.8426 33.136 88.3093 33.008C87.7759 32.88 87.1786 32.816 86.5173 32.816C85.1093 32.816 84.0533 33.2533 83.3493 34.128C82.6666 35.0027 82.3253 36.1547 82.3253 37.584C82.3253 39.0987 82.6453 40.272 83.2853 41.104C83.9466 41.936 85.0879 42.352 86.7093 42.352C87.2853 42.352 87.9039 42.2987 88.5653 42.192C89.2266 42.0853 89.8346 41.9147 90.3893 41.68L91.0613 45.584C90.5066 45.8187 89.8133 46.0213 88.9813 46.192C88.1493 46.3627 87.2319 46.448 86.2293 46.448C84.6933 46.448 83.3706 46.224 82.2613 45.776C81.1519 45.3067 80.2346 44.6773 79.5093 43.888C78.8053 43.0987 78.2826 42.1707 77.9413 41.104C77.6213 40.016 77.4613 38.8427 77.4613 37.584ZM97.1093 35.248C97.5786 34.736 98.0586 34.2027 98.5492 33.648C99.0613 33.0933 99.5519 32.5493 100.021 32.016C100.491 31.4613 100.928 30.9387 101.333 30.448C101.76 29.9573 102.123 29.5307 102.421 29.168H108.085C106.955 30.4693 105.845 31.7173 104.757 32.912C103.691 34.0853 102.517 35.3013 101.237 36.56C101.877 37.136 102.539 37.8293 103.221 38.64C103.904 39.4293 104.565 40.2507 105.205 41.104C105.845 41.9573 106.432 42.8107 106.965 43.664C107.499 44.5173 107.947 45.296 108.309 46H102.837C102.496 45.4453 102.101 44.8373 101.653 44.176C101.227 43.4933 100.768 42.8213 100.277 42.16C99.7866 41.4773 99.2639 40.8267 98.7093 40.208C98.1759 39.5893 97.6426 39.0667 97.1093 38.64V46H92.3412V21.936L97.1093 21.168V35.248ZM114 43.472C114 44.432 113.69 45.168 113.072 45.68C112.474 46.1707 111.792 46.416 111.024 46.416C110.256 46.416 109.562 46.1707 108.944 45.68C108.346 45.168 108.048 44.432 108.048 43.472C108.048 42.512 108.346 41.7867 108.944 41.296C109.562 40.784 110.256 40.528 111.024 40.528C111.792 40.528 112.474 40.784 113.072 41.296C113.69 41.7867 114 42.512 114 43.472Z" fill="#000F5F"/>
<path d="M147 35.5C147 44.6984 139.195 53.3197 125.893 59.7007C112.664 66.047 94.3185 70 74 70C53.6815 70 35.3356 66.047 22.1066 59.7007C8.80546 53.3197 1 44.6984 1 35.5C1 26.3016 8.80546 17.6803 22.1066 11.2993C35.3356 4.95301 53.6815 1 74 1C94.3185 1 112.664 4.95301 125.893 11.2993C139.195 17.6803 147 26.3016 147 35.5Z" stroke="#000F5F" stroke-opacity="0.81" stroke-width="2"/>
</svg>
