<svg xmlns="http://www.w3.org/2000/svg" viewBox="0 0 24 24" style="fill:currentColor" aria-hidden="true" focusable="false"><path d="M2.25 4.777v11.668h19.5V4.777zM20.555 12.7a3.173 3.173 0 0 0-2.528 2.528H5.973A3.173 3.173 0 0 0 3.445 12.7V8.5a3.164 3.164 0 0 0 2.528-2.527h12.054A3.164 3.164 0 0 0 20.555 8.5zm1.148 5.327H2.273v1.196h19.43zm0 0" style="stroke:none;fill-rule:nonzero;fill:#currentColor;fill-opacity:1"/><path d="M12 13.578a2.98 2.98 0 1 0 0-5.957 2.98 2.98 0 1 0 0 5.957zm0 0" style="stroke:none;fill-rule:nonzero;fill:#currentColor;fill-opacity:1"/></svg>