<svg xmlns="http://www.w3.org/2000/svg" viewBox="0 0 64 64" fill="none"><circle cx="29" cy="35" r="29" fill="#F0F5FF"/><mask id="mask0" mask-type="alpha" maskUnits="userSpaceOnUse" x="0" y="0" width="64" height="64"><path fill-rule="evenodd" clip-rule="evenodd" d="M0 0H30H64V15V64H30V63.9831C29.6681 63.9943 29.3347 64 29 64C12.9837 64 0 51.0163 0 35C0 27.2462 3.04301 20.2032 7.99993 15H0V0Z" fill="#C4C4C4"/></mask><g mask="url(#mask0)"><path opacity="0.75" d="M20 59.8667C44.3005 59.8667 64 58.5534 64 56.9333C64 55.3133 44.3005 54 20 54C-4.30053 54 -24 55.3133 -24 56.9333C-24 58.5534 -4.30053 59.8667 20 59.8667Z" fill="url(#paint0_radial)"/><path opacity="0.75" d="M20 58.7667C44.3005 58.7667 64 57.8638 64 56.7501C64 55.6363 44.3005 54.7334 20 54.7334C-4.30053 54.7334 -24 55.6363 -24 56.7501C-24 57.8638 -4.30053 58.7667 20 58.7667Z" fill="url(#paint1_radial)"/><path opacity="0.8" d="M46.95 58.1067C53.9364 58.1067 59.6 57.6143 59.6 57.0067C59.6 56.3992 53.9364 55.9067 46.95 55.9067C39.9636 55.9067 34.3 56.3992 34.3 57.0067C34.3 57.6143 39.9636 58.1067 46.95 58.1067Z" fill="url(#paint2_radial)"/><path opacity="0.8" d="M-10.25 58.3999C-2.65608 58.3999 3.5 57.7432 3.5 56.9332C3.5 56.1232 -2.65608 55.4666 -10.25 55.4666C-17.8439 55.4666 -24 56.1232 -24 56.9332C-24 57.7432 -17.8439 58.3999 -10.25 58.3999Z" fill="url(#paint3_radial)"/><path opacity="0.8" d="M18.3499 58.1067C27.0576 58.1067 34.1166 57.6143 34.1166 57.0067C34.1166 56.3992 27.0576 55.9067 18.3499 55.9067C9.64223 55.9067 2.58325 56.3992 2.58325 57.0067C2.58325 57.6143 9.64223 58.1067 18.3499 58.1067Z" fill="url(#paint4_radial)"/><path opacity="0.64" d="M42.9899 57.7401C49.7738 57.7401 55.2732 57.4118 55.2732 57.0068C55.2732 56.6018 49.7738 56.2734 42.9899 56.2734C36.206 56.2734 30.7065 56.6018 30.7065 57.0068C30.7065 57.4118 36.206 57.7401 42.9899 57.7401Z" fill="url(#paint5_radial)"/><path opacity="0.64" d="M-9.26012 57.7401C-2.47623 57.7401 3.02321 57.4118 3.02321 57.0068C3.02321 56.6018 -2.47623 56.2734 -9.26012 56.2734C-16.044 56.2734 -21.5435 56.6018 -21.5435 57.0068C-21.5435 57.4118 -16.044 57.7401 -9.26012 57.7401Z" fill="url(#paint6_radial)"/><mask id="mask1" mask-type="alpha" maskUnits="userSpaceOnUse" x="-24" y="32" width="88" height="22"><path fill-rule="evenodd" clip-rule="evenodd" d="M-24 32.3667H24.0333H58.1333L64 38.6V51.0667C64 52.6867 62.6867 54 61.0667 54H28.8H24.0333H-17.4C-18.2557 54 -20.3189 52.5372 -21.9126 51.2984C-23.2621 50.2495 -24 48.6169 -24 46.9077V32.3667Z" fill="url(#paint7_linear)"/></mask><g mask="url(#mask1)"><path d="M64.0001 54V38.6L58.1334 32.3667C58.1334 32.3667 26.0002 32.3667 24.0334 32.3667V54H64.0001Z" fill="url(#paint8_linear)"/><path d="M24.0333 32.3667H-24V46.9077C-24 48.6169 -23.2621 50.2495 -21.9126 51.2984C-20.3189 52.5372 -18.2557 54 -17.4 54H25.8667C27.4867 54 28.8 52.6867 28.8 51.0667V38.6L24.0333 32.3667Z" fill="url(#paint9_linear)"/><path opacity="0.4" fill-rule="evenodd" clip-rule="evenodd" d="M55.75 49.6C57.2166 51.0666 59.6 51.0666 61.4333 51.0666H64V54H-24V51.0666H32.54C34.08 51.0666 36.6833 51.0666 38.5166 49.6C40.0394 48.3818 41.3033 48.1333 42.22 48.1333H51.6433C53.5133 48.1333 54.5957 48.4457 55.75 49.6Z" fill="url(#paint10_linear)"/><path d="M24.0333 32.3667H-24C-20.9561 34.8208 -17.1326 36.4 -13.1977 36.4H15.7568C20.0257 36.4 21.4667 40.0667 27.7 40.0667C27.9503 40.0667 28.8 40.0667 28.8 40.0667V38.6168L24.0333 32.3667Z" fill="url(#paint11_linear)"/></g><path d="M43.5094 15.8667H12.855L24.0333 32.3667H58.1333L55.9859 27.5292C52.802 20.4417 49.9143 15.8667 43.5094 15.8667Z" fill="url(#paint12_linear)"/><path d="M23.3662 30.2292L21.1795 23.0667C19.8452 18.7167 16.5096 15.8667 12.8033 15.8667H-16.8469C-18.8853 15.8667 -21.2573 17.7792 -21.7392 20.4417L-24 32.3667H24.0333L23.3662 30.2292Z" fill="url(#paint13_linear)"/><path d="M24.0333 32.3668L10.8019 23.8869C8.17047 22.1909 4.72364 22.6055 2.53694 24.8291C0.387296 27.0151 -2.94836 27.4296 -5.57982 25.8844L-18.7 18.0075C-19.1623 17.7544 -19.6246 17.5359 -20.1197 17.3855C-20.9108 18.1766 -21.5202 19.2317 -21.7392 20.4418L-24 32.3668H24.0333Z" fill="url(#paint14_linear)"/><path d="M52.3119 20.7017C46.106 25.9234 42.0943 25.9806 38.2355 26.0356C34.147 26.0938 30.2067 26.1732 24.0334 32.3666H58.1335L55.9861 27.5291C54.7873 24.8604 53.6304 22.5478 52.3119 20.7017Z" fill="url(#paint15_linear)"/><path d="M35.7666 38.6001H57.0333L54.0999 40.0668H38.6999L35.7666 38.6001Z" fill="url(#paint16_linear)"/><path d="M64.0001 38.6001H54.1001V40.0668H64.0001V38.6001Z" fill="white"/><path d="M38.7001 40.0668H28.8001C28.8001 40.0668 28.8 39.4068 28.8 38.6001H38.7001V40.0668Z" fill="white"/><path d="M28.8 40.0668H27.3334C26.5234 40.0668 25.8667 39.4101 25.8667 38.6001V38.6001H28.8V40.0668Z" fill="url(#paint17_radial)"/><rect x="25.8667" y="38.6001" width="2.93333" height="1.46667" fill="url(#paint18_linear)"/><path opacity="0.24" d="M34.6667 40.0667L31.0367 51.0667H28.8V40.0667H34.6667Z" fill="url(#paint19_linear)"/><path opacity="0.24" d="M58.1333 40.0667L62.0933 51.0667H64V40.0667H58.1333Z" fill="url(#paint20_linear)"/><path opacity="0.64" d="M21.8333 51.0665C21.8333 50.3332 21.8333 48.655 21.8333 47.9628C21.8333 42.7895 19.3758 38.5999 16.2942 38.5999C13.2127 38.5999 10.8333 42.7895 10.8333 47.9628C10.8333 48.655 10.8333 50.3332 10.8333 51.0665" fill="url(#paint21_linear)"/><path d="M20.9434 54C20.4286 54 19.8529 53.564 20 53.0833C20.4412 51.7889 20.7333 50.3333 20.7333 48.6833C20.7333 43.9127 19.0833 39.7 16.2734 39.7C13.4 39.7 11.5667 43.9497 11.5667 48.6833C11.5667 53.4539 13.7036 56.9333 16.2104 56.9333H20.7333C22.2042 56.9333 23.5175 55.96 24.4 54H20.9434Z" fill="#212240"/><path d="M42 54C42.9167 56.0167 43.7744 56.9333 45.3 56.9333H50.3536C51.9 56.9333 53.2248 56.0072 54.1 54H42Z" fill="#212240"/><path d="M13.3999 48.3166C13.3999 51.4406 14.6408 54 16.1499 54C17.659 54 18.8999 51.4406 18.8999 48.3166C18.8999 45.1927 17.659 42.6333 16.1499 42.6333C14.6408 42.6333 13.3999 45.1927 13.3999 48.3166Z" fill="url(#paint22_linear)"/><path d="M14.4205 48.3543C14.4205 45.5691 15.4071 43.2355 16.6999 42.7462C16.5298 42.6709 16.3597 42.6333 16.1896 42.6333C14.6832 42.6333 13.3999 45.1927 13.3999 48.3166C13.3999 51.4406 14.6587 54 16.1896 54C16.3597 54 16.5298 53.9623 16.6999 53.8871C15.4071 53.473 14.4205 51.1395 14.4205 48.3543Z" fill="url(#paint23_linear)"/></g><defs><radialGradient id="paint0_radial" cx="0" cy="0" r="1" gradientUnits="userSpaceOnUse" gradientTransform="translate(19.9957 56.9402) rotate(90) scale(2.93333 44)"><stop stop-color="#212240" stop-opacity="0.23"/><stop offset="1" stop-color="#23266A" stop-opacity="0"/></radialGradient><radialGradient id="paint1_radial" cx="0" cy="0" r="1" gradientUnits="userSpaceOnUse" gradientTransform="translate(19.9957 56.7563) rotate(90) scale(2.01667 44)"><stop stop-color="#212240" stop-opacity="0.51"/><stop offset="1" stop-color="#23266A" stop-opacity="0"/></radialGradient><radialGradient id="paint2_radial" cx="0" cy="0" r="1" gradientUnits="userSpaceOnUse" gradientTransform="translate(46.9516 57.0138) rotate(90) scale(1.1 12.65)"><stop stop-color="#212240"/><stop offset="1" stop-color="#23266A" stop-opacity="0"/></radialGradient><radialGradient id="paint3_radial" cx="0" cy="0" r="1" gradientUnits="userSpaceOnUse" gradientTransform="translate(-10.2514 56.9409) rotate(90) scale(1.46667 13.7497)"><stop stop-color="#212240"/><stop offset="1" stop-color="#23266A" stop-opacity="0"/></radialGradient><radialGradient id="paint4_radial" cx="0" cy="0" r="1" gradientUnits="userSpaceOnUse" gradientTransform="translate(18.3483 57.0125) rotate(90) scale(1.1 15.7663)"><stop stop-color="#212240"/><stop offset="1" stop-color="#23266A" stop-opacity="0"/></radialGradient><radialGradient id="paint5_radial" cx="0" cy="0" r="1" gradientUnits="userSpaceOnUse" gradientTransform="translate(42.9867 57.0136) rotate(90) scale(0.733334 12.2664)"><stop stop-color="#212240"/><stop offset="1" stop-color="#23266A" stop-opacity="0"/></radialGradient><radialGradient id="paint6_radial" cx="0" cy="0" r="1" gradientUnits="userSpaceOnUse" gradientTransform="translate(-9.26478 57.0136) rotate(90) scale(0.733334 12.2664)"><stop stop-color="#212240"/><stop offset="1" stop-color="#23266A" stop-opacity="0"/></radialGradient><linearGradient id="paint7_linear" x1="-24.2446" y1="53.4988" x2="58.7638" y2="11.6743" gradientUnits="userSpaceOnUse"><stop stop-color="#2F315C"/><stop offset="1" stop-color="#45496B"/></linearGradient><linearGradient id="paint8_linear" x1="58.6423" y1="24.6405" x2="41.5702" y2="35.8635" gradientUnits="userSpaceOnUse"><stop offset="0.00173748" stop-color="#6771A3"/><stop offset="0.9998" stop-color="#8D98C9"/></linearGradient><linearGradient id="paint9_linear" x1="-20.5167" y1="54" x2="13.9392" y2="21.4906" gradientUnits="userSpaceOnUse"><stop offset="0.148185" stop-color="#525481"/><stop offset="0.555592" stop-color="#393C63"/><stop offset="1" stop-color="#313356"/></linearGradient><linearGradient id="paint10_linear" x1="20" y1="54" x2="20" y2="40.2063" gradientUnits="userSpaceOnUse"><stop stop-color="#212240"/><stop offset="1" stop-color="#212240" stop-opacity="0"/></linearGradient><linearGradient id="paint11_linear" x1="-85.1065" y1="24.7797" x2="26.321" y2="34.1235" gradientUnits="userSpaceOnUse"><stop stop-color="#B1B4D8" stop-opacity="0.42"/><stop offset="0.5461" stop-color="#B5B8DC"/><stop offset="1" stop-color="#A6ABE4" stop-opacity="0"/></linearGradient><linearGradient id="paint12_linear" x1="41.0043" y1="-5.10232" x2="31.9922" y2="39.3845" gradientUnits="userSpaceOnUse"><stop stop-color="white"/><stop offset="0.999" stop-color="#8FCEFF"/></linearGradient><linearGradient id="paint13_linear" x1="5.89011" y1="2.30749" x2="-5.86137" y2="60.5671" gradientUnits="userSpaceOnUse"><stop stop-color="#B2DEFF"/><stop offset="0.3298" stop-color="#93C8FF"/><stop offset="0.7656" stop-color="#6FAFFF"/><stop offset="0.9985" stop-color="#61A5FF"/></linearGradient><linearGradient id="paint14_linear" x1="13.7421" y1="-1.49354" x2="-12.9143" y2="55.0847" gradientUnits="userSpaceOnUse"><stop stop-color="#B2DEFF"/><stop offset="0.3298" stop-color="#93C8FF"/><stop offset="0.7656" stop-color="#6FAFFF"/><stop offset="0.9985" stop-color="#61A5FF"/></linearGradient><linearGradient id="paint15_linear" x1="34.4251" y1="-5.16543" x2="41.6841" y2="36.1787" gradientUnits="userSpaceOnUse"><stop stop-color="white"/><stop offset="0.999" stop-color="#8FCEFF"/></linearGradient><linearGradient id="paint16_linear" x1="46.394" y1="40.4334" x2="46.3988" y2="32.5501" gradientUnits="userSpaceOnUse"><stop stop-color="#2F315C" stop-opacity="0"/><stop offset="0.9995" stop-color="#2F315C"/></linearGradient><radialGradient id="paint17_radial" cx="0" cy="0" r="1" gradientUnits="userSpaceOnUse" gradientTransform="translate(28.9834 38.6001) rotate(164.055) scale(2.66937 5.33875)"><stop stop-color="white" stop-opacity="0.96"/><stop offset="1" stop-color="white" stop-opacity="0.64"/></radialGradient><linearGradient id="paint18_linear" x1="28.9834" y1="40.2501" x2="27.8334" y2="38.6932" gradientUnits="userSpaceOnUse"><stop stop-color="#212240" stop-opacity="0.08"/><stop offset="1" stop-color="#212240" stop-opacity="0"/></linearGradient><linearGradient id="paint19_linear" x1="25.3167" y1="40.9833" x2="31.3192" y2="45.3813" gradientUnits="userSpaceOnUse"><stop stop-color="white"/><stop offset="1" stop-color="white" stop-opacity="0"/></linearGradient><linearGradient id="paint20_linear" x1="67.6666" y1="41.3693" x2="61.346" y2="45.7296" gradientUnits="userSpaceOnUse"><stop stop-color="white"/><stop offset="1" stop-color="white" stop-opacity="0"/></linearGradient><linearGradient id="paint21_linear" x1="16.3371" y1="36.4096" x2="16.3371" y2="57.2407" gradientUnits="userSpaceOnUse"><stop offset="0.000404094" stop-color="#212240"/><stop offset="0.2945" stop-color="#212240" stop-opacity="0"/></linearGradient><linearGradient id="paint22_linear" x1="15.9882" y1="50.2424" x2="17.147" y2="39.5412" gradientUnits="userSpaceOnUse"><stop offset="0.000421262" stop-color="#E6E8F5"/><stop offset="1" stop-color="#7EB5F0"/></linearGradient><linearGradient id="paint23_linear" x1="15.7989" y1="57.4257" x2="14.967" y2="46.7107" gradientUnits="userSpaceOnUse"><stop offset="0.000421262" stop-color="#E6E8F5"/><stop offset="1" stop-color="#7EB5F0"/></linearGradient></defs></svg>