<svg xmlns="http://www.w3.org/2000/svg" viewBox="0 0 64 64" fill="none"><circle cx="29" cy="35" r="29" fill="#F0F5FF"/><mask id="mask0" mask-type="alpha" maskUnits="userSpaceOnUse" x="0" y="0" width="64" height="64"><path fill-rule="evenodd" clip-rule="evenodd" d="M0 0H30H64V15V64H30V63.9831C29.6681 63.9943 29.3347 64 29 64C12.9837 64 0 51.0163 0 35C0 27.2462 3.04301 20.2032 7.99993 15H0V0Z" fill="#C4C4C4"/></mask><g mask="url(#mask0)"><path opacity="0.75" d="M20 59.8667C44.3005 59.8667 64 58.5534 64 56.9333C64 55.3133 44.3005 54 20 54C-4.30053 54 -24 55.3133 -24 56.9333C-24 58.5534 -4.30053 59.8667 20 59.8667Z" fill="url(#paint0_radial)"/><path opacity="0.75" d="M20 58.7667C44.3005 58.7667 64 57.8638 64 56.7501C64 55.6363 44.3005 54.7334 20 54.7334C-4.30053 54.7334 -24 55.6363 -24 56.7501C-24 57.8638 -4.30053 58.7667 20 58.7667Z" fill="url(#paint1_radial)"/><path opacity="0.8" d="M46.95 58.1067C53.9364 58.1067 59.6 57.6143 59.6 57.0067C59.6 56.3992 53.9364 55.9067 46.95 55.9067C39.9636 55.9067 34.3 56.3992 34.3 57.0067C34.3 57.6143 39.9636 58.1067 46.95 58.1067Z" fill="url(#paint2_radial)"/><path opacity="0.8" d="M-10.25 58.3999C-2.65608 58.3999 3.5 57.7432 3.5 56.9332C3.5 56.1232 -2.65608 55.4666 -10.25 55.4666C-17.8439 55.4666 -24 56.1232 -24 56.9332C-24 57.7432 -17.8439 58.3999 -10.25 58.3999Z" fill="url(#paint3_radial)"/><path opacity="0.8" d="M18.3499 58.1067C27.0576 58.1067 34.1166 57.6143 34.1166 57.0067C34.1166 56.3992 27.0576 55.9067 18.3499 55.9067C9.64223 55.9067 2.58325 56.3992 2.58325 57.0067C2.58325 57.6143 9.64223 58.1067 18.3499 58.1067Z" fill="url(#paint4_radial)"/><path opacity="0.64" d="M42.9899 57.7401C49.7738 57.7401 55.2732 57.4118 55.2732 57.0068C55.2732 56.6018 49.7738 56.2734 42.9899 56.2734C36.206 56.2734 30.7065 56.6018 30.7065 57.0068C30.7065 57.4118 36.206 57.7401 42.9899 57.7401Z" fill="url(#paint5_radial)"/><path opacity="0.64" d="M-9.26012 57.7401C-2.47623 57.7401 3.02321 57.4118 3.02321 57.0068C3.02321 56.6018 -2.47623 56.2734 -9.26012 56.2734C-16.044 56.2734 -21.5435 56.6018 -21.5435 57.0068C-21.5435 57.4118 -16.044 57.7401 -9.26012 57.7401Z" fill="url(#paint6_radial)"/><path d="M47.1333 33.4666C38.2062 22.8191 29.6799 20.2666 24.3601 20.2666H0.0166016L13.3999 33.4666H47.1333Z" fill="url(#paint7_linear)"/><path d="M36.8688 24.2676C40.1103 26.2897 43.5903 29.2405 47.1335 33.4665H13.4001C17.7595 27.2 25.5929 26.064 31.7887 25.1656C33.6841 24.8907 35.4263 24.6381 36.8688 24.2676Z" fill="url(#paint8_linear)"/><path d="M0.347431 20.2681C-9.51657 20.2681 -17.3999 31.9999 -17.3999 31.9999L13.4001 33.4666C11.8101 29.2255 6.52292 20.2681 0.347431 20.2681Z" fill="url(#paint9_linear)"/><path opacity="0.8" d="M4.77141 33.0556C2.78511 29.0823 -1.0462 27.2152 -4.47249 25.5455C-5.98948 24.8062 -7.42707 24.1056 -8.58999 23.2781C-13.6841 26.6285 -17.143 31.6232 -17.3862 31.9796C-17.2756 31.9919 -17.1649 32.0041 -17.0543 32.0163L4.77141 33.0556Z" fill="url(#paint10_linear)"/><mask id="mask1" mask-type="alpha" maskUnits="userSpaceOnUse" x="-24" y="32" width="88" height="22"><path fill-rule="evenodd" clip-rule="evenodd" d="M13.3999 33.4667L-17.4001 32L-21.9834 33.4667C-21.9834 33.4667 -22.8639 38.6886 -23.7059 44.9638C-23.9002 46.412 -23.5402 47.883 -22.647 49.0394C-21.095 51.0486 -18.6094 54 -17.4001 54L13.3999 54L25.8677 54L61.0666 54C62.6866 54 63.9999 52.6867 63.9999 51.0667V38.6L47.1333 33.4667L13.3999 33.4667Z" fill="url(#paint11_linear)"/></mask><g mask="url(#mask1)"><path d="M63.9999 53.9999V38.5999L47.1332 33.4666H13.3999V53.9999H63.9999Z" fill="url(#paint12_linear)"/><path d="M28.8 51.0667C28.8 52.6867 27.4873 54 25.8672 54C15.9256 54 -15.9651 54 -17.4904 54C-19.2986 54 -24 47.2167 -24 47.2167C-23.0959 39.9903 -22.011 33.4667 -22.011 33.4667L-17.4904 32L13.4 33.4667L28.8 38.6V51.0667Z" fill="url(#paint13_linear)"/><path opacity="0.4" fill-rule="evenodd" clip-rule="evenodd" d="M55.75 49.6C57.2167 51.0666 59.6 51.0666 61.4333 51.0666H32.54C34.08 51.0666 36.6833 51.0666 38.5167 49.6C40.0394 48.3818 41.3033 48.1333 42.22 48.1333H51.6433C53.5133 48.1333 54.5958 48.4457 55.75 49.6ZM64 51.0666H-24V54H64V51.0666Z" fill="url(#paint14_linear)"/><path d="M28.7999 38.6L13.3999 33.4667L-17.4001 32L-21.9834 33.4667C-19.2334 34.9333 -13.1102 37.1333 -2.7334 37.1333H14.1333C20.7333 37.1333 20.7333 40.0667 27.5094 40.0667C28.9813 40.0667 28.7999 40.0667 28.7999 40.0667C28.7999 38.6 28.7999 40.0667 28.7999 38.6Z" fill="url(#paint15_linear)"/></g><path d="M35.7666 38.6001H57.0333L54.0999 40.0668H38.6999L35.7666 38.6001Z" fill="url(#paint16_linear)"/><path d="M64.0001 38.6001H54.1001V40.0668H64.0001V38.6001Z" fill="white"/><path d="M38.7001 40.0668H28.8001C28.8001 40.0668 28.8 39.4068 28.8 38.6001H38.7001V40.0668Z" fill="white"/><path d="M28.8 40.0668H27.3334C26.5234 40.0668 25.8667 39.4101 25.8667 38.6001H28.8V40.0668Z" fill="url(#paint17_radial)"/><rect x="25.8667" y="38.6001" width="2.93333" height="1.46667" fill="url(#paint18_linear)"/><path opacity="0.24" d="M34.6667 40.0667L31.0367 51.0666H28.8V40.0667H34.6667Z" fill="url(#paint19_linear)"/><path opacity="0.24" d="M58.1333 40.0667L62.0933 51.0666H64V40.0667H58.1333Z" fill="url(#paint20_linear)"/><path opacity="0.64" d="M21.8333 51.0665C21.8333 50.3332 21.8333 48.655 21.8333 47.9628C21.8333 42.7895 19.3758 38.5999 16.2942 38.5999C13.2127 38.5999 10.8333 42.7895 10.8333 47.9628C10.8333 48.655 10.8333 50.3332 10.8333 51.0665" fill="url(#paint21_linear)"/><path d="M20.9434 54C20.4286 54 19.8529 53.564 20 53.0833C20.4412 51.7889 20.7333 50.3333 20.7333 48.6833C20.7333 43.9127 19.0833 39.7 16.2734 39.7C13.4 39.7 11.5667 43.9497 11.5667 48.6833C11.5667 53.4539 13.7036 56.9333 16.2104 56.9333H20.7333C22.2042 56.9333 23.5175 55.96 24.4 54H20.9434Z" fill="#212240"/><path d="M42 54C42.9167 56.0167 43.7744 56.9333 45.3 56.9333H50.3536C51.9 56.9333 53.2248 56.0072 54.1 54H42Z" fill="#212240"/><path d="M13.4001 48.3166C13.4001 51.4406 14.641 54 16.1501 54C17.6593 54 18.9001 51.4406 18.9001 48.3166C18.9001 45.1927 17.6593 42.6333 16.1501 42.6333C14.641 42.6333 13.4001 45.1927 13.4001 48.3166Z" fill="url(#paint22_linear)"/><path d="M14.4208 48.3543C14.4208 45.5691 15.4074 43.2355 16.7001 42.7462C16.53 42.6709 16.3599 42.6333 16.1898 42.6333C14.6835 42.6333 13.4001 45.1927 13.4001 48.3166C13.4001 51.4406 14.6589 54 16.1898 54C16.3599 54 16.53 53.9623 16.7001 53.8871C15.4074 53.473 14.4208 51.1395 14.4208 48.3543Z" fill="url(#paint23_linear)"/></g><defs><radialGradient id="paint0_radial" cx="0" cy="0" r="1" gradientUnits="userSpaceOnUse" gradientTransform="translate(19.9957 56.9402) rotate(90) scale(2.93333 44)"><stop stop-color="#212240" stop-opacity="0.23"/><stop offset="1" stop-color="#23266A" stop-opacity="0"/></radialGradient><radialGradient id="paint1_radial" cx="0" cy="0" r="1" gradientUnits="userSpaceOnUse" gradientTransform="translate(19.9957 56.7563) rotate(90) scale(2.01667 44)"><stop stop-color="#212240" stop-opacity="0.51"/><stop offset="1" stop-color="#23266A" stop-opacity="0"/></radialGradient><radialGradient id="paint2_radial" cx="0" cy="0" r="1" gradientUnits="userSpaceOnUse" gradientTransform="translate(46.9516 57.0138) rotate(90) scale(1.1 12.65)"><stop stop-color="#212240"/><stop offset="1" stop-color="#23266A" stop-opacity="0"/></radialGradient><radialGradient id="paint3_radial" cx="0" cy="0" r="1" gradientUnits="userSpaceOnUse" gradientTransform="translate(-10.2514 56.9409) rotate(90) scale(1.46667 13.7497)"><stop stop-color="#212240"/><stop offset="1" stop-color="#23266A" stop-opacity="0"/></radialGradient><radialGradient id="paint4_radial" cx="0" cy="0" r="1" gradientUnits="userSpaceOnUse" gradientTransform="translate(18.3483 57.0125) rotate(90) scale(1.1 15.7663)"><stop stop-color="#212240"/><stop offset="1" stop-color="#23266A" stop-opacity="0"/></radialGradient><radialGradient id="paint5_radial" cx="0" cy="0" r="1" gradientUnits="userSpaceOnUse" gradientTransform="translate(42.9867 57.0136) rotate(90) scale(0.733334 12.2664)"><stop stop-color="#212240"/><stop offset="1" stop-color="#23266A" stop-opacity="0"/></radialGradient><radialGradient id="paint6_radial" cx="0" cy="0" r="1" gradientUnits="userSpaceOnUse" gradientTransform="translate(-9.26478 57.0136) rotate(90) scale(0.733334 12.2664)"><stop stop-color="#212240"/><stop offset="1" stop-color="#23266A" stop-opacity="0"/></radialGradient><linearGradient id="paint7_linear" x1="26.9302" y1="-2.96426" x2="21.8216" y2="46.383" gradientUnits="userSpaceOnUse"><stop stop-color="white"/><stop offset="0.999" stop-color="#8FCEFF"/></linearGradient><linearGradient id="paint8_linear" x1="26.708" y1="0.0221738" x2="30.8055" y2="38.6714" gradientUnits="userSpaceOnUse"><stop stop-color="white"/><stop offset="0.999" stop-color="#8FCEFF"/></linearGradient><linearGradient id="paint9_linear" x1="2.34282" y1="8.44382" x2="-7.42737" y2="63.5255" gradientUnits="userSpaceOnUse"><stop stop-color="#B2DEFF"/><stop offset="0.3298" stop-color="#93C8FF"/><stop offset="0.7656" stop-color="#6FAFFF"/><stop offset="0.9985" stop-color="#61A5FF"/></linearGradient><linearGradient id="paint10_linear" x1="-3.10961" y1="10.2816" x2="-8.64202" y2="47.7711" gradientUnits="userSpaceOnUse"><stop stop-color="#B2DEFF"/><stop offset="0.3298" stop-color="#93C8FF"/><stop offset="0.7656" stop-color="#6FAFFF"/><stop offset="0.9985" stop-color="#61A5FF"/></linearGradient><linearGradient id="paint11_linear" x1="-23.7571" y1="48.5455" x2="20.0194" y2="64.6876" gradientUnits="userSpaceOnUse"><stop stop-color="#CFD4E7"/><stop offset="0.150577" stop-color="#DDE0EE"/><stop offset="0.479036" stop-color="#D9DDEC"/><stop offset="1" stop-color="#D5DAED"/></linearGradient><linearGradient id="paint12_linear" x1="57.2166" y1="26.1332" x2="39.7172" y2="41.4781" gradientUnits="userSpaceOnUse"><stop offset="0.00173748" stop-color="#6771A3"/><stop offset="0.9998" stop-color="#8D98C9"/></linearGradient><linearGradient id="paint13_linear" x1="-20.5644" y1="54" x2="14.6613" y2="22.0323" gradientUnits="userSpaceOnUse"><stop offset="0.132262" stop-color="#525481"/><stop offset="0.515935" stop-color="#393C63"/><stop offset="1" stop-color="#313356"/></linearGradient><linearGradient id="paint14_linear" x1="20" y1="54" x2="20" y2="40.2063" gradientUnits="userSpaceOnUse"><stop stop-color="#212240"/><stop offset="1" stop-color="#212240" stop-opacity="0"/></linearGradient><linearGradient id="paint15_linear" x1="-77.9142" y1="24.8451" x2="23.2047" y2="47.9065" gradientUnits="userSpaceOnUse"><stop stop-color="#B1B4D8" stop-opacity="0.42"/><stop offset="0.5461" stop-color="#B5B8DC"/><stop offset="1" stop-color="#A6ABE4" stop-opacity="0"/></linearGradient><linearGradient id="paint16_linear" x1="46.394" y1="40.4334" x2="46.3988" y2="32.5501" gradientUnits="userSpaceOnUse"><stop stop-color="#2F315C" stop-opacity="0"/><stop offset="0.9995" stop-color="#2F315C"/></linearGradient><radialGradient id="paint17_radial" cx="0" cy="0" r="1" gradientUnits="userSpaceOnUse" gradientTransform="translate(28.9834 38.6001) rotate(164.055) scale(2.66937 5.33875)"><stop stop-color="white" stop-opacity="0.96"/><stop offset="1" stop-color="white" stop-opacity="0.64"/></radialGradient><linearGradient id="paint18_linear" x1="28.9834" y1="40.2501" x2="27.8334" y2="38.6932" gradientUnits="userSpaceOnUse"><stop stop-color="#212240" stop-opacity="0.08"/><stop offset="1" stop-color="#212240" stop-opacity="0"/></linearGradient><linearGradient id="paint19_linear" x1="25.3167" y1="40.9833" x2="31.3192" y2="45.3813" gradientUnits="userSpaceOnUse"><stop stop-color="white"/><stop offset="1" stop-color="white" stop-opacity="0"/></linearGradient><linearGradient id="paint20_linear" x1="67.6666" y1="41.3693" x2="61.346" y2="45.7296" gradientUnits="userSpaceOnUse"><stop stop-color="white"/><stop offset="1" stop-color="white" stop-opacity="0"/></linearGradient><linearGradient id="paint21_linear" x1="16.3371" y1="36.4096" x2="16.3371" y2="57.2407" gradientUnits="userSpaceOnUse"><stop offset="0.000404094" stop-color="#212240"/><stop offset="0.2945" stop-color="#212240" stop-opacity="0"/></linearGradient><linearGradient id="paint22_linear" x1="15.9884" y1="50.2424" x2="17.1473" y2="39.5412" gradientUnits="userSpaceOnUse"><stop offset="0.000421262" stop-color="#E6E8F5"/><stop offset="1" stop-color="#7EB5F0"/></linearGradient><linearGradient id="paint23_linear" x1="15.7991" y1="57.4257" x2="14.9672" y2="46.7107" gradientUnits="userSpaceOnUse"><stop offset="0.000421262" stop-color="#E6E8F5"/><stop offset="1" stop-color="#7EB5F0"/></linearGradient></defs></svg>