<svg xmlns="http://www.w3.org/2000/svg" viewBox="0 0 64 64" fill="none"><circle cx="29" cy="35" r="29" fill="#F7F0FF"/><mask id="mask0" mask-type="alpha" maskUnits="userSpaceOnUse" x="0" y="0" width="64" height="64"><path fill-rule="evenodd" clip-rule="evenodd" d="M0 0H30H64V15V64H30V63.9831C29.6681 63.9943 29.3347 64 29 64C12.9837 64 0 51.0163 0 35C0 27.2462 3.04301 20.2032 7.99993 15H0V0Z" fill="#C4C4C4"/></mask><g mask="url(#mask0)"><mask id="mask1" mask-type="alpha" maskUnits="userSpaceOnUse" x="-24" y="55" width="83" height="5"><rect x="-24" y="55.4668" width="82.1333" height="4.4" fill="url(#paint0_linear)"/></mask><g mask="url(#mask1)"><path opacity="0.4" d="M-24 55.4668L57.4 55.4668V58.7668H-24C-24 58.7668 -24 56.5668 -24 55.4668Z" fill="url(#paint1_linear)"/><path opacity="0.4" d="M-23.9405 55.8679C-23.779 55.7904 -24.1341 55.8679 -23.9405 55.8679H58.1333L58.1333 57.3002L-23.9405 57.3002C-23.9405 57.3002 -23.9405 56.226 -23.9405 55.8679Z" fill="url(#paint2_radial)"/></g><path d="M18.4577 35.362H41.7777L30.8781 24.3357H7.4314L18.4577 35.362Z" fill="url(#paint3_linear)"/><path d="M7.4314 24.3357H30.7514V36.8829V56.6542H7.4314V24.3357Z" fill="url(#paint4_linear)"/><path d="M7.43137 56.6542H-12.9736V24.3357H7.43137V56.6542Z" fill="url(#paint5_linear)"/><path d="M7.43137 24.3357H-12.9736V43.6C-9.67842 41.192 -5.24255 38.784 -1.94733 39.6711C1.72811 40.685 5.2768 37.2631 7.43137 34.4748V24.3357V24.3357Z" fill="url(#paint6_linear)"/><path d="M-3.595 35.3622H-24L-12.9737 24.3359H7.43131L-3.595 35.3622Z" fill="url(#paint7_linear)"/><path d="M17.0636 31.4333L15.9229 40.5586L13.6416 56.6544H47.7344L51.1564 31.4333H17.0636Z" fill="url(#paint8_linear)"/><path d="M27.7096 47.1489C24.4144 41.8259 19.2181 41.3189 15.7962 41.6991L13.6416 56.6543H47.7458L48.8751 49.0498C49.0018 49.1766 32.9059 55.5137 27.7096 47.1489Z" fill="url(#paint9_linear)"/><path d="M42.158 36.1225H40.0034V28.1379C40.0034 24.716 37.2151 22.0545 33.9199 22.0545C30.498 22.0545 27.8365 24.8427 27.8365 28.1379V36.1225H25.6819V28.1379C25.5552 23.5753 29.2306 19.8999 33.9199 19.8999C38.4825 19.8999 42.2847 23.5753 42.2847 28.2647L42.158 36.1225Z" fill="url(#paint10_linear)"/><path d="M41.1383 38.5089L43.5583 36.0896L41.139 33.6696L38.719 36.0889L41.1383 38.5089Z" fill="#212240"/><path d="M26.7001 38.505L29.1201 36.0857L26.7008 33.6657L24.2808 36.085L26.7001 38.505Z" fill="#212240"/><path d="M51.1563 31.4333L54.5783 56.6544H47.7344L51.1563 31.4333Z" fill="url(#paint11_linear)"/><path d="M51.1563 52.2183L47.7344 56.6541H54.5783L51.1563 52.2183Z" fill="url(#paint12_linear)"/><path d="M51.1562 31.4333V52.2186L54.5782 56.6544L51.1562 31.4333Z" fill="url(#paint13_linear)"/><path d="M40.8904 53.9929L37.8486 50.9512L40.8904 47.9094L43.9321 50.9512L40.8904 53.9929Z" fill="url(#paint14_linear)"/></g><defs><linearGradient id="paint0_linear" x1="58.1333" y1="58.513" x2="-24" y2="58.513" gradientUnits="userSpaceOnUse"><stop offset="0.030393" stop-color="#212240" stop-opacity="0"/><stop offset="0.054926" stop-color="#212240"/><stop offset="0.866078" stop-color="#212240"/><stop offset="1" stop-color="#212240" stop-opacity="0"/></linearGradient><linearGradient id="paint1_linear" x1="16.7" y1="55.4668" x2="16.7" y2="58.7668" gradientUnits="userSpaceOnUse"><stop stop-color="#212240" stop-opacity="0"/><stop offset="0.484375" stop-color="#212240" stop-opacity="0.366094"/><stop offset="1" stop-color="#212240" stop-opacity="0"/></linearGradient><radialGradient id="paint2_radial" cx="0" cy="0" r="1" gradientUnits="userSpaceOnUse" gradientTransform="translate(17.0345 56.7432) rotate(90) scale(0.556973 83.768)"><stop stop-color="#212240" stop-opacity="0.71"/><stop offset="1" stop-color="#212240" stop-opacity="0"/></radialGradient><linearGradient id="paint3_linear" x1="34.9551" y1="41.6124" x2="17.3056" y2="21.6432" gradientUnits="userSpaceOnUse"><stop stop-color="#FCC565"/><stop offset="1" stop-color="#E86253"/></linearGradient><linearGradient id="paint4_linear" x1="16.7733" y1="47.6904" x2="32.2038" y2="-0.416715" gradientUnits="userSpaceOnUse"><stop stop-color="#FCC568"/><stop offset="1" stop-color="#FFF8E5"/></linearGradient><linearGradient id="paint5_linear" x1="1.39073" y1="61.7474" x2="-15.3881" y2="-23.5167" gradientUnits="userSpaceOnUse"><stop stop-color="#FCC565"/><stop offset="1" stop-color="#E86253"/></linearGradient><linearGradient id="paint6_linear" x1="4.56377" y1="28.0465" x2="-53.3063" y2="49.7905" gradientUnits="userSpaceOnUse"><stop stop-color="#E86153" stop-opacity="0"/><stop offset="1" stop-color="#E86253"/></linearGradient><linearGradient id="paint7_linear" x1="-13.7548" y1="33.0332" x2="17.5714" y2="14.9197" gradientUnits="userSpaceOnUse"><stop stop-color="#FCC568"/><stop offset="1" stop-color="#FFF8E5"/></linearGradient><linearGradient id="paint8_linear" x1="46.1709" y1="51.2395" x2="13.6324" y2="34.2101" gradientUnits="userSpaceOnUse"><stop stop-color="#8FCEFF"/><stop offset="0.9981" stop-color="#E0F2FF"/></linearGradient><linearGradient id="paint9_linear" x1="48.5731" y1="56.2734" x2="-13.7975" y2="42.3838" gradientUnits="userSpaceOnUse"><stop stop-color="#8FCEFF"/><stop offset="0.9981" stop-color="#E0F2FF"/></linearGradient><linearGradient id="paint10_linear" x1="33.882" y1="34.983" x2="33.882" y2="19.8668" gradientUnits="userSpaceOnUse"><stop stop-color="#212240"/><stop offset="0.9981" stop-color="#373D5C"/></linearGradient><linearGradient id="paint11_linear" x1="49.7081" y1="27.6639" x2="51.6924" y2="68.0608" gradientUnits="userSpaceOnUse"><stop stop-color="#8FCEFF"/><stop offset="0.9981" stop-color="#E0F2FF"/></linearGradient><linearGradient id="paint12_linear" x1="50.6216" y1="56.1906" x2="39.3967" y2="65.1065" gradientUnits="userSpaceOnUse"><stop stop-color="#8FCEFF"/><stop offset="0.9981" stop-color="#E0F2FF"/></linearGradient><linearGradient id="paint13_linear" x1="51.3227" y1="44.8899" x2="38.956" y2="51.8234" gradientUnits="userSpaceOnUse"><stop stop-color="#8FCEFF"/><stop offset="0.9981" stop-color="#E0F2FF"/></linearGradient><linearGradient id="paint14_linear" x1="37.0057" y1="42.9775" x2="41.0347" y2="51.2032" gradientUnits="userSpaceOnUse"><stop stop-color="#7D66FF"/><stop offset="0.9996" stop-color="#6D55F6"/></linearGradient></defs></svg>