<svg xmlns="http://www.w3.org/2000/svg" viewBox="0 0 64 64" fill="none"><circle cx="29" cy="35" r="29" fill="#FFF8E5"/><mask id="mask0" mask-type="alpha" maskUnits="userSpaceOnUse" x="0" y="0" width="64" height="64"><path fill-rule="evenodd" clip-rule="evenodd" d="M0 0H30H64V15V64H30V63.9831C29.6681 63.9943 29.3347 64 29 64C12.9837 64 0 51.0163 0 35C0 27.2462 3.04301 20.2032 7.99993 15H0V0Z" fill="#C4C4C4"/></mask><g mask="url(#mask0)"><path opacity="0.75" d="M20 59.8667C44.3005 59.8667 64 58.5534 64 56.9333C64 55.3133 44.3005 54 20 54C-4.30053 54 -24 55.3133 -24 56.9333C-24 58.5534 -4.30053 59.8667 20 59.8667Z" fill="url(#paint0_radial)"/><path opacity="0.75" d="M20 58.7667C44.3005 58.7667 64 57.8638 64 56.7501C64 55.6363 44.3005 54.7334 20 54.7334C-4.30053 54.7334 -24 55.6363 -24 56.7501C-24 57.8638 -4.30053 58.7667 20 58.7667Z" fill="url(#paint1_radial)"/><path opacity="0.8" d="M46.95 58.1067C53.9364 58.1067 59.6 57.6143 59.6 57.0067C59.6 56.3992 53.9364 55.9067 46.95 55.9067C39.9636 55.9067 34.3 56.3992 34.3 57.0067C34.3 57.6143 39.9636 58.1067 46.95 58.1067Z" fill="url(#paint2_radial)"/><path opacity="0.8" d="M-10.25 58.3999C-2.65608 58.3999 3.5 57.7432 3.5 56.9332C3.5 56.1232 -2.65608 55.4666 -10.25 55.4666C-17.8439 55.4666 -24 56.1232 -24 56.9332C-24 57.7432 -17.8439 58.3999 -10.25 58.3999Z" fill="url(#paint3_radial)"/><path opacity="0.8" d="M18.3499 58.1067C27.0576 58.1067 34.1166 57.6143 34.1166 57.0067C34.1166 56.3992 27.0576 55.9067 18.3499 55.9067C9.64223 55.9067 2.58325 56.3992 2.58325 57.0067C2.58325 57.6143 9.64223 58.1067 18.3499 58.1067Z" fill="url(#paint4_radial)"/><path opacity="0.64" d="M42.9899 57.7401C49.7738 57.7401 55.2732 57.4118 55.2732 57.0068C55.2732 56.6018 49.7738 56.2734 42.9899 56.2734C36.206 56.2734 30.7065 56.6018 30.7065 57.0068C30.7065 57.4118 36.206 57.7401 42.9899 57.7401Z" fill="url(#paint5_radial)"/><path opacity="0.64" d="M-9.26012 57.7401C-2.47623 57.7401 3.02321 57.4118 3.02321 57.0068C3.02321 56.6018 -2.47623 56.2734 -9.26012 56.2734C-16.044 56.2734 -21.5435 56.6018 -21.5435 57.0068C-21.5435 57.4118 -16.044 57.7401 -9.26012 57.7401Z" fill="url(#paint6_radial)"/><path d="M48.0499 33.0999C39.1722 22.4524 29.6994 20.2666 24.4089 20.2666H0.199951L13.95 33.0999H48.0499Z" fill="url(#paint7_linear)"/><path d="M13.95 33.0999C18.6239 27.0779 26.2973 25.988 32.3739 25.1595C34.4202 24.8805 36.2907 24.6254 37.8137 24.2122C40.9036 26.0266 44.153 28.6165 47.3422 32.2702C47.5752 32.5403 47.8099 32.8168 48.0462 33.0999L13.95 33.0999Z" fill="url(#paint8_linear)"/><path d="M0.238477 20.2726C0.279182 20.2726 0.197771 20.2726 0.238477 20.2726C-4.38815 20.2228 -11.3885 20.2726 -18.1333 29.4345V33.0999H13.95C12.1271 28.1517 7.03631 20.3457 0.238477 20.2726Z" fill="url(#paint9_linear)"/><path d="M5.38361 33.1001C3.14083 28.9803 0.859961 28.1461 -1.92736 27.1268C-4.22409 26.2868 -6.86469 25.3211 -10.1112 22.2878C-10.1474 22.2937 -10.1836 22.2998 -10.2197 22.3064C-12.7884 23.6381 -15.4771 25.829 -18.1265 29.4254C-18.131 29.4336 -18.1333 29.4378 -18.1333 29.4378V33.1001H5.38361Z" fill="url(#paint10_linear)"/><mask id="mask1" mask-type="alpha" maskUnits="userSpaceOnUse" x="-24" y="29" width="88" height="25"><path fill-rule="evenodd" clip-rule="evenodd" d="M25.8667 54H61.0667C62.6867 54 64 52.6867 64 51.0667V38.6L48.05 33.1L13.95 33.1H-8.05C-10.0826 33.1 -10.2971 32.8837 -11.7086 31.4602C-11.8248 31.3429 -11.9492 31.2175 -12.0833 31.0833C-13.55 29.6167 -13.7333 29.4333 -18.1333 29.4333C-20.8833 32.1833 -24 33.1 -24 33.1V46.1492C-24 47.7664 -23.3361 49.3152 -22.1313 50.394C-20.3956 51.9484 -17.9922 54 -17.4 54H13.95H25.8667Z" fill="url(#paint11_linear)"/></mask><g mask="url(#mask1)"><path d="M63.9999 54.0001V38.6001L48.05 33.1001H13.95V54.0001H63.9999Z" fill="url(#paint12_linear)"/><path d="M28.8 38.6L13.95 33.1H-18.1333V29.4333C-19.2183 30.5333 -21.2877 32.1833 -24 33.1V47.746C-24 50.0939 -22.6061 52.2328 -20.4143 53.0747C-19.1255 53.5696 -17.89 54 -17.4904 54H25.8667C27.4867 54 28.8 52.6867 28.8 51.0667V38.6Z" fill="url(#paint13_linear)"/><path opacity="0.64" fill-rule="evenodd" clip-rule="evenodd" d="M53.9706 49.6002C55.1395 51.0669 57.0389 51.0669 58.5 51.0669H64V54.0002H-24V51.0669H35.4733C36.7006 51.0669 38.7754 51.0669 40.2364 49.6002C41.45 48.382 42.4573 48.1335 43.1878 48.1335H50.6978C52.1881 48.1335 53.0508 48.446 53.9706 49.6002Z" fill="url(#paint14_linear)"/><path d="M28.8 38.6L13.95 33.1H-5.3V29.4333H-24C-24 29.4333 -24 32.9167 -24 33.1C-22.35 36.3376 -16.85 36.4 -5.3 36.4H11.2819C21.1 36.4 21.2833 40.0667 27.8833 40.0667H28.8V38.6Z" fill="url(#paint15_linear)"/><path d="M9.69663 40.4333H8.6333V42.5967H9.69663V40.4333Z" fill="url(#paint16_linear)"/></g><path opacity="0.96" d="M38.7 40.0668L38.7 38.6001H54.1V40.0668C53.5499 45.5668 51.091 46.3001 48.2333 46.3001H44.5666C41.7089 46.2625 39.0666 45.5668 38.7 40.0668Z" fill="url(#paint17_linear)"/><path d="M46.4 42.2667L45.3 41.1667L46.4 40.0667L47.5001 41.1667L46.4 42.2667Z" fill="url(#paint18_linear)"/><path d="M35.7666 38.6001H57.0333L54.0999 40.0668H38.6999L35.7666 38.6001Z" fill="url(#paint19_linear)"/><path d="M64.0001 38.6001H54.1001V40.0668H64.0001V38.6001Z" fill="white"/><path d="M38.7001 40.0668H28.8001C28.8001 40.0668 28.8 39.4068 28.8 38.6001H38.7001V40.0668Z" fill="white"/><path d="M28.8 40.0668H27.3334C26.5234 40.0668 25.8667 39.4101 25.8667 38.6001V38.6001H28.8V40.0668Z" fill="url(#paint20_radial)"/><rect x="25.8667" y="38.6001" width="2.93333" height="1.46667" fill="url(#paint21_linear)"/><path opacity="0.24" d="M34.6667 40.0667L31.0367 51.0667H28.8V40.0667H34.6667Z" fill="url(#paint22_linear)"/><path opacity="0.24" d="M58.1333 40.0667L62.0933 51.0667H64V40.0667H58.1333Z" fill="url(#paint23_linear)"/><path opacity="0.64" d="M21.8333 51.0665C21.8333 50.3332 21.8333 48.655 21.8333 47.9628C21.8333 42.7895 19.3758 38.5999 16.2942 38.5999C13.2127 38.5999 10.8333 42.7895 10.8333 47.9628C10.8333 48.655 10.8333 50.3332 10.8333 51.0665" fill="url(#paint24_linear)"/><path d="M20.9434 54C20.4286 54 19.8529 53.564 20 53.0833C20.4412 51.7889 20.7333 50.3333 20.7333 48.6833C20.7333 43.9127 19.0833 39.7 16.2734 39.7C13.4 39.7 11.5667 43.9497 11.5667 48.6833C11.5667 53.4539 13.7036 56.9333 16.2104 56.9333H20.7333C22.2042 56.9333 23.5175 55.96 24.4 54H20.9434Z" fill="#212240"/><path d="M42 54C42.9167 56.0167 43.7744 56.9333 45.3 56.9333H50.3536C51.9 56.9333 53.2248 56.0072 54.1 54H42Z" fill="#212240"/><path d="M13.3999 48.3166C13.3999 51.4406 14.6408 54 16.1499 54C17.659 54 18.8999 51.4406 18.8999 48.3166C18.8999 45.1927 17.659 42.6333 16.1499 42.6333C14.6408 42.6333 13.3999 45.1927 13.3999 48.3166Z" fill="url(#paint25_linear)"/><path d="M14.4205 48.3543C14.4205 45.5691 15.4071 43.2355 16.6999 42.7462C16.5298 42.6709 16.3597 42.6333 16.1896 42.6333C14.6832 42.6333 13.3999 45.1927 13.3999 48.3166C13.3999 51.4406 14.6587 54 16.1896 54C16.3597 54 16.5298 53.9623 16.6999 53.8871C15.4071 53.473 14.4205 51.1395 14.4205 48.3543Z" fill="url(#paint26_linear)"/></g><defs><radialGradient id="paint0_radial" cx="0" cy="0" r="1" gradientUnits="userSpaceOnUse" gradientTransform="translate(19.9957 56.9402) rotate(90) scale(2.93333 44)"><stop stop-color="#212240" stop-opacity="0.23"/><stop offset="1" stop-color="#23266A" stop-opacity="0"/></radialGradient><radialGradient id="paint1_radial" cx="0" cy="0" r="1" gradientUnits="userSpaceOnUse" gradientTransform="translate(19.9957 56.7563) rotate(90) scale(2.01667 44)"><stop stop-color="#212240" stop-opacity="0.51"/><stop offset="1" stop-color="#23266A" stop-opacity="0"/></radialGradient><radialGradient id="paint2_radial" cx="0" cy="0" r="1" gradientUnits="userSpaceOnUse" gradientTransform="translate(46.9516 57.0138) rotate(90) scale(1.1 12.65)"><stop stop-color="#212240"/><stop offset="1" stop-color="#23266A" stop-opacity="0"/></radialGradient><radialGradient id="paint3_radial" cx="0" cy="0" r="1" gradientUnits="userSpaceOnUse" gradientTransform="translate(-10.2514 56.9409) rotate(90) scale(1.46667 13.7497)"><stop stop-color="#212240"/><stop offset="1" stop-color="#23266A" stop-opacity="0"/></radialGradient><radialGradient id="paint4_radial" cx="0" cy="0" r="1" gradientUnits="userSpaceOnUse" gradientTransform="translate(18.3483 57.0125) rotate(90) scale(1.1 15.7663)"><stop stop-color="#212240"/><stop offset="1" stop-color="#23266A" stop-opacity="0"/></radialGradient><radialGradient id="paint5_radial" cx="0" cy="0" r="1" gradientUnits="userSpaceOnUse" gradientTransform="translate(42.9867 57.0136) rotate(90) scale(0.733334 12.2664)"><stop stop-color="#212240"/><stop offset="1" stop-color="#23266A" stop-opacity="0"/></radialGradient><radialGradient id="paint6_radial" cx="0" cy="0" r="1" gradientUnits="userSpaceOnUse" gradientTransform="translate(-9.26478 57.0136) rotate(90) scale(0.733334 12.2664)"><stop stop-color="#212240"/><stop offset="1" stop-color="#23266A" stop-opacity="0"/></radialGradient><linearGradient id="paint7_linear" x1="24.9955" y1="18.7999" x2="19.8371" y2="34.182" gradientUnits="userSpaceOnUse"><stop stop-color="#8590BC"/><stop offset="0.999" stop-color="#7580AC"/></linearGradient><linearGradient id="paint8_linear" x1="27.778" y1="0.89678" x2="34.9282" y2="68.1275" gradientUnits="userSpaceOnUse"><stop offset="0.000904403" stop-color="#939FCA"/><stop offset="0.9996" stop-color="#48507E"/></linearGradient><linearGradient id="paint9_linear" x1="4.70104" y1="-4.57326" x2="-3.63338" y2="38.2068" gradientUnits="userSpaceOnUse"><stop offset="0.000904403" stop-color="#939FCA"/><stop offset="0.9968" stop-color="#2F315C"/></linearGradient><linearGradient id="paint10_linear" x1="-14.9952" y1="-15.2894" x2="-4.05145" y2="40.4934" gradientUnits="userSpaceOnUse"><stop offset="0.000904403" stop-color="#939FCA"/><stop offset="0.9968" stop-color="#2F315C"/></linearGradient><linearGradient id="paint11_linear" x1="-24" y1="51.25" x2="27.8833" y2="38.9667" gradientUnits="userSpaceOnUse"><stop stop-color="#595E7E"/><stop offset="0.622713" stop-color="#313554"/><stop offset="1" stop-color="#2C2F4E"/></linearGradient><linearGradient id="paint12_linear" x1="79.58" y1="10.967" x2="45.6534" y2="54.0415" gradientUnits="userSpaceOnUse"><stop stop-color="#2F315C"/><stop offset="1" stop-color="#515880"/></linearGradient><linearGradient id="paint13_linear" x1="-11.7041" y1="65.9167" x2="27.2438" y2="33.9948" gradientUnits="userSpaceOnUse"><stop stop-color="#595E7E"/><stop offset="0.526378" stop-color="#313554"/><stop offset="1" stop-color="#2C2F4E"/></linearGradient><linearGradient id="paint14_linear" x1="20" y1="54.0002" x2="20" y2="42.9653" gradientUnits="userSpaceOnUse"><stop stop-color="#212240"/><stop offset="1" stop-color="#212240" stop-opacity="0"/></linearGradient><linearGradient id="paint15_linear" x1="-96.0659" y1="13.9075" x2="26.9474" y2="44.4571" gradientUnits="userSpaceOnUse"><stop offset="0.000413161" stop-color="#747C99" stop-opacity="0.42"/><stop offset="0.554108" stop-color="#9FA8D0"/><stop offset="0.70569" stop-color="#6D7495"/><stop offset="1" stop-color="#747C99" stop-opacity="0"/></linearGradient><linearGradient id="paint16_linear" x1="11.8376" y1="32.0561" x2="1.57087" y2="68.2338" gradientUnits="userSpaceOnUse"><stop stop-color="#515880"/><stop offset="1" stop-color="#212240"/></linearGradient><linearGradient id="paint17_linear" x1="46.5782" y1="65.7334" x2="46.6126" y2="38.6001" gradientUnits="userSpaceOnUse"><stop stop-color="#212240" stop-opacity="0"/><stop offset="1" stop-color="#212240"/></linearGradient><linearGradient id="paint18_linear" x1="45.3061" y1="41.1836" x2="47.5061" y2="41.1836" gradientUnits="userSpaceOnUse"><stop offset="0.000423337" stop-color="#FCC565"/><stop offset="0.9995" stop-color="#FFDA84"/></linearGradient><linearGradient id="paint19_linear" x1="46.394" y1="40.4334" x2="46.3988" y2="32.5501" gradientUnits="userSpaceOnUse"><stop stop-color="#2F315C" stop-opacity="0"/><stop offset="0.9995" stop-color="#2F315C"/></linearGradient><radialGradient id="paint20_radial" cx="0" cy="0" r="1" gradientUnits="userSpaceOnUse" gradientTransform="translate(28.9834 38.6001) rotate(164.055) scale(2.66937 5.33875)"><stop stop-color="white" stop-opacity="0.96"/><stop offset="1" stop-color="white" stop-opacity="0.64"/></radialGradient><linearGradient id="paint21_linear" x1="28.9834" y1="40.2501" x2="27.8334" y2="38.6932" gradientUnits="userSpaceOnUse"><stop stop-color="#212240" stop-opacity="0.08"/><stop offset="1" stop-color="#212240" stop-opacity="0"/></linearGradient><linearGradient id="paint22_linear" x1="25.3167" y1="40.9833" x2="31.3192" y2="45.3813" gradientUnits="userSpaceOnUse"><stop stop-color="white"/><stop offset="1" stop-color="white" stop-opacity="0"/></linearGradient><linearGradient id="paint23_linear" x1="67.6666" y1="41.3693" x2="61.346" y2="45.7296" gradientUnits="userSpaceOnUse"><stop stop-color="white"/><stop offset="1" stop-color="white" stop-opacity="0"/></linearGradient><linearGradient id="paint24_linear" x1="16.3371" y1="36.4096" x2="16.3371" y2="57.2407" gradientUnits="userSpaceOnUse"><stop offset="0.000404094" stop-color="#212240"/><stop offset="0.2945" stop-color="#212240" stop-opacity="0"/></linearGradient><linearGradient id="paint25_linear" x1="15.9882" y1="50.2424" x2="17.147" y2="39.5412" gradientUnits="userSpaceOnUse"><stop offset="0.000421262" stop-color="#E6E8F5"/><stop offset="1" stop-color="#7EB5F0"/></linearGradient><linearGradient id="paint26_linear" x1="15.7989" y1="57.4257" x2="14.967" y2="46.7107" gradientUnits="userSpaceOnUse"><stop offset="0.000421262" stop-color="#E6E8F5"/><stop offset="1" stop-color="#7EB5F0"/></linearGradient></defs></svg>