<svg xmlns="http://www.w3.org/2000/svg" viewBox="0 0 64 64" fill="none"><circle cx="29" cy="35" r="29" fill="#FFF0F0"/><mask id="mask0" mask-type="alpha" maskUnits="userSpaceOnUse" x="0" y="0" width="64" height="64"><path fill-rule="evenodd" clip-rule="evenodd" d="M0 0H30H64V15V64H30V63.9831C29.6681 63.9943 29.3347 64 29 64C12.9837 64 0 51.0163 0 35C0 27.2462 3.04301 20.2032 7.99993 15H0V0Z" fill="#C4C4C4"/></mask><g mask="url(#mask0)"><g opacity="0.75"><path opacity="0.75" d="M21.3167 59.8668C42.4784 59.8668 59.6333 58.7997 59.6333 57.4834C59.6333 56.1672 42.4784 55.1001 21.3167 55.1001C0.154955 55.1001 -17 56.1672 -17 57.4834C-17 58.7997 0.154955 59.8668 21.3167 59.8668Z" fill="url(#paint0_radial)"/><path opacity="0.6" d="M8.37325 58.7943C14.4281 58.7943 19.3366 58.2074 19.3366 57.4834C19.3366 56.7595 14.4281 56.1726 8.37325 56.1726C2.31836 56.1726 -2.59009 56.7595 -2.59009 57.4834C-2.59009 58.2074 2.31836 58.7943 8.37325 58.7943Z" fill="url(#paint1_radial)"/><path opacity="0.6" d="M33.1967 58.7943C39.2516 58.7943 44.1601 58.2074 44.1601 57.4834C44.1601 56.7595 39.2516 56.1726 33.1967 56.1726C27.1418 56.1726 22.2334 56.7595 22.2334 57.4834C22.2334 58.2074 27.1418 58.7943 33.1967 58.7943Z" fill="url(#paint2_radial)"/><path opacity="0.8" d="M6.83338 58.0333C12.0985 58.0333 16.3667 57.7871 16.3667 57.4833C16.3667 57.1796 12.0985 56.9333 6.83338 56.9333C1.56827 56.9333 -2.69995 57.1796 -2.69995 57.4833C-2.69995 57.7871 1.56827 58.0333 6.83338 58.0333Z" fill="url(#paint3_radial)"/><path opacity="0.8" d="M34.0399 57.9479C39.305 57.9479 43.5733 57.7017 43.5733 57.3979C43.5733 57.0941 39.305 56.8479 34.0399 56.8479C28.7748 56.8479 24.5066 57.0941 24.5066 57.3979C24.5066 57.7017 28.7748 57.9479 34.0399 57.9479Z" fill="url(#paint4_radial)"/></g><path d="M7.67666 42.5232H5.43999V43.5499C4.11999 44.8699 3.23999 47.2532 3.23999 50.0399C3.23999 52.7899 4.11999 55.2099 5.43999 56.5299V57.5565H7.67666C10.1333 57.5565 12.1133 54.1832 12.1133 50.0399C12.1133 45.8965 10.0967 42.5232 7.67666 42.5232Z" fill="url(#paint5_linear)"/><path d="M7.78648 41.5701H5.43981L4.44981 42.7434C3.71648 43.3301 6.17314 43.3301 6.90648 43.2201L9.80314 47.8034L10.4631 49.9667H12.8098C12.7731 45.3101 10.5365 41.5701 7.78648 41.5701Z" fill="url(#paint6_linear)"/><path d="M35.0665 30.1301L35.2499 29.3601L33.0499 33.3201L26.3399 45.4934C25.5332 46.9968 24.2132 47.8401 22.7466 47.8401H8.33656C7.63989 47.8401 7.05322 48.7934 7.05322 50.0034C7.05322 51.2134 7.63989 52.1668 8.33656 52.1668H22.7466C25.7899 52.1668 28.5766 50.4434 30.1166 47.5834L33.3799 41.6801L35.8732 37.1701C35.4332 35.3001 34.6999 31.7434 35.0665 30.1301Z" fill="url(#paint7_linear)"/><path d="M5.40322 57.5565C7.85352 57.5565 9.83989 54.1912 9.83989 50.0399C9.83989 45.8885 7.85352 42.5232 5.40322 42.5232C2.95292 42.5232 0.966553 45.8885 0.966553 50.0399C0.966553 54.1912 2.95292 57.5565 5.40322 57.5565Z" fill="#212240"/><path d="M5.40326 54.9167C7.00304 54.9167 8.29992 52.7333 8.29992 50.04C8.29992 47.3467 7.00304 45.1633 5.40326 45.1633C3.80347 45.1633 2.50659 47.3467 2.50659 50.04C2.50659 52.7333 3.80347 54.9167 5.40326 54.9167Z" fill="url(#paint8_linear)"/><path d="M1.44312 44.9067C1.80978 45.3467 2.46978 45.3101 2.79978 44.8334C3.49645 43.8067 4.41312 43.1834 5.43978 43.1834C7.67645 43.1834 9.47312 46.2267 9.47312 49.9667H10.4264C10.4264 45.3101 8.18978 41.5701 5.43978 41.5701C3.78978 41.5701 2.35978 42.8534 1.44312 44.9067Z" fill="#212240"/><path d="M5.40321 52.1665C6.11197 52.1665 6.68654 51.198 6.68654 50.0032C6.68654 48.8084 6.11197 47.8398 5.40321 47.8398C4.69444 47.8398 4.11987 48.8084 4.11987 50.0032C4.11987 51.198 4.69444 52.1665 5.40321 52.1665Z" fill="url(#paint9_linear)"/><path d="M32.1699 30.1301L32.3532 29.3601L31.2899 33.3201L24.5432 45.4934C23.7365 46.9968 22.4165 47.8401 20.9499 47.8401H5.40321C4.70654 47.8401 4.11987 48.7934 4.11987 50.0034C4.11987 51.2134 4.70654 52.1668 5.40321 52.1668H19.8132C22.8565 52.1668 25.6432 50.4434 27.1832 47.5834L30.4465 41.6801L32.9399 37.1701C32.5365 35.3001 31.7665 31.7434 32.1699 30.1301Z" fill="#212240"/><path d="M33.7466 35.7769L32.9766 37.1702C33.1599 37.9035 33.2699 38.3435 33.2699 38.3435L33.7466 35.7769Z" fill="url(#paint10_linear)"/><path d="M31.6931 4.86679L33.0864 50.3335C33.1598 51.5068 35.5064 52.4968 36.2031 52.4601C36.8631 52.4235 37.3764 51.4335 37.3031 50.2235L36.0931 29.1035L34.9931 11.1735L34.6264 4.79346L31.6931 4.86679Z" fill="url(#paint11_linear)"/><path d="M35.6532 42.5232H33.4166V43.5499C32.0966 44.8699 31.2166 47.2532 31.2166 50.0399C31.2166 52.7899 32.0966 55.2099 33.4166 56.5299V57.5565H35.6532C38.1099 57.5565 40.0899 54.1832 40.0899 50.0399C40.0899 45.8965 38.1099 42.5232 35.6532 42.5232Z" fill="url(#paint12_linear)"/><path d="M33.4166 57.5565C35.8669 57.5565 37.8533 54.1912 37.8533 50.0399C37.8533 45.8885 35.8669 42.5232 33.4166 42.5232C30.9663 42.5232 28.98 45.8885 28.98 50.0399C28.98 54.1912 30.9663 57.5565 33.4166 57.5565Z" fill="#212240"/><path d="M33.4167 54.9167C35.0165 54.9167 36.3134 52.7333 36.3134 50.04C36.3134 47.3467 35.0165 45.1633 33.4167 45.1633C31.8169 45.1633 30.52 47.3467 30.52 50.04C30.52 52.7333 31.8169 54.9167 33.4167 54.9167Z" fill="url(#paint13_linear)"/><path d="M31.2534 50.04C31.2534 47.5467 32.3534 45.4933 33.7834 45.2C33.6734 45.1633 33.5267 45.1633 33.4167 45.1633C31.84 45.1633 30.52 47.3633 30.52 50.04C30.52 52.7533 31.8034 54.9167 33.4167 54.9167C33.5267 54.9167 33.6734 54.9167 33.7834 54.88C32.3534 54.5867 31.2534 52.5333 31.2534 50.04Z" fill="url(#paint14_linear)"/><path d="M31.73 4.75659C30.3 4.82993 29.2366 6.07659 29.31 7.46993L29.53 11.3199L31.95 50.4433C32.0233 51.6166 32.6466 52.5699 33.38 52.5333C34.0766 52.4966 34.59 51.5066 34.5166 50.2966L33.2333 29.1033L32.1333 11.1733L31.73 4.75659Z" fill="#212240"/><path d="M36.0959 29.14H33.2332H30.6665L32.1332 11.21H34.9995L36.0959 29.14Z" fill="url(#paint15_linear)"/><path d="M33.2331 29.14H30.6223L29.5298 11.2834L32.1331 11.21L33.2331 29.14Z" fill="#3471E1"/><path d="M33.3067 6.37012C33.1233 6.37012 32.9767 6.44345 32.8667 6.55345C32.7567 6.66345 32.6833 6.84678 32.72 6.99345L32.9033 9.78011C32.94 10.1101 33.1967 10.3301 33.49 10.3301C33.6733 10.3301 33.82 10.2568 33.93 10.1468C34.04 10.0368 34.1133 9.85345 34.0767 9.70678L33.8933 6.92012C33.8933 6.62678 33.6367 6.37012 33.3067 6.37012Z" fill="url(#paint16_linear)"/><path d="M41.4833 3.47332C41.4833 2.40998 40.9699 1.56665 40.3466 1.56665H25.0933V5.41665H40.3466C41.0066 5.41665 41.4833 4.53665 41.4833 3.47332Z" fill="url(#paint17_linear)"/><path d="M25.0932 1.56665C25.7165 1.56665 26.2299 2.40998 26.2299 3.47332C26.2299 4.53665 25.7165 5.37998 25.0932 5.37998C24.4699 5.37998 23.9565 4.53665 23.9565 3.47332C23.9565 2.40998 24.4699 1.56665 25.0932 1.56665Z" fill="#212240"/><path d="M3.27655 50.04C3.27655 47.5467 4.37655 45.4933 5.80655 45.2C5.69655 45.1633 5.54988 45.1633 5.43988 45.1633C3.86321 45.1633 2.54321 47.3633 2.54321 50.04C2.54321 52.7533 3.82655 54.9167 5.43988 54.9167C5.54988 54.9167 5.69655 54.9167 5.80655 54.88C4.37655 54.5867 3.27655 52.5333 3.27655 50.04Z" fill="url(#paint18_linear)"/><path d="M30.9964 40.1399C30.7398 39.9199 30.3364 39.9932 30.1898 40.3232L28.4664 43.4399C28.3198 43.6599 28.3931 43.9899 28.6131 44.1366C28.8698 44.3566 29.2731 44.2833 29.4198 43.9533L31.1431 40.8366C31.2898 40.6166 31.2164 40.3232 30.9964 40.1399Z" fill="url(#paint19_linear)"/></g><defs><radialGradient id="paint0_radial" cx="0" cy="0" r="1" gradientUnits="userSpaceOnUse" gradientTransform="translate(21.3163 57.4834) rotate(90) scale(2.38334 38.3167)"><stop stop-color="#212240" stop-opacity="0.51"/><stop offset="1" stop-color="#23266A" stop-opacity="0"/></radialGradient><radialGradient id="paint1_radial" cx="0" cy="0" r="1" gradientUnits="userSpaceOnUse" gradientTransform="translate(8.37041 57.4269) rotate(90) scale(1.293 10.9805)"><stop stop-color="#212240"/><stop offset="1" stop-color="#23266A" stop-opacity="0"/></radialGradient><radialGradient id="paint2_radial" cx="0" cy="0" r="1" gradientUnits="userSpaceOnUse" gradientTransform="translate(33.1939 57.4269) rotate(90) scale(1.293 10.9805)"><stop stop-color="#212240"/><stop offset="1" stop-color="#23266A" stop-opacity="0"/></radialGradient><radialGradient id="paint3_radial" cx="0" cy="0" r="1" gradientUnits="userSpaceOnUse" gradientTransform="translate(6.83039 57.5111) rotate(90) scale(0.559487 9.54188)"><stop stop-color="#212240"/><stop offset="1" stop-color="#23266A" stop-opacity="0"/></radialGradient><radialGradient id="paint4_radial" cx="0" cy="0" r="1" gradientUnits="userSpaceOnUse" gradientTransform="translate(34.0253 57.4256) rotate(90) scale(0.559487 9.54188)"><stop stop-color="#212240"/><stop offset="1" stop-color="#23266A" stop-opacity="0"/></radialGradient><linearGradient id="paint5_linear" x1="15.9241" y1="49.064" x2="6.63518" y2="50.0417" gradientUnits="userSpaceOnUse"><stop stop-color="#616A8F"/><stop offset="1" stop-color="#212240"/></linearGradient><linearGradient id="paint6_linear" x1="9.02449" y1="35.5225" x2="7.92449" y2="59.7225" gradientUnits="userSpaceOnUse"><stop stop-color="#616A8F"/><stop offset="1" stop-color="#212240"/></linearGradient><linearGradient id="paint7_linear" x1="16.3407" y1="23.2817" x2="27.364" y2="61.3964" gradientUnits="userSpaceOnUse"><stop stop-color="#373D5C"/><stop offset="1" stop-color="#212240"/></linearGradient><linearGradient id="paint8_linear" x1="5.41954" y1="56.4104" x2="5.41954" y2="31.678" gradientUnits="userSpaceOnUse"><stop offset="0.000421262" stop-color="#E6E8F5"/><stop offset="1" stop-color="#7EB5F0"/></linearGradient><linearGradient id="paint9_linear" x1="5.67095" y1="52.9773" x2="4.83073" y2="43.019" gradientUnits="userSpaceOnUse"><stop offset="0.000421262" stop-color="#CFD5EB"/><stop offset="0.9991" stop-color="#747C99"/></linearGradient><linearGradient id="paint10_linear" x1="33.1889" y1="32.4447" x2="34.45" y2="62.5019" gradientUnits="userSpaceOnUse"><stop stop-color="#616A8F"/><stop offset="1" stop-color="#212240"/></linearGradient><linearGradient id="paint11_linear" x1="54.4876" y1="21.8906" x2="-10.4124" y2="43.4017" gradientUnits="userSpaceOnUse"><stop stop-color="#616A8F"/><stop offset="1" stop-color="#212240"/></linearGradient><linearGradient id="paint12_linear" x1="43.1338" y1="40.1088" x2="28.4671" y2="58.6254" gradientUnits="userSpaceOnUse"><stop stop-color="#616A8F"/><stop offset="1" stop-color="#212240"/></linearGradient><linearGradient id="paint13_linear" x1="33.4076" y1="53.1819" x2="33.4076" y2="26.0697" gradientUnits="userSpaceOnUse"><stop offset="0.000421262" stop-color="#E6E8F5"/><stop offset="1" stop-color="#7EB5F0"/></linearGradient><linearGradient id="paint14_linear" x1="32.1471" y1="60.5994" x2="32.1471" y2="48.7432" gradientUnits="userSpaceOnUse"><stop offset="0.000421262" stop-color="#E6E8F5"/><stop offset="1" stop-color="#7EB5F0"/></linearGradient><linearGradient id="paint15_linear" x1="30.8198" y1="44.0714" x2="36.9309" y2="-0.172983" gradientUnits="userSpaceOnUse"><stop stop-color="#61A5FF"/><stop offset="0.9995" stop-color="#84B9FF"/></linearGradient><linearGradient id="paint16_linear" x1="30.8719" y1="10.9535" x2="45.5385" y2="-3.95773" gradientUnits="userSpaceOnUse"><stop stop-color="white"/><stop offset="0.9991" stop-color="#979FBD"/></linearGradient><linearGradient id="paint17_linear" x1="32.9111" y1="1.62451" x2="34.1945" y2="10.4245" gradientUnits="userSpaceOnUse"><stop stop-color="#616A8F"/><stop offset="1" stop-color="#212240"/></linearGradient><linearGradient id="paint18_linear" x1="4.15897" y1="60.5994" x2="4.15897" y2="48.7432" gradientUnits="userSpaceOnUse"><stop offset="0.000421262" stop-color="#E6E8F5"/><stop offset="1" stop-color="#7EB5F0"/></linearGradient><linearGradient id="paint19_linear" x1="30.3123" y1="35.5183" x2="29.4567" y2="46.5183" gradientUnits="userSpaceOnUse"><stop stop-color="#E86153"/><stop offset="1" stop-color="#F0996E"/></linearGradient></defs></svg>