<svg xmlns="http://www.w3.org/2000/svg" viewBox="0 0 64 64" fill="none"><circle cx="29" cy="35" r="29" fill="#F0F5FF"/><mask id="mask0" mask-type="alpha" maskUnits="userSpaceOnUse" x="0" y="0" width="64" height="64"><path fill-rule="evenodd" clip-rule="evenodd" d="M0 0H30H64V15V64H30V63.9831C29.6681 63.9943 29.3347 64 29 64C12.9837 64 0 51.0163 0 35C0 27.2462 3.04301 20.2032 7.99993 15H0V0Z" fill="#C4C4C4"/></mask><g mask="url(#mask0)"><g opacity="0.75"><path opacity="0.75" d="M27 59.8666C51.3005 59.8666 71 58.8816 71 57.6666C71 56.4515 51.3005 55.4666 27 55.4666C2.69947 55.4666 -17 56.4515 -17 57.6666C-17 58.8816 2.69947 59.8666 27 59.8666Z" fill="url(#paint0_radial)"/><path opacity="0.8" d="M41.3735 58.9499C48.8256 58.9499 54.8668 58.2933 54.8668 57.4833C54.8668 56.6732 48.8256 56.0166 41.3735 56.0166C33.9213 56.0166 27.8801 56.6732 27.8801 57.4833C27.8801 58.2933 33.9213 58.9499 41.3735 58.9499Z" fill="url(#paint1_radial)"/><path opacity="0.75" d="M9.39997 58.95C18.1077 58.95 25.1666 58.3754 25.1666 57.6666C25.1666 56.9579 18.1077 56.3833 9.39997 56.3833C0.692278 56.3833 -6.3667 56.9579 -6.3667 57.6666C-6.3667 58.3754 0.692278 58.95 9.39997 58.95Z" fill="url(#paint2_radial)"/><path opacity="0.8" d="M40.1266 58.2167C46.9105 58.2167 52.4099 57.8883 52.4099 57.4833C52.4099 57.0783 46.9105 56.75 40.1266 56.75C33.3427 56.75 27.8433 57.0783 27.8433 57.4833C27.8433 57.8883 33.3427 58.2167 40.1266 58.2167Z" fill="url(#paint3_radial)"/></g><path d="M42.4365 14.5833H38.7332C38.1832 14.5833 37.7432 15.0966 37.7432 15.6833C37.7432 16.3066 38.1832 16.7833 38.7332 16.7833H42.4365C42.9865 16.7833 43.4265 16.2699 43.4265 15.6833C43.4265 15.0599 42.9865 14.5833 42.4365 14.5833Z" fill="url(#paint4_linear)"/><path d="M38.6968 14.5833C38.1468 14.5833 37.7068 15.0966 37.7068 15.6833C37.7068 16.2699 38.1468 16.7833 38.6968 16.7833C39.2468 16.7833 39.6868 16.2699 39.6868 15.6833C39.6868 15.0966 39.2468 14.5833 38.6968 14.5833Z" fill="url(#paint5_linear)"/><path d="M38.22 15.1333C37.45 15.1333 36.7533 15.5733 36.46 16.2333C36.4233 16.27 36.35 16.3433 36.24 16.3433H35.0667V17.4433H36.24C36.8266 17.4433 37.34 17.1133 37.56 16.6733C37.67 16.4166 37.9267 16.27 38.22 16.27H38.44C38.77 16.27 39.0266 16.0133 39.0266 15.72C39.0266 15.39 38.77 15.17 38.44 15.17H38.22V15.1333Z" fill="url(#paint6_linear)"/><path d="M31.2533 13.5934L33.8933 13.4834C34.9199 15.5367 33.4533 17.9934 31.2166 17.9934H29.2733C28.5766 17.9934 27.9899 17.4434 27.9899 16.8201C27.9533 15.0967 29.4199 13.7034 31.2533 13.5934Z" fill="url(#paint7_linear)"/><path d="M29.97 16.8567C29.97 16.5633 29.75 16.3067 29.4933 16.3067H29.2367C29.1267 16.3067 29.0533 16.27 29.0167 16.1967C28.7233 15.5367 28.0267 15.0967 27.2567 15.0967H26.01V16.1967H27.2567C27.55 16.1967 27.8067 16.3433 27.9167 16.6C28.1367 17.0767 28.65 17.37 29.2367 17.37H29.4933C29.7867 17.4067 29.97 17.1867 29.97 16.8567Z" fill="url(#paint8_linear)"/><path d="M36.6801 16.3433L35.3601 13.63C35.1401 13.19 34.7001 12.9333 34.1868 12.9333H30.7768C29.8601 12.9333 29.2368 13.8133 29.6034 14.5833L30.4468 16.3433C30.8134 17.1133 30.1901 17.9933 29.2734 17.9933H35.4701C36.4234 17.9933 37.0468 17.1133 36.6801 16.3433Z" fill="url(#paint9_linear)"/><path d="M25.9734 14.5833H22.8201C22.2701 14.5833 21.8301 15.0966 21.8301 15.6833C21.8301 16.2699 22.2701 16.7833 22.8201 16.7833H25.9734C26.5234 16.7833 26.9634 16.2699 26.9634 15.6833C26.9634 15.0966 26.5234 14.5833 25.9734 14.5833Z" fill="url(#paint10_linear)"/><path d="M22.8201 14.5833C22.2701 14.5833 21.8301 15.0966 21.8301 15.6833C21.8301 16.2699 22.2701 16.7833 22.8201 16.7833C23.3701 16.7833 23.8101 16.2699 23.8101 15.6833C23.8101 15.0966 23.3701 14.5833 22.8201 14.5833Z" fill="url(#paint11_linear)"/><path d="M8.33638 36.4734C4.99971 36.4734 2.28638 41.2034 2.28638 47.0701C2.28638 50.8467 3.42305 54.1467 5.10971 56.0167L3.67971 57.6667H8.33638C11.673 57.6667 14.3864 52.9367 14.3864 47.0701C14.3864 41.2034 11.673 36.4734 8.33638 36.4734Z" fill="url(#paint12_linear)"/><path d="M23.9566 31.89C24.4699 31.89 24.8732 31.23 24.7632 30.5333C24.3232 27.3433 22.3799 24.9233 20.0332 24.9233H12.2232C10.7199 24.9233 7.23657 26.4633 7.23657 28.3333H10.9032C11.2699 28.3333 11.6366 28.6267 11.7832 29.03L12.5532 31.1933C12.6999 31.6333 15.1199 35.19 15.1199 35.19L23.9566 31.89Z" fill="url(#paint13_linear)"/><path d="M44.0499 30.7535L38.8799 18.6168C38.6965 18.1768 38.2932 17.9202 37.8165 17.9202H27.7332L31.0332 30.9368C31.4732 32.3302 23.8465 51.5435 22.7832 51.6902L31.3632 51.7268C33.0132 51.7268 34.7732 50.8102 35.6165 49.3435L36.5699 47.6568L43.7565 35.1168C44.5632 33.7602 44.6732 32.1468 44.0499 30.7535Z" fill="url(#paint14_linear)"/><path d="M40.3833 30.7168H37.4499C36.3133 30.7168 35.3233 30.1668 34.9566 29.2868L30.0066 17.9202H37.0099L41.8133 29.0302C42.2166 29.8368 41.4099 30.7168 40.3833 30.7168Z" fill="url(#paint15_linear)"/><path opacity="0.4" d="M33.0498 27.4165C34.5165 30.3498 37.5231 32.1098 39.7598 31.3398C42.0698 30.5698 42.7665 27.5632 41.2998 24.6298C39.8331 21.6965 36.8265 19.9365 34.5898 20.7065C32.3531 21.5132 31.6565 24.4832 33.0498 27.4165Z" fill="url(#paint16_radial)"/><path d="M35.0299 26.7567C35.7999 28.2967 37.3766 29.2133 38.5499 28.81C39.7599 28.4067 40.1266 26.83 39.3566 25.29C38.5866 23.75 37.0099 22.8333 35.8366 23.2367C34.6633 23.64 34.2966 25.2167 35.0299 26.7567Z" fill="#F8F9FB"/><path d="M34.2234 35.6299L29.0901 48.1699L35.6901 48.2799L40.4934 35.6299H34.2234V35.6299Z" fill="url(#paint17_linear)"/><path d="M44.27 46.4099L40.4934 35.6299H38.3667L42.5467 47.3632C42.6934 47.8032 43.06 48.0599 43.4267 48.0599C43.5367 48.0599 43.6834 48.0232 43.7934 47.9499C44.27 47.6932 44.49 46.9966 44.27 46.4099Z" fill="url(#paint18_linear)"/><path d="M41.8501 36.4734H37.3768L38.9534 37.7567C37.0468 39.5534 35.7634 43.0367 35.7634 47.0701C35.7634 50.7367 36.8268 53.9267 38.4401 55.8334L37.3768 57.6667H41.8501C45.1868 57.6667 47.9001 52.9367 47.9001 47.1067C47.9001 41.2767 45.1868 36.4734 41.8501 36.4734Z" fill="url(#paint19_linear)"/><path d="M37.3767 57.6667C40.7133 57.6667 43.4267 52.9367 43.4267 47.0701C43.4267 41.2034 40.7133 36.4734 37.3767 36.4734C34.04 36.4734 31.3267 41.2034 31.3267 47.0701C31.3267 52.9367 34.04 57.6667 37.3767 57.6667Z" fill="#212240"/><path d="M34.1135 47.0699C34.1135 50.2599 35.5802 52.8633 37.3769 52.8633C39.1735 52.8633 40.6402 50.2599 40.6402 47.0699C40.6402 43.8799 39.1735 41.2766 37.3769 41.2766C35.5802 41.2766 34.1135 43.8799 34.1135 47.0699Z" fill="url(#paint20_linear)"/><path d="M34.8469 47.0333C34.8469 44.0633 36.1302 41.6066 37.7435 41.3133C37.6335 41.2766 37.4869 41.2766 37.3769 41.2766C35.5802 41.2766 34.1135 43.8799 34.1135 47.0699C34.1135 50.2599 35.5802 52.8633 37.3769 52.8633C37.4869 52.8633 37.6335 52.8633 37.7435 52.8266C36.1302 52.4233 34.8469 49.9666 34.8469 47.0333Z" fill="url(#paint21_linear)"/><path d="M23.0033 39.9935C22.0499 37.2801 22.4166 34.1268 23.9566 31.8901H16.0733C14.5333 34.1268 14.1666 37.2801 15.1199 39.9935L17.7966 47.6568L21.9033 49.7468L25.6799 47.6568L23.0033 39.9935Z" fill="url(#paint22_linear)"/><path d="M3.68013 57.6667C7.01679 57.6667 9.73013 52.9367 9.73013 47.0701C9.73013 41.2034 7.01679 36.4734 3.68013 36.4734C0.34346 36.4734 -2.36987 41.2401 -2.36987 47.0701C-2.36987 52.9001 0.34346 57.6667 3.68013 57.6667Z" fill="#212240"/><path d="M0.416748 47.0333C0.416748 50.2233 1.88342 52.8267 3.68008 52.8267C5.47675 52.8267 6.94341 50.2233 6.94341 47.0333C6.94341 43.8433 5.47675 41.24 3.68008 41.24C1.88342 41.24 0.416748 43.8433 0.416748 47.0333Z" fill="url(#paint23_linear)"/><path d="M1.15008 46.9967C1.15008 44.0267 2.43341 41.57 4.04675 41.2767C3.93675 41.24 3.79008 41.24 3.68008 41.24C1.88341 41.24 0.416748 43.8433 0.416748 47.0333C0.416748 50.2233 1.88341 52.8267 3.68008 52.8267C3.79008 52.8267 3.93675 52.8267 4.04675 52.79C2.43341 52.3867 1.15008 49.93 1.15008 46.9967Z" fill="url(#paint24_linear)"/><path d="M9.91333 43.5134H3.68C2.58 43.5134 1.66333 45.0901 1.66333 47.0701C1.66333 49.0134 2.58 50.6268 3.68 50.6268H12.0767L9.91333 43.5134Z" fill="url(#paint25_linear)"/><path d="M12.8467 30.0933L8.59335 26.9033L0.27001 29.5067C-0.38999 29.5067 -0.976656 30.0567 -1.23332 30.9367L-2.33332 34.6033C-2.80999 36.18 -2.00332 37.94 -0.82999 37.94H6.54001L9.51001 47.6567L13.47 50.92L13.8733 49.93L17.6133 49.7467L12.8467 30.0933Z" fill="url(#paint26_linear)"/><path d="M14.6066 48.28L17.3199 48.5L12.8466 30.0933L8.59327 26.9033L0.269934 29.5067C-0.390066 29.5067 -0.976732 30.0567 -1.2334 30.9367H7.05327C8.3366 30.9367 9.4366 31.7433 9.80327 32.9533L14.6066 48.28Z" fill="url(#paint27_linear)"/><path d="M16.11 31.89L12.81 31.34L12.7733 31.1934H11.49L13.7633 38.6734L16.8433 48.6834L17.7967 47.6567L15.45 39.9934C14.6067 37.28 14.79 34.1267 16.11 31.89Z" fill="url(#paint28_linear)"/><path d="M10.7564 30.2034L11.0498 31.1567C11.1964 31.5967 11.4898 31.8534 11.8198 31.8534H12.9198H16.1098C16.6231 31.8534 17.0264 31.1934 16.9164 30.4967C16.4764 27.3067 14.5331 24.8867 12.1864 24.8867H2.76311C2.10311 24.8867 1.51644 25.4367 1.25978 26.2801L0.269775 29.4701H9.98644C10.3164 29.5067 10.6098 29.8001 10.7564 30.2034Z" fill="url(#paint29_linear)"/><path d="M31.6567 30.7535L27.7333 17.9202C26.1933 17.9202 25.13 20.2302 25.7533 22.2835L27.8433 29.1035C28.5767 31.5602 28.4667 34.3468 27.55 36.6568L23.5533 46.4835C23.26 47.2168 22.71 47.6568 22.1233 47.6568H9.51001L9.69334 48.2435C10.3167 50.2602 12.1133 51.6535 14.1667 51.6535L22.82 51.6902C23.9933 51.6902 25.0567 50.8102 25.68 49.3435L26.3767 47.6568L31.51 35.1168C32.0233 33.7602 32.06 32.1468 31.6567 30.7535Z" fill="url(#paint30_linear)"/><path d="M38.1832 46.3365L34.4432 35.6299H34.2232L32.9766 38.6365L36.0566 47.4365C36.2399 47.9499 36.6432 48.2799 37.1199 48.2799C37.3032 48.2799 37.4499 48.2432 37.5966 48.1699C38.1832 47.8399 38.4399 47.0332 38.1832 46.3365Z" fill="url(#paint31_linear)"/><path d="M35.8001 26.5C36.3135 27.5266 37.3401 28.1133 38.1468 27.8566C38.9535 27.6 39.1735 26.5366 38.6968 25.5466C38.1835 24.52 37.1568 23.9333 36.3501 24.19C35.5435 24.4466 35.2868 25.4733 35.8001 26.5Z" fill="url(#paint32_linear)"/><path d="M4.74322 28.37C4.59656 28.15 4.37656 28.04 4.11989 28.04H-0.646777H-1.19678C-1.19678 28.8467 -0.536777 29.5067 0.269889 29.5067H3.71656H5.47656L4.74322 28.37Z" fill="url(#paint33_linear)"/></g><defs><radialGradient id="paint0_radial" cx="0" cy="0" r="1" gradientUnits="userSpaceOnUse" gradientTransform="translate(27.0001 57.6565) rotate(90) scale(2.2 44)"><stop stop-color="#212240" stop-opacity="0.51"/><stop offset="1" stop-color="#23266A" stop-opacity="0"/></radialGradient><radialGradient id="paint1_radial" cx="0" cy="0" r="1" gradientUnits="userSpaceOnUse" gradientTransform="translate(41.3731 57.4732) rotate(90) scale(1.46666 13.493)"><stop stop-color="#212240"/><stop offset="1" stop-color="#23266A" stop-opacity="0"/></radialGradient><radialGradient id="paint2_radial" cx="0" cy="0" r="1" gradientUnits="userSpaceOnUse" gradientTransform="translate(9.39202 57.6566) rotate(90) scale(1.28333 15.7711)"><stop stop-color="#212240"/><stop offset="1" stop-color="#23266A" stop-opacity="0"/></radialGradient><radialGradient id="paint3_radial" cx="0" cy="0" r="1" gradientUnits="userSpaceOnUse" gradientTransform="translate(40.13 57.4733) rotate(90) scale(0.733334 12.2664)"><stop stop-color="#212240"/><stop offset="1" stop-color="#23266A" stop-opacity="0"/></radialGradient><linearGradient id="paint4_linear" x1="40.5665" y1="12.1993" x2="40.5665" y2="17.8856" gradientUnits="userSpaceOnUse"><stop stop-color="#616A8F"/><stop offset="1" stop-color="#212240"/></linearGradient><linearGradient id="paint5_linear" x1="37.4873" y1="10.9183" x2="38.0373" y2="13.1183" gradientUnits="userSpaceOnUse"><stop stop-color="#373D5C"/><stop offset="1" stop-color="#212240"/></linearGradient><linearGradient id="paint6_linear" x1="36.7526" y1="13.0687" x2="37.2415" y2="18.8742" gradientUnits="userSpaceOnUse"><stop stop-color="#616A8F"/><stop offset="1" stop-color="#212240"/></linearGradient><linearGradient id="paint7_linear" x1="30.4168" y1="12.122" x2="31.1501" y2="15.972" gradientUnits="userSpaceOnUse"><stop stop-color="#616A8F"/><stop offset="1" stop-color="#212240"/></linearGradient><linearGradient id="paint8_linear" x1="27.7636" y1="13.8257" x2="28.2525" y2="19.6313" gradientUnits="userSpaceOnUse"><stop stop-color="#616A8F"/><stop offset="1" stop-color="#212240"/></linearGradient><linearGradient id="paint9_linear" x1="32.6017" y1="13.3746" x2="33.1517" y2="18.508" gradientUnits="userSpaceOnUse"><stop stop-color="#616A8F"/><stop offset="1" stop-color="#212240"/></linearGradient><linearGradient id="paint10_linear" x1="24.3967" y1="12.1993" x2="24.3967" y2="17.8856" gradientUnits="userSpaceOnUse"><stop stop-color="#616A8F"/><stop offset="1" stop-color="#212240"/></linearGradient><linearGradient id="paint11_linear" x1="21.6289" y1="10.9183" x2="22.1788" y2="13.1183" gradientUnits="userSpaceOnUse"><stop stop-color="#373D5C"/><stop offset="1" stop-color="#212240"/></linearGradient><linearGradient id="paint12_linear" x1="7.56088" y1="65.9079" x2="8.23309" y2="49.5913" gradientUnits="userSpaceOnUse"><stop stop-color="#373D5C"/><stop offset="1" stop-color="#212240"/></linearGradient><linearGradient id="paint13_linear" x1="15.0251" y1="12.6049" x2="16.3085" y2="34.6966" gradientUnits="userSpaceOnUse"><stop offset="0.4349" stop-color="#616A8F"/><stop offset="1" stop-color="#212240"/></linearGradient><linearGradient id="paint14_linear" x1="33.8897" y1="16.9944" x2="33.248" y2="76.211" gradientUnits="userSpaceOnUse"><stop offset="0.2225" stop-color="#61A5FF"/><stop offset="1" stop-color="#3471E1"/></linearGradient><linearGradient id="paint15_linear" x1="51.8937" y1="28.9089" x2="22.9271" y2="20.0172" gradientUnits="userSpaceOnUse"><stop stop-color="#616A8F"/><stop offset="1" stop-color="#212240"/></linearGradient><radialGradient id="paint16_radial" cx="0" cy="0" r="1" gradientUnits="userSpaceOnUse" gradientTransform="translate(37.2068 26.0404) rotate(66.8912) scale(5.18772 4.15149)"><stop offset="0.2269" stop-color="#F8F9FB" stop-opacity="0.5"/><stop offset="0.9991" stop-color="#F8F9FB" stop-opacity="0"/></radialGradient><linearGradient id="paint17_linear" x1="34.9622" y1="26.1775" x2="34.8049" y2="40.7039" gradientUnits="userSpaceOnUse"><stop stop-color="#212240"/><stop offset="1" stop-color="#3471E1"/></linearGradient><linearGradient id="paint18_linear" x1="38.8489" y1="32.998" x2="42.9988" y2="46.4957" gradientUnits="userSpaceOnUse"><stop stop-color="#212240"/><stop offset="1" stop-color="#3471E1"/></linearGradient><linearGradient id="paint19_linear" x1="47.0161" y1="26.6911" x2="38.2161" y2="59.4466" gradientUnits="userSpaceOnUse"><stop stop-color="#616A8F"/><stop offset="1" stop-color="#212240"/></linearGradient><linearGradient id="paint20_linear" x1="37.2562" y1="48.4942" x2="38.234" y2="37.0665" gradientUnits="userSpaceOnUse"><stop offset="0.000421262" stop-color="#E6E8F5"/><stop offset="1" stop-color="#7EB5F0"/></linearGradient><linearGradient id="paint21_linear" x1="36.1452" y1="57.6119" x2="35.9619" y2="46.3064" gradientUnits="userSpaceOnUse"><stop offset="0.000421262" stop-color="#E6E8F5"/><stop offset="1" stop-color="#7EB5F0"/></linearGradient><linearGradient id="paint22_linear" x1="18.2336" y1="63.9089" x2="22.8729" y2="10.7226" gradientUnits="userSpaceOnUse"><stop stop-color="#616A8F"/><stop offset="1" stop-color="#212240"/></linearGradient><linearGradient id="paint23_linear" x1="3.55945" y1="48.4576" x2="4.53724" y2="37.0298" gradientUnits="userSpaceOnUse"><stop offset="0.000421262" stop-color="#E6E8F5"/><stop offset="1" stop-color="#7EB5F0"/></linearGradient><linearGradient id="paint24_linear" x1="2.44845" y1="57.5753" x2="2.26511" y2="46.2697" gradientUnits="userSpaceOnUse"><stop offset="0.000421262" stop-color="#E6E8F5"/><stop offset="1" stop-color="#7EB5F0"/></linearGradient><linearGradient id="paint25_linear" x1="14.0324" y1="40.0974" x2="-2.10093" y2="57.6057" gradientUnits="userSpaceOnUse"><stop offset="0.00109683" stop-color="#373D5C"/><stop offset="0.9981" stop-color="#616A8F"/></linearGradient><linearGradient id="paint26_linear" x1="-6.81161" y1="59.54" x2="12.0106" y2="35.2789" gradientUnits="userSpaceOnUse"><stop stop-color="#616A8F"/><stop offset="1" stop-color="#212240"/></linearGradient><linearGradient id="paint27_linear" x1="-0.321719" y1="-3.02151" x2="7.74494" y2="38.2285" gradientUnits="userSpaceOnUse"><stop stop-color="#B1B4D8" stop-opacity="0.42"/><stop offset="0.5189" stop-color="#B1B4D8"/><stop offset="1" stop-color="#A6ABE4" stop-opacity="0"/></linearGradient><linearGradient id="paint28_linear" x1="12.9603" y1="8.55898" x2="15.0686" y2="47.2423" gradientUnits="userSpaceOnUse"><stop stop-color="#373D5C"/><stop offset="1" stop-color="#212240"/></linearGradient><linearGradient id="paint29_linear" x1="-1.39478" y1="30.2801" x2="14.2802" y2="27.5301" gradientUnits="userSpaceOnUse"><stop stop-color="#373D5C"/><stop offset="1" stop-color="#212240"/></linearGradient><linearGradient id="paint30_linear" x1="15.4066" y1="30.9397" x2="44.4954" y2="54.6509" gradientUnits="userSpaceOnUse"><stop stop-color="#4988F5"/><stop offset="1" stop-color="#3471E1"/></linearGradient><linearGradient id="paint31_linear" x1="37.211" y1="57.4972" x2="35.7443" y2="43.8083" gradientUnits="userSpaceOnUse"><stop stop-color="#61A5FF"/><stop offset="1" stop-color="#3471E1"/></linearGradient><linearGradient id="paint32_linear" x1="38.3929" y1="31.262" x2="35.5818" y2="18.4898" gradientUnits="userSpaceOnUse"><stop offset="0.000421262" stop-color="#E6E8F5"/><stop offset="1" stop-color="#7EB5F0"/></linearGradient><linearGradient id="paint33_linear" x1="2.8711" y1="27.044" x2="0.487772" y2="32.7274" gradientUnits="userSpaceOnUse"><stop offset="0.000421262" stop-color="#E6E8F5"/><stop offset="1" stop-color="#7EB5F0"/></linearGradient></defs></svg>