<svg xmlns="http://www.w3.org/2000/svg" viewBox="0 0 64 64" fill="none"><circle cx="29" cy="35" r="29" fill="#F0F5FF"/><mask id="mask0" mask-type="alpha" maskUnits="userSpaceOnUse" x="0" y="0" width="64" height="64"><path fill-rule="evenodd" clip-rule="evenodd" d="M0 0H30H64V15V64H30V63.9831C29.6681 63.9943 29.3347 64 29 64C12.9837 64 0 51.0163 0 35C0 27.2462 3.04301 20.2032 7.99993 15H0V0Z" fill="#C4C4C4"/></mask><g mask="url(#mask0)"><path opacity="0.75" d="M20 59.8667C44.3005 59.8667 64 58.5534 64 56.9333C64 55.3133 44.3005 54 20 54C-4.30053 54 -24 55.3133 -24 56.9333C-24 58.5534 -4.30053 59.8667 20 59.8667Z" fill="url(#paint0_radial)"/><path opacity="0.75" d="M20 58.7667C44.3005 58.7667 64 57.8638 64 56.7501C64 55.6363 44.3005 54.7334 20 54.7334C-4.30053 54.7334 -24 55.6363 -24 56.7501C-24 57.8638 -4.30053 58.7667 20 58.7667Z" fill="url(#paint1_radial)"/><path opacity="0.8" d="M46.95 58.1067C53.9364 58.1067 59.6 57.6143 59.6 57.0067C59.6 56.3992 53.9364 55.9067 46.95 55.9067C39.9636 55.9067 34.3 56.3992 34.3 57.0067C34.3 57.6143 39.9636 58.1067 46.95 58.1067Z" fill="url(#paint2_radial)"/><path opacity="0.8" d="M-10.25 58.3999C-2.65608 58.3999 3.5 57.7432 3.5 56.9332C3.5 56.1232 -2.65608 55.4666 -10.25 55.4666C-17.8439 55.4666 -24 56.1232 -24 56.9332C-24 57.7432 -17.8439 58.3999 -10.25 58.3999Z" fill="url(#paint3_radial)"/><path opacity="0.8" d="M18.3499 58.1067C27.0576 58.1067 34.1166 57.6143 34.1166 57.0067C34.1166 56.3992 27.0576 55.9067 18.3499 55.9067C9.64223 55.9067 2.58325 56.3992 2.58325 57.0067C2.58325 57.6143 9.64223 58.1067 18.3499 58.1067Z" fill="url(#paint4_radial)"/><path opacity="0.64" d="M42.9899 57.7401C49.7738 57.7401 55.2732 57.4118 55.2732 57.0068C55.2732 56.6018 49.7738 56.2734 42.9899 56.2734C36.206 56.2734 30.7065 56.6018 30.7065 57.0068C30.7065 57.4118 36.206 57.7401 42.9899 57.7401Z" fill="url(#paint5_radial)"/><path opacity="0.64" d="M-9.26012 57.7401C-2.47623 57.7401 3.02321 57.4118 3.02321 57.0068C3.02321 56.6018 -2.47623 56.2734 -9.26012 56.2734C-16.044 56.2734 -21.5435 56.6018 -21.5435 57.0068C-21.5435 57.4118 -16.044 57.7401 -9.26012 57.7401Z" fill="url(#paint6_radial)"/><path d="M26.8889 19.8999H-2L13.4 31.9999H47.1333C38.1763 21.1323 32.2049 19.8999 26.8889 19.8999Z" fill="url(#paint7_linear)"/><path d="M36.3782 22.2659C34.5384 24.0096 31.8189 24.2803 28.7213 24.5885C23.8995 25.0684 18.1616 25.6394 13.3999 31.9999H47.1332C42.985 26.9669 39.4771 24.0004 36.3782 22.2659Z" fill="url(#paint8_linear)"/><path d="M0.176268 19.8999C0.176268 19.8999 -0.716684 19.8999 -1.94378 19.8999C-12.2667 19.8999 -16.3 25.3999 -21.4333 31.9999H-13.6226H11.0369H13.4C11.8378 27.6305 6.42483 19.9746 0.176268 19.8999Z" fill="url(#paint9_linear)"/><path d="M-21.4333 31.9999L4.96665 31.9999C3.49195 28.684 -0.304886 26.9205 -3.70034 25.3435C-6.40413 24.0876 -8.8534 22.95 -9.67303 21.241C-14.5961 23.1998 -17.6251 27.0984 -21.0853 31.5521C-21.2008 31.7008 -21.3168 31.85 -21.4333 31.9999Z" fill="url(#paint10_linear)"/><mask id="mask1" mask-type="alpha" maskUnits="userSpaceOnUse" x="-24" y="32" width="88" height="22"><path fill-rule="evenodd" clip-rule="evenodd" d="M13.4 54H-17.4C-18.5601 54 -20.8946 51.8712 -22.4528 50.3077C-23.4732 49.2839 -24 47.8832 -24 46.4378V38.5943C-24 36.9206 -23.5227 35.2834 -22.6242 33.8714L-21.4333 32H13.4H47.1333L64 38.6V48.1333C64 51.3734 61.3734 54 58.1333 54H22.9466H13.4Z" fill="url(#paint11_linear)"/></mask><g mask="url(#mask1)"><path d="M63.9999 54V38.6L47.1332 32H13.3999L21.8332 54H63.9999Z" fill="url(#paint12_linear)"/><path d="M28.8 48.1333C28.8 51.3734 26.1874 54 22.9473 54C10.8336 54 -15.9832 54 -17.4 54C-19.2333 54 -24 48.6833 -24 48.6833C-24 42.0833 -24 36.0333 -24 36.0333L-21.4333 32H13.4L28.8 38.6V48.1333Z" fill="url(#paint13_linear)"/><path d="M28.8 48.1333C28.8 51.3734 26.1874 54 22.9473 54C10.8336 54 -15.9832 54 -17.4 54C-19.2333 54 -24 48.6833 -24 48.6833C-24 42.0833 -24 36.0333 -24 36.0333L-21.4333 32H13.4L28.8 38.6V48.1333Z" fill="url(#paint14_linear)"/><path opacity="0.08" fill-rule="evenodd" clip-rule="evenodd" d="M55.75 49.6C57.2166 51.0666 59.6 51.0666 61.4333 51.0666H64V54H-24V51.0666H32.54C34.08 51.0666 36.6833 51.0666 38.5166 49.6C40.0394 48.3818 41.3033 48.1333 42.22 48.1333H51.6433C53.5133 48.1333 54.5957 48.4457 55.75 49.6Z" fill="url(#paint15_linear)"/><path opacity="0.9" d="M28.8 38.6L13.4 32H-21.4333C-19.4167 34.0167 -15.75 36.4 -11.5333 36.4H14.7567C22.0167 36.4 22.2 40.0667 27.5167 40.0667C28.9833 40.0667 28.8 40.0667 28.8 40.0667C28.8 37.83 28.8 39.3333 28.8 38.6Z" fill="url(#paint16_radial)"/></g><path d="M35.7666 38.6001H57.0333L54.0999 40.0668H38.6999L35.7666 38.6001Z" fill="url(#paint17_linear)"/><path d="M64.0001 38.6001H54.1001V40.0668H64.0001V38.6001Z" fill="white"/><path d="M38.7001 40.0668H28.8001C28.8001 40.0668 28.8 39.4068 28.8 38.6001H38.7001V40.0668Z" fill="white"/><path d="M28.8 40.0668H27.3334C26.5234 40.0668 25.8667 39.4101 25.8667 38.6001V38.6001H28.8V40.0668Z" fill="url(#paint18_radial)"/><rect x="25.8667" y="38.6001" width="2.93333" height="1.46667" fill="url(#paint19_linear)"/><path opacity="0.24" d="M34.6667 40.0667L31.0367 51.0667H28.8V40.0667H34.6667Z" fill="url(#paint20_linear)"/><path opacity="0.24" d="M58.1333 40.0667L62.0933 51.0667H64V40.0667H58.1333Z" fill="url(#paint21_linear)"/><path opacity="0.64" d="M21.8333 51.0665C21.8333 50.3332 21.8333 48.655 21.8333 47.9628C21.8333 42.7895 19.3758 38.5999 16.2942 38.5999C13.2127 38.5999 10.8333 42.7895 10.8333 47.9628C10.8333 48.655 10.8333 50.3332 10.8333 51.0665" fill="url(#paint22_linear)"/><path d="M20.9434 54C20.4286 54 19.8529 53.564 20 53.0833C20.4412 51.7889 20.7333 50.3333 20.7333 48.6833C20.7333 43.9127 19.0833 39.7 16.2734 39.7C13.4 39.7 11.5667 43.9497 11.5667 48.6833C11.5667 53.4539 13.7036 56.9333 16.2104 56.9333H20.7333C22.2042 56.9333 23.5175 55.96 24.4 54H20.9434Z" fill="#212240"/><path d="M42 54C42.9167 56.0167 43.7744 56.9333 45.3 56.9333H50.3536C51.9 56.9333 53.2248 56.0072 54.1 54H42Z" fill="#212240"/><path d="M13.3999 48.3166C13.3999 51.4406 14.6408 54 16.1499 54C17.659 54 18.8999 51.4406 18.8999 48.3166C18.8999 45.1927 17.659 42.6333 16.1499 42.6333C14.6408 42.6333 13.3999 45.1927 13.3999 48.3166Z" fill="url(#paint23_linear)"/><path d="M14.4205 48.3543C14.4205 45.5691 15.4071 43.2355 16.6999 42.7462C16.5298 42.6709 16.3597 42.6333 16.1896 42.6333C14.6832 42.6333 13.3999 45.1927 13.3999 48.3166C13.3999 51.4406 14.6587 54 16.1896 54C16.3597 54 16.5298 53.9623 16.6999 53.8871C15.4071 53.473 14.4205 51.1395 14.4205 48.3543Z" fill="url(#paint24_linear)"/><path d="M17.2763 18.3966C17.2763 17.5899 16.6444 16.9666 15.8151 16.9666H11.1946C10.4048 16.9666 9.7334 17.6266 9.7334 18.3966V19.8999H17.2763V18.3966Z" fill="url(#paint25_linear)"/><path d="M18.5333 18.3966C18.5333 17.6266 17.9446 16.9666 17.1719 16.9666H12.3519C11.616 16.9666 10.9905 17.5899 10.9905 18.3966V19.8999H18.5333V18.3966Z" fill="url(#paint26_linear)"/></g><defs><radialGradient id="paint0_radial" cx="0" cy="0" r="1" gradientUnits="userSpaceOnUse" gradientTransform="translate(19.9957 56.9402) rotate(90) scale(2.93333 44)"><stop stop-color="#212240" stop-opacity="0.23"/><stop offset="1" stop-color="#23266A" stop-opacity="0"/></radialGradient><radialGradient id="paint1_radial" cx="0" cy="0" r="1" gradientUnits="userSpaceOnUse" gradientTransform="translate(19.9957 56.7563) rotate(90) scale(2.01667 44)"><stop stop-color="#212240" stop-opacity="0.51"/><stop offset="1" stop-color="#23266A" stop-opacity="0"/></radialGradient><radialGradient id="paint2_radial" cx="0" cy="0" r="1" gradientUnits="userSpaceOnUse" gradientTransform="translate(46.9516 57.0138) rotate(90) scale(1.1 12.65)"><stop stop-color="#212240"/><stop offset="1" stop-color="#23266A" stop-opacity="0"/></radialGradient><radialGradient id="paint3_radial" cx="0" cy="0" r="1" gradientUnits="userSpaceOnUse" gradientTransform="translate(-10.2514 56.9409) rotate(90) scale(1.46667 13.7497)"><stop stop-color="#212240"/><stop offset="1" stop-color="#23266A" stop-opacity="0"/></radialGradient><radialGradient id="paint4_radial" cx="0" cy="0" r="1" gradientUnits="userSpaceOnUse" gradientTransform="translate(18.3483 57.0125) rotate(90) scale(1.1 15.7663)"><stop stop-color="#212240"/><stop offset="1" stop-color="#23266A" stop-opacity="0"/></radialGradient><radialGradient id="paint5_radial" cx="0" cy="0" r="1" gradientUnits="userSpaceOnUse" gradientTransform="translate(42.9867 57.0136) rotate(90) scale(0.733334 12.2664)"><stop stop-color="#212240"/><stop offset="1" stop-color="#23266A" stop-opacity="0"/></radialGradient><radialGradient id="paint6_radial" cx="0" cy="0" r="1" gradientUnits="userSpaceOnUse" gradientTransform="translate(-9.26478 57.0136) rotate(90) scale(0.733334 12.2664)"><stop stop-color="#212240"/><stop offset="1" stop-color="#23266A" stop-opacity="0"/></radialGradient><linearGradient id="paint7_linear" x1="26.6273" y1="-3.3618" x2="21.5225" y2="47.7768" gradientUnits="userSpaceOnUse"><stop stop-color="white"/><stop offset="0.999" stop-color="#8FCEFF"/></linearGradient><linearGradient id="paint8_linear" x1="25.6272" y1="-1.80521" x2="31.3672" y2="38.4885" gradientUnits="userSpaceOnUse"><stop stop-color="white"/><stop offset="0.999" stop-color="#8FCEFF"/></linearGradient><linearGradient id="paint9_linear" x1="0.549949" y1="7.52104" x2="-10.8213" y2="67.3817" gradientUnits="userSpaceOnUse"><stop stop-color="#B2DEFF"/><stop offset="0.3298" stop-color="#93C8FF"/><stop offset="0.7656" stop-color="#6FAFFF"/><stop offset="0.9985" stop-color="#61A5FF"/></linearGradient><linearGradient id="paint10_linear" x1="-3.9334" y1="9.99879" x2="-11.4074" y2="48.0302" gradientUnits="userSpaceOnUse"><stop stop-color="#B2DEFF"/><stop offset="0.3298" stop-color="#93C8FF"/><stop offset="0.7656" stop-color="#6FAFFF"/><stop offset="0.9985" stop-color="#61A5FF"/></linearGradient><linearGradient id="paint11_linear" x1="-20.5167" y1="54" x2="14.7527" y2="21.5481" gradientUnits="userSpaceOnUse"><stop stop-color="#4C4E78"/><stop offset="0.527598" stop-color="#393C63"/><stop offset="1" stop-color="#313356"/></linearGradient><linearGradient id="paint12_linear" x1="22.5269" y1="39.4706" x2="64.4629" y2="48.4759" gradientUnits="userSpaceOnUse"><stop stop-color="#F5F6FA"/><stop offset="0.9981" stop-color="#DFE2F3"/></linearGradient><linearGradient id="paint13_linear" x1="-24" y1="48.5455" x2="19.1831" y2="64.1871" gradientUnits="userSpaceOnUse"><stop stop-color="#CFD4E7"/><stop offset="0.150577" stop-color="#DDE0EE"/><stop offset="0.479036" stop-color="#D9DDEC"/><stop offset="1" stop-color="#D5DAED"/></linearGradient><linearGradient id="paint14_linear" x1="-0.493149" y1="36.7667" x2="-2.35127" y2="52.7109" gradientUnits="userSpaceOnUse"><stop stop-color="#CBD0E3"/><stop offset="1" stop-color="white" stop-opacity="0"/></linearGradient><linearGradient id="paint15_linear" x1="20" y1="54" x2="20" y2="40.8" gradientUnits="userSpaceOnUse"><stop stop-color="#212240"/><stop offset="1" stop-color="#212240" stop-opacity="0"/></linearGradient><radialGradient id="paint16_radial" cx="0" cy="0" r="1" gradientUnits="userSpaceOnUse" gradientTransform="translate(-3.54189 38.7833) rotate(-84.0134) scale(8.66392 31.9655)"><stop stop-color="white"/><stop offset="1" stop-color="white" stop-opacity="0"/></radialGradient><linearGradient id="paint17_linear" x1="46.394" y1="40.4334" x2="46.3988" y2="32.5501" gradientUnits="userSpaceOnUse"><stop stop-color="#2F315C" stop-opacity="0"/><stop offset="0.9995" stop-color="#2F315C"/></linearGradient><radialGradient id="paint18_radial" cx="0" cy="0" r="1" gradientUnits="userSpaceOnUse" gradientTransform="translate(28.9834 38.6001) rotate(164.055) scale(2.66937 5.33875)"><stop stop-color="white" stop-opacity="0.96"/><stop offset="1" stop-color="white" stop-opacity="0.64"/></radialGradient><linearGradient id="paint19_linear" x1="28.9834" y1="40.2501" x2="27.8334" y2="38.6932" gradientUnits="userSpaceOnUse"><stop stop-color="#212240" stop-opacity="0.08"/><stop offset="1" stop-color="#212240" stop-opacity="0"/></linearGradient><linearGradient id="paint20_linear" x1="25.3167" y1="40.9833" x2="31.3192" y2="45.3813" gradientUnits="userSpaceOnUse"><stop stop-color="white"/><stop offset="1" stop-color="white" stop-opacity="0"/></linearGradient><linearGradient id="paint21_linear" x1="67.6666" y1="41.3693" x2="61.346" y2="45.7296" gradientUnits="userSpaceOnUse"><stop stop-color="white"/><stop offset="1" stop-color="white" stop-opacity="0"/></linearGradient><linearGradient id="paint22_linear" x1="16.3371" y1="36.4096" x2="16.3371" y2="57.2407" gradientUnits="userSpaceOnUse"><stop offset="0.000404094" stop-color="#212240"/><stop offset="0.2945" stop-color="#212240" stop-opacity="0"/></linearGradient><linearGradient id="paint23_linear" x1="15.9882" y1="50.2424" x2="17.147" y2="39.5412" gradientUnits="userSpaceOnUse"><stop offset="0.000421262" stop-color="#E6E8F5"/><stop offset="1" stop-color="#7EB5F0"/></linearGradient><linearGradient id="paint24_linear" x1="15.7989" y1="57.4257" x2="14.967" y2="46.7107" gradientUnits="userSpaceOnUse"><stop offset="0.000421262" stop-color="#E6E8F5"/><stop offset="1" stop-color="#7EB5F0"/></linearGradient><linearGradient id="paint25_linear" x1="14.0031" y1="15.836" x2="13.3443" y2="20.6606" gradientUnits="userSpaceOnUse"><stop offset="0.000846675" stop-color="#FCC565"/><stop offset="0.9996" stop-color="#925B54"/></linearGradient><linearGradient id="paint26_linear" x1="16.7749" y1="15.0898" x2="12.476" y2="24.1764" gradientUnits="userSpaceOnUse"><stop offset="0.000846675" stop-color="#FCC565"/><stop offset="1" stop-color="#FFDA84"/></linearGradient></defs></svg>